G04 EAGLE Gerber RS-274X export*
G75*
%MOMM*%
%FSLAX34Y34*%
%LPD*%
%INSolderpaste Top*%
%IPPOS*%
%AMOC8*
5,1,8,0,0,1.08239X$1,22.5*%
G01*
%ADD10R,0.300000X1.000000*%
%ADD11R,0.600000X1.000000*%
%ADD12R,1.100000X1.000000*%
%ADD13R,1.375000X0.800000*%
%ADD14R,0.300000X0.650000*%
%ADD15R,0.762000X1.524000*%
%ADD16R,2.800000X1.000000*%
%ADD17C,0.300000*%
%ADD18R,1.000000X1.100000*%
%ADD19R,0.750000X1.550000*%
%ADD20R,1.550000X0.750000*%
%ADD21R,1.050000X1.050000*%
%ADD22R,1.300000X0.650000*%
%ADD23R,1.800000X0.480000*%
%ADD24R,1.000000X1.030000*%
%ADD25R,0.600000X1.200000*%
%ADD26R,0.660400X0.355600*%
%ADD27R,0.600000X0.600000*%
%ADD28R,0.850000X0.900000*%
%ADD29R,0.550000X1.200000*%
%ADD30R,0.900000X0.850000*%
%ADD31R,0.250000X0.750000*%
%ADD32R,0.700000X0.700000*%
%ADD33R,0.420000X0.700000*%
%ADD34R,0.650000X0.460000*%
%ADD35R,0.400000X1.300000*%
%ADD36R,0.400000X1.275000*%
%ADD37R,1.100000X2.400000*%
%ADD38R,1.250000X7.000000*%
%ADD39R,0.830000X0.630000*%
%ADD40R,0.250000X0.875000*%
%ADD41R,0.800000X1.200000*%

G36*
X1191080Y640851D02*
X1191080Y640851D01*
X1191081Y640851D01*
X1192149Y640870D01*
X1192156Y640875D01*
X1192160Y640871D01*
X1193197Y641127D01*
X1193202Y641134D01*
X1193208Y641131D01*
X1194162Y641612D01*
X1194166Y641619D01*
X1194171Y641618D01*
X1194995Y642299D01*
X1194996Y642307D01*
X1195002Y642307D01*
X1195653Y643154D01*
X1195653Y643162D01*
X1195659Y643163D01*
X1196106Y644134D01*
X1196104Y644142D01*
X1196109Y644144D01*
X1196328Y645190D01*
X1196325Y645197D01*
X1196329Y645200D01*
X1196329Y657200D01*
X1196326Y657205D01*
X1196329Y657208D01*
X1196149Y658303D01*
X1196143Y658309D01*
X1196146Y658314D01*
X1195727Y659342D01*
X1195720Y659346D01*
X1195722Y659351D01*
X1195085Y660260D01*
X1195077Y660263D01*
X1195077Y660268D01*
X1194254Y661012D01*
X1194246Y661013D01*
X1194245Y661019D01*
X1193277Y661561D01*
X1193268Y661560D01*
X1193266Y661566D01*
X1192202Y661879D01*
X1192197Y661877D01*
X1192193Y661877D01*
X1192191Y661881D01*
X1191083Y661949D01*
X1191077Y661945D01*
X1191073Y661949D01*
X1189965Y661779D01*
X1189959Y661773D01*
X1189954Y661776D01*
X1188912Y661364D01*
X1188908Y661357D01*
X1188903Y661359D01*
X1187978Y660725D01*
X1187976Y660717D01*
X1187970Y660718D01*
X1187210Y659895D01*
X1187209Y659886D01*
X1187203Y659886D01*
X1186646Y658914D01*
X1186647Y658906D01*
X1186641Y658904D01*
X1186314Y657832D01*
X1186317Y657824D01*
X1186312Y657821D01*
X1186231Y656704D01*
X1186232Y656701D01*
X1186231Y656700D01*
X1186231Y644700D01*
X1186236Y644693D01*
X1186232Y644689D01*
X1186451Y643745D01*
X1186457Y643739D01*
X1186455Y643734D01*
X1186879Y642862D01*
X1186886Y642859D01*
X1186884Y642853D01*
X1187491Y642097D01*
X1187499Y642095D01*
X1187499Y642089D01*
X1188259Y641488D01*
X1188268Y641488D01*
X1188269Y641482D01*
X1189144Y641064D01*
X1189152Y641066D01*
X1189154Y641061D01*
X1190100Y640849D01*
X1190107Y640852D01*
X1190111Y640847D01*
X1191080Y640851D01*
G37*
G36*
X614500Y43951D02*
X614500Y43951D01*
X614501Y43951D01*
X615569Y43970D01*
X615576Y43975D01*
X615580Y43971D01*
X616617Y44227D01*
X616622Y44234D01*
X616628Y44231D01*
X617582Y44712D01*
X617586Y44719D01*
X617591Y44718D01*
X618415Y45399D01*
X618416Y45407D01*
X618422Y45407D01*
X619073Y46254D01*
X619073Y46262D01*
X619079Y46263D01*
X619526Y47234D01*
X619524Y47242D01*
X619529Y47244D01*
X619748Y48290D01*
X619745Y48297D01*
X619749Y48300D01*
X619749Y60300D01*
X619746Y60305D01*
X619749Y60308D01*
X619569Y61403D01*
X619563Y61409D01*
X619566Y61414D01*
X619147Y62442D01*
X619140Y62446D01*
X619142Y62451D01*
X618505Y63360D01*
X618497Y63363D01*
X618497Y63368D01*
X617674Y64112D01*
X617666Y64113D01*
X617665Y64119D01*
X616697Y64661D01*
X616688Y64660D01*
X616686Y64666D01*
X615622Y64979D01*
X615617Y64977D01*
X615613Y64977D01*
X615611Y64981D01*
X614503Y65049D01*
X614497Y65045D01*
X614493Y65049D01*
X613385Y64879D01*
X613379Y64873D01*
X613374Y64876D01*
X612332Y64464D01*
X612328Y64457D01*
X612323Y64459D01*
X611398Y63825D01*
X611396Y63817D01*
X611390Y63818D01*
X610630Y62995D01*
X610629Y62986D01*
X610623Y62986D01*
X610066Y62014D01*
X610067Y62006D01*
X610061Y62004D01*
X609734Y60932D01*
X609737Y60924D01*
X609732Y60921D01*
X609651Y59804D01*
X609652Y59801D01*
X609651Y59800D01*
X609651Y47800D01*
X609656Y47793D01*
X609652Y47789D01*
X609871Y46845D01*
X609877Y46839D01*
X609875Y46834D01*
X610299Y45962D01*
X610306Y45959D01*
X610304Y45953D01*
X610911Y45197D01*
X610919Y45195D01*
X610919Y45189D01*
X611679Y44588D01*
X611688Y44588D01*
X611689Y44582D01*
X612564Y44164D01*
X612572Y44166D01*
X612574Y44161D01*
X613520Y43949D01*
X613527Y43952D01*
X613531Y43947D01*
X614500Y43951D01*
G37*
G36*
X220800Y43951D02*
X220800Y43951D01*
X220801Y43951D01*
X221869Y43970D01*
X221876Y43975D01*
X221880Y43971D01*
X222917Y44227D01*
X222922Y44234D01*
X222928Y44231D01*
X223882Y44712D01*
X223886Y44719D01*
X223891Y44718D01*
X224715Y45399D01*
X224716Y45407D01*
X224722Y45407D01*
X225373Y46254D01*
X225373Y46262D01*
X225379Y46263D01*
X225826Y47234D01*
X225824Y47242D01*
X225829Y47244D01*
X226048Y48290D01*
X226045Y48297D01*
X226049Y48300D01*
X226049Y60300D01*
X226046Y60305D01*
X226049Y60308D01*
X225869Y61403D01*
X225863Y61409D01*
X225866Y61414D01*
X225447Y62442D01*
X225440Y62446D01*
X225442Y62451D01*
X224805Y63360D01*
X224797Y63363D01*
X224797Y63368D01*
X223974Y64112D01*
X223966Y64113D01*
X223965Y64119D01*
X222997Y64661D01*
X222988Y64660D01*
X222986Y64666D01*
X221922Y64979D01*
X221917Y64977D01*
X221913Y64977D01*
X221911Y64981D01*
X220803Y65049D01*
X220797Y65045D01*
X220793Y65049D01*
X219685Y64879D01*
X219679Y64873D01*
X219674Y64876D01*
X218632Y64464D01*
X218628Y64457D01*
X218623Y64459D01*
X217698Y63825D01*
X217696Y63817D01*
X217690Y63818D01*
X216930Y62995D01*
X216929Y62986D01*
X216923Y62986D01*
X216366Y62014D01*
X216367Y62006D01*
X216361Y62004D01*
X216034Y60932D01*
X216037Y60924D01*
X216032Y60921D01*
X215951Y59804D01*
X215952Y59801D01*
X215951Y59800D01*
X215951Y47800D01*
X215956Y47793D01*
X215952Y47789D01*
X216171Y46845D01*
X216177Y46839D01*
X216175Y46834D01*
X216599Y45962D01*
X216606Y45959D01*
X216604Y45953D01*
X217211Y45197D01*
X217219Y45195D01*
X217219Y45189D01*
X217979Y44588D01*
X217988Y44588D01*
X217989Y44582D01*
X218864Y44164D01*
X218872Y44166D01*
X218874Y44161D01*
X219820Y43949D01*
X219827Y43952D01*
X219831Y43947D01*
X220800Y43951D01*
G37*
G36*
X424000Y43951D02*
X424000Y43951D01*
X424001Y43951D01*
X425069Y43970D01*
X425076Y43975D01*
X425080Y43971D01*
X426117Y44227D01*
X426122Y44234D01*
X426128Y44231D01*
X427082Y44712D01*
X427086Y44719D01*
X427091Y44718D01*
X427915Y45399D01*
X427916Y45407D01*
X427922Y45407D01*
X428573Y46254D01*
X428573Y46262D01*
X428579Y46263D01*
X429026Y47234D01*
X429024Y47242D01*
X429029Y47244D01*
X429248Y48290D01*
X429245Y48297D01*
X429249Y48300D01*
X429249Y60300D01*
X429246Y60305D01*
X429249Y60308D01*
X429069Y61403D01*
X429063Y61409D01*
X429066Y61414D01*
X428647Y62442D01*
X428640Y62446D01*
X428642Y62451D01*
X428005Y63360D01*
X427997Y63363D01*
X427997Y63368D01*
X427174Y64112D01*
X427166Y64113D01*
X427165Y64119D01*
X426197Y64661D01*
X426188Y64660D01*
X426186Y64666D01*
X425122Y64979D01*
X425117Y64977D01*
X425113Y64977D01*
X425111Y64981D01*
X424003Y65049D01*
X423997Y65045D01*
X423993Y65049D01*
X422885Y64879D01*
X422879Y64873D01*
X422874Y64876D01*
X421832Y64464D01*
X421828Y64457D01*
X421823Y64459D01*
X420898Y63825D01*
X420896Y63817D01*
X420890Y63818D01*
X420130Y62995D01*
X420129Y62986D01*
X420123Y62986D01*
X419566Y62014D01*
X419567Y62006D01*
X419561Y62004D01*
X419234Y60932D01*
X419237Y60924D01*
X419232Y60921D01*
X419151Y59804D01*
X419152Y59801D01*
X419151Y59800D01*
X419151Y47800D01*
X419156Y47793D01*
X419152Y47789D01*
X419371Y46845D01*
X419377Y46839D01*
X419375Y46834D01*
X419799Y45962D01*
X419806Y45959D01*
X419804Y45953D01*
X420411Y45197D01*
X420419Y45195D01*
X420419Y45189D01*
X421179Y44588D01*
X421188Y44588D01*
X421189Y44582D01*
X422064Y44164D01*
X422072Y44166D01*
X422074Y44161D01*
X423020Y43949D01*
X423027Y43952D01*
X423031Y43947D01*
X424000Y43951D01*
G37*
G36*
X1191080Y43951D02*
X1191080Y43951D01*
X1191081Y43951D01*
X1192149Y43970D01*
X1192156Y43975D01*
X1192160Y43971D01*
X1193197Y44227D01*
X1193202Y44234D01*
X1193208Y44231D01*
X1194162Y44712D01*
X1194166Y44719D01*
X1194171Y44718D01*
X1194995Y45399D01*
X1194996Y45407D01*
X1195002Y45407D01*
X1195653Y46254D01*
X1195653Y46262D01*
X1195659Y46263D01*
X1196106Y47234D01*
X1196104Y47242D01*
X1196109Y47244D01*
X1196328Y48290D01*
X1196325Y48297D01*
X1196329Y48300D01*
X1196329Y60300D01*
X1196326Y60305D01*
X1196329Y60308D01*
X1196149Y61403D01*
X1196143Y61409D01*
X1196146Y61414D01*
X1195727Y62442D01*
X1195720Y62446D01*
X1195722Y62451D01*
X1195085Y63360D01*
X1195077Y63363D01*
X1195077Y63368D01*
X1194254Y64112D01*
X1194246Y64113D01*
X1194245Y64119D01*
X1193277Y64661D01*
X1193268Y64660D01*
X1193266Y64666D01*
X1192202Y64979D01*
X1192197Y64977D01*
X1192193Y64977D01*
X1192191Y64981D01*
X1191083Y65049D01*
X1191077Y65045D01*
X1191073Y65049D01*
X1189965Y64879D01*
X1189959Y64873D01*
X1189954Y64876D01*
X1188912Y64464D01*
X1188908Y64457D01*
X1188903Y64459D01*
X1187978Y63825D01*
X1187976Y63817D01*
X1187970Y63818D01*
X1187210Y62995D01*
X1187209Y62986D01*
X1187203Y62986D01*
X1186646Y62014D01*
X1186647Y62006D01*
X1186641Y62004D01*
X1186314Y60932D01*
X1186317Y60924D01*
X1186312Y60921D01*
X1186231Y59804D01*
X1186232Y59801D01*
X1186231Y59800D01*
X1186231Y47800D01*
X1186236Y47793D01*
X1186232Y47789D01*
X1186451Y46845D01*
X1186457Y46839D01*
X1186455Y46834D01*
X1186879Y45962D01*
X1186886Y45959D01*
X1186884Y45953D01*
X1187491Y45197D01*
X1187499Y45195D01*
X1187499Y45189D01*
X1188259Y44588D01*
X1188268Y44588D01*
X1188269Y44582D01*
X1189144Y44164D01*
X1189152Y44166D01*
X1189154Y44161D01*
X1190100Y43949D01*
X1190107Y43952D01*
X1190111Y43947D01*
X1191080Y43951D01*
G37*
G36*
X987880Y43951D02*
X987880Y43951D01*
X987881Y43951D01*
X988949Y43970D01*
X988956Y43975D01*
X988960Y43971D01*
X989997Y44227D01*
X990002Y44234D01*
X990008Y44231D01*
X990962Y44712D01*
X990966Y44719D01*
X990971Y44718D01*
X991795Y45399D01*
X991796Y45407D01*
X991802Y45407D01*
X992453Y46254D01*
X992453Y46262D01*
X992459Y46263D01*
X992906Y47234D01*
X992904Y47242D01*
X992909Y47244D01*
X993128Y48290D01*
X993125Y48297D01*
X993129Y48300D01*
X993129Y60300D01*
X993126Y60305D01*
X993129Y60308D01*
X992949Y61403D01*
X992943Y61409D01*
X992946Y61414D01*
X992527Y62442D01*
X992520Y62446D01*
X992522Y62451D01*
X991885Y63360D01*
X991877Y63363D01*
X991877Y63368D01*
X991054Y64112D01*
X991046Y64113D01*
X991045Y64119D01*
X990077Y64661D01*
X990068Y64660D01*
X990066Y64666D01*
X989002Y64979D01*
X988997Y64977D01*
X988993Y64977D01*
X988991Y64981D01*
X987883Y65049D01*
X987877Y65045D01*
X987873Y65049D01*
X986765Y64879D01*
X986759Y64873D01*
X986754Y64876D01*
X985712Y64464D01*
X985708Y64457D01*
X985703Y64459D01*
X984778Y63825D01*
X984776Y63817D01*
X984770Y63818D01*
X984010Y62995D01*
X984009Y62986D01*
X984003Y62986D01*
X983446Y62014D01*
X983447Y62006D01*
X983441Y62004D01*
X983114Y60932D01*
X983117Y60924D01*
X983112Y60921D01*
X983031Y59804D01*
X983032Y59801D01*
X983031Y59800D01*
X983031Y47800D01*
X983036Y47793D01*
X983032Y47789D01*
X983251Y46845D01*
X983257Y46839D01*
X983255Y46834D01*
X983679Y45962D01*
X983686Y45959D01*
X983684Y45953D01*
X984291Y45197D01*
X984299Y45195D01*
X984299Y45189D01*
X985059Y44588D01*
X985068Y44588D01*
X985069Y44582D01*
X985944Y44164D01*
X985952Y44166D01*
X985954Y44161D01*
X986900Y43949D01*
X986907Y43952D01*
X986911Y43947D01*
X987880Y43951D01*
G37*
G36*
X1381580Y43951D02*
X1381580Y43951D01*
X1381581Y43951D01*
X1382649Y43970D01*
X1382656Y43975D01*
X1382660Y43971D01*
X1383697Y44227D01*
X1383702Y44234D01*
X1383708Y44231D01*
X1384662Y44712D01*
X1384666Y44719D01*
X1384671Y44718D01*
X1385495Y45399D01*
X1385496Y45407D01*
X1385502Y45407D01*
X1386153Y46254D01*
X1386153Y46262D01*
X1386159Y46263D01*
X1386606Y47234D01*
X1386604Y47242D01*
X1386609Y47244D01*
X1386828Y48290D01*
X1386825Y48297D01*
X1386829Y48300D01*
X1386829Y60300D01*
X1386826Y60305D01*
X1386829Y60308D01*
X1386649Y61403D01*
X1386643Y61409D01*
X1386646Y61414D01*
X1386227Y62442D01*
X1386220Y62446D01*
X1386222Y62451D01*
X1385585Y63360D01*
X1385577Y63363D01*
X1385577Y63368D01*
X1384754Y64112D01*
X1384746Y64113D01*
X1384745Y64119D01*
X1383777Y64661D01*
X1383768Y64660D01*
X1383766Y64666D01*
X1382702Y64979D01*
X1382697Y64977D01*
X1382693Y64977D01*
X1382691Y64981D01*
X1381583Y65049D01*
X1381577Y65045D01*
X1381573Y65049D01*
X1380465Y64879D01*
X1380459Y64873D01*
X1380454Y64876D01*
X1379412Y64464D01*
X1379408Y64457D01*
X1379403Y64459D01*
X1378478Y63825D01*
X1378476Y63817D01*
X1378470Y63818D01*
X1377710Y62995D01*
X1377709Y62986D01*
X1377703Y62986D01*
X1377146Y62014D01*
X1377147Y62006D01*
X1377141Y62004D01*
X1376814Y60932D01*
X1376817Y60924D01*
X1376812Y60921D01*
X1376731Y59804D01*
X1376732Y59801D01*
X1376731Y59800D01*
X1376731Y47800D01*
X1376736Y47793D01*
X1376732Y47789D01*
X1376951Y46845D01*
X1376957Y46839D01*
X1376955Y46834D01*
X1377379Y45962D01*
X1377386Y45959D01*
X1377384Y45953D01*
X1377991Y45197D01*
X1377999Y45195D01*
X1377999Y45189D01*
X1378759Y44588D01*
X1378768Y44588D01*
X1378769Y44582D01*
X1379644Y44164D01*
X1379652Y44166D01*
X1379654Y44161D01*
X1380600Y43949D01*
X1380607Y43952D01*
X1380611Y43947D01*
X1381580Y43951D01*
G37*
G36*
X987880Y640851D02*
X987880Y640851D01*
X987881Y640851D01*
X988949Y640870D01*
X988956Y640875D01*
X988960Y640871D01*
X989997Y641127D01*
X990002Y641134D01*
X990008Y641131D01*
X990962Y641612D01*
X990966Y641619D01*
X990971Y641618D01*
X991795Y642299D01*
X991796Y642307D01*
X991802Y642307D01*
X992453Y643154D01*
X992453Y643162D01*
X992459Y643163D01*
X992906Y644134D01*
X992904Y644142D01*
X992909Y644144D01*
X993128Y645190D01*
X993125Y645197D01*
X993129Y645200D01*
X993129Y657200D01*
X993126Y657205D01*
X993129Y657208D01*
X992949Y658303D01*
X992943Y658309D01*
X992946Y658314D01*
X992527Y659342D01*
X992520Y659346D01*
X992522Y659351D01*
X991885Y660260D01*
X991877Y660263D01*
X991877Y660268D01*
X991054Y661012D01*
X991046Y661013D01*
X991045Y661019D01*
X990077Y661561D01*
X990068Y661560D01*
X990066Y661566D01*
X989002Y661879D01*
X988997Y661877D01*
X988993Y661877D01*
X988991Y661881D01*
X987883Y661949D01*
X987877Y661945D01*
X987873Y661949D01*
X986765Y661779D01*
X986759Y661773D01*
X986754Y661776D01*
X985712Y661364D01*
X985708Y661357D01*
X985703Y661359D01*
X984778Y660725D01*
X984776Y660717D01*
X984770Y660718D01*
X984010Y659895D01*
X984009Y659886D01*
X984003Y659886D01*
X983446Y658914D01*
X983447Y658906D01*
X983441Y658904D01*
X983114Y657832D01*
X983117Y657824D01*
X983112Y657821D01*
X983031Y656704D01*
X983032Y656701D01*
X983031Y656700D01*
X983031Y644700D01*
X983036Y644693D01*
X983032Y644689D01*
X983251Y643745D01*
X983257Y643739D01*
X983255Y643734D01*
X983679Y642862D01*
X983686Y642859D01*
X983684Y642853D01*
X984291Y642097D01*
X984299Y642095D01*
X984299Y642089D01*
X985059Y641488D01*
X985068Y641488D01*
X985069Y641482D01*
X985944Y641064D01*
X985952Y641066D01*
X985954Y641061D01*
X986900Y640849D01*
X986907Y640852D01*
X986911Y640847D01*
X987880Y640851D01*
G37*
G36*
X614500Y640851D02*
X614500Y640851D01*
X614501Y640851D01*
X615569Y640870D01*
X615576Y640875D01*
X615580Y640871D01*
X616617Y641127D01*
X616622Y641134D01*
X616628Y641131D01*
X617582Y641612D01*
X617586Y641619D01*
X617591Y641618D01*
X618415Y642299D01*
X618416Y642307D01*
X618422Y642307D01*
X619073Y643154D01*
X619073Y643162D01*
X619079Y643163D01*
X619526Y644134D01*
X619524Y644142D01*
X619529Y644144D01*
X619748Y645190D01*
X619745Y645197D01*
X619749Y645200D01*
X619749Y657200D01*
X619746Y657205D01*
X619749Y657208D01*
X619569Y658303D01*
X619563Y658309D01*
X619566Y658314D01*
X619147Y659342D01*
X619140Y659346D01*
X619142Y659351D01*
X618505Y660260D01*
X618497Y660263D01*
X618497Y660268D01*
X617674Y661012D01*
X617666Y661013D01*
X617665Y661019D01*
X616697Y661561D01*
X616688Y661560D01*
X616686Y661566D01*
X615622Y661879D01*
X615617Y661877D01*
X615613Y661877D01*
X615611Y661881D01*
X614503Y661949D01*
X614497Y661945D01*
X614493Y661949D01*
X613385Y661779D01*
X613379Y661773D01*
X613374Y661776D01*
X612332Y661364D01*
X612328Y661357D01*
X612323Y661359D01*
X611398Y660725D01*
X611396Y660717D01*
X611390Y660718D01*
X610630Y659895D01*
X610629Y659886D01*
X610623Y659886D01*
X610066Y658914D01*
X610067Y658906D01*
X610061Y658904D01*
X609734Y657832D01*
X609737Y657824D01*
X609732Y657821D01*
X609651Y656704D01*
X609652Y656701D01*
X609651Y656700D01*
X609651Y644700D01*
X609656Y644693D01*
X609652Y644689D01*
X609871Y643745D01*
X609877Y643739D01*
X609875Y643734D01*
X610299Y642862D01*
X610306Y642859D01*
X610304Y642853D01*
X610911Y642097D01*
X610919Y642095D01*
X610919Y642089D01*
X611679Y641488D01*
X611688Y641488D01*
X611689Y641482D01*
X612564Y641064D01*
X612572Y641066D01*
X612574Y641061D01*
X613520Y640849D01*
X613527Y640852D01*
X613531Y640847D01*
X614500Y640851D01*
G37*
G36*
X1381580Y640851D02*
X1381580Y640851D01*
X1381581Y640851D01*
X1382649Y640870D01*
X1382656Y640875D01*
X1382660Y640871D01*
X1383697Y641127D01*
X1383702Y641134D01*
X1383708Y641131D01*
X1384662Y641612D01*
X1384666Y641619D01*
X1384671Y641618D01*
X1385495Y642299D01*
X1385496Y642307D01*
X1385502Y642307D01*
X1386153Y643154D01*
X1386153Y643162D01*
X1386159Y643163D01*
X1386606Y644134D01*
X1386604Y644142D01*
X1386609Y644144D01*
X1386828Y645190D01*
X1386825Y645197D01*
X1386829Y645200D01*
X1386829Y657200D01*
X1386826Y657205D01*
X1386829Y657208D01*
X1386649Y658303D01*
X1386643Y658309D01*
X1386646Y658314D01*
X1386227Y659342D01*
X1386220Y659346D01*
X1386222Y659351D01*
X1385585Y660260D01*
X1385577Y660263D01*
X1385577Y660268D01*
X1384754Y661012D01*
X1384746Y661013D01*
X1384745Y661019D01*
X1383777Y661561D01*
X1383768Y661560D01*
X1383766Y661566D01*
X1382702Y661879D01*
X1382697Y661877D01*
X1382693Y661877D01*
X1382691Y661881D01*
X1381583Y661949D01*
X1381577Y661945D01*
X1381573Y661949D01*
X1380465Y661779D01*
X1380459Y661773D01*
X1380454Y661776D01*
X1379412Y661364D01*
X1379408Y661357D01*
X1379403Y661359D01*
X1378478Y660725D01*
X1378476Y660717D01*
X1378470Y660718D01*
X1377710Y659895D01*
X1377709Y659886D01*
X1377703Y659886D01*
X1377146Y658914D01*
X1377147Y658906D01*
X1377141Y658904D01*
X1376814Y657832D01*
X1376817Y657824D01*
X1376812Y657821D01*
X1376731Y656704D01*
X1376732Y656701D01*
X1376731Y656700D01*
X1376731Y644700D01*
X1376736Y644693D01*
X1376732Y644689D01*
X1376951Y643745D01*
X1376957Y643739D01*
X1376955Y643734D01*
X1377379Y642862D01*
X1377386Y642859D01*
X1377384Y642853D01*
X1377991Y642097D01*
X1377999Y642095D01*
X1377999Y642089D01*
X1378759Y641488D01*
X1378768Y641488D01*
X1378769Y641482D01*
X1379644Y641064D01*
X1379652Y641066D01*
X1379654Y641061D01*
X1380600Y640849D01*
X1380607Y640852D01*
X1380611Y640847D01*
X1381580Y640851D01*
G37*
G36*
X220800Y640851D02*
X220800Y640851D01*
X220801Y640851D01*
X221869Y640870D01*
X221876Y640875D01*
X221880Y640871D01*
X222917Y641127D01*
X222922Y641134D01*
X222928Y641131D01*
X223882Y641612D01*
X223886Y641619D01*
X223891Y641618D01*
X224715Y642299D01*
X224716Y642307D01*
X224722Y642307D01*
X225373Y643154D01*
X225373Y643162D01*
X225379Y643163D01*
X225826Y644134D01*
X225824Y644142D01*
X225829Y644144D01*
X226048Y645190D01*
X226045Y645197D01*
X226049Y645200D01*
X226049Y657200D01*
X226046Y657205D01*
X226049Y657208D01*
X225869Y658303D01*
X225863Y658309D01*
X225866Y658314D01*
X225447Y659342D01*
X225440Y659346D01*
X225442Y659351D01*
X224805Y660260D01*
X224797Y660263D01*
X224797Y660268D01*
X223974Y661012D01*
X223966Y661013D01*
X223965Y661019D01*
X222997Y661561D01*
X222988Y661560D01*
X222986Y661566D01*
X221922Y661879D01*
X221917Y661877D01*
X221913Y661877D01*
X221911Y661881D01*
X220803Y661949D01*
X220797Y661945D01*
X220793Y661949D01*
X219685Y661779D01*
X219679Y661773D01*
X219674Y661776D01*
X218632Y661364D01*
X218628Y661357D01*
X218623Y661359D01*
X217698Y660725D01*
X217696Y660717D01*
X217690Y660718D01*
X216930Y659895D01*
X216929Y659886D01*
X216923Y659886D01*
X216366Y658914D01*
X216367Y658906D01*
X216361Y658904D01*
X216034Y657832D01*
X216037Y657824D01*
X216032Y657821D01*
X215951Y656704D01*
X215952Y656701D01*
X215951Y656700D01*
X215951Y644700D01*
X215956Y644693D01*
X215952Y644689D01*
X216171Y643745D01*
X216177Y643739D01*
X216175Y643734D01*
X216599Y642862D01*
X216606Y642859D01*
X216604Y642853D01*
X217211Y642097D01*
X217219Y642095D01*
X217219Y642089D01*
X217979Y641488D01*
X217988Y641488D01*
X217989Y641482D01*
X218864Y641064D01*
X218872Y641066D01*
X218874Y641061D01*
X219820Y640849D01*
X219827Y640852D01*
X219831Y640847D01*
X220800Y640851D01*
G37*
G36*
X424000Y640851D02*
X424000Y640851D01*
X424001Y640851D01*
X425069Y640870D01*
X425076Y640875D01*
X425080Y640871D01*
X426117Y641127D01*
X426122Y641134D01*
X426128Y641131D01*
X427082Y641612D01*
X427086Y641619D01*
X427091Y641618D01*
X427915Y642299D01*
X427916Y642307D01*
X427922Y642307D01*
X428573Y643154D01*
X428573Y643162D01*
X428579Y643163D01*
X429026Y644134D01*
X429024Y644142D01*
X429029Y644144D01*
X429248Y645190D01*
X429245Y645197D01*
X429249Y645200D01*
X429249Y657200D01*
X429246Y657205D01*
X429249Y657208D01*
X429069Y658303D01*
X429063Y658309D01*
X429066Y658314D01*
X428647Y659342D01*
X428640Y659346D01*
X428642Y659351D01*
X428005Y660260D01*
X427997Y660263D01*
X427997Y660268D01*
X427174Y661012D01*
X427166Y661013D01*
X427165Y661019D01*
X426197Y661561D01*
X426188Y661560D01*
X426186Y661566D01*
X425122Y661879D01*
X425117Y661877D01*
X425113Y661877D01*
X425111Y661881D01*
X424003Y661949D01*
X423997Y661945D01*
X423993Y661949D01*
X422885Y661779D01*
X422879Y661773D01*
X422874Y661776D01*
X421832Y661364D01*
X421828Y661357D01*
X421823Y661359D01*
X420898Y660725D01*
X420896Y660717D01*
X420890Y660718D01*
X420130Y659895D01*
X420129Y659886D01*
X420123Y659886D01*
X419566Y658914D01*
X419567Y658906D01*
X419561Y658904D01*
X419234Y657832D01*
X419237Y657824D01*
X419232Y657821D01*
X419151Y656704D01*
X419152Y656701D01*
X419151Y656700D01*
X419151Y644700D01*
X419156Y644693D01*
X419152Y644689D01*
X419371Y643745D01*
X419377Y643739D01*
X419375Y643734D01*
X419799Y642862D01*
X419806Y642859D01*
X419804Y642853D01*
X420411Y642097D01*
X420419Y642095D01*
X420419Y642089D01*
X421179Y641488D01*
X421188Y641488D01*
X421189Y641482D01*
X422064Y641064D01*
X422072Y641066D01*
X422074Y641061D01*
X423020Y640849D01*
X423027Y640852D01*
X423031Y640847D01*
X424000Y640851D01*
G37*
G36*
X1296161Y640860D02*
X1296161Y640860D01*
X1296168Y640865D01*
X1296172Y640861D01*
X1297224Y641111D01*
X1297229Y641117D01*
X1297234Y641114D01*
X1298204Y641591D01*
X1298207Y641599D01*
X1298213Y641597D01*
X1299052Y642278D01*
X1299054Y642286D01*
X1299060Y642286D01*
X1299726Y643137D01*
X1299727Y643145D01*
X1299732Y643146D01*
X1300193Y644123D01*
X1300191Y644131D01*
X1300197Y644134D01*
X1300428Y645189D01*
X1300425Y645197D01*
X1300429Y645200D01*
X1300429Y657200D01*
X1300425Y657205D01*
X1300429Y657208D01*
X1300236Y658314D01*
X1300230Y658319D01*
X1300233Y658324D01*
X1299800Y659359D01*
X1299793Y659363D01*
X1299795Y659368D01*
X1299142Y660281D01*
X1299134Y660283D01*
X1299135Y660289D01*
X1298296Y661033D01*
X1298287Y661034D01*
X1298287Y661039D01*
X1297303Y661578D01*
X1297295Y661577D01*
X1297293Y661582D01*
X1296214Y661889D01*
X1296206Y661886D01*
X1296203Y661891D01*
X1295083Y661949D01*
X1295078Y661946D01*
X1295075Y661949D01*
X1294029Y661831D01*
X1294023Y661825D01*
X1294018Y661829D01*
X1293024Y661481D01*
X1293020Y661474D01*
X1293015Y661476D01*
X1292123Y660916D01*
X1292121Y660909D01*
X1292115Y660909D01*
X1291371Y660165D01*
X1291369Y660157D01*
X1291364Y660157D01*
X1290804Y659265D01*
X1290804Y659257D01*
X1290799Y659256D01*
X1290451Y658262D01*
X1290454Y658254D01*
X1290449Y658251D01*
X1290331Y657206D01*
X1290333Y657202D01*
X1290331Y657200D01*
X1290331Y645200D01*
X1290334Y645195D01*
X1290331Y645192D01*
X1290489Y644196D01*
X1290495Y644190D01*
X1290492Y644185D01*
X1290867Y643249D01*
X1290874Y643245D01*
X1290872Y643239D01*
X1291446Y642410D01*
X1291454Y642407D01*
X1291453Y642402D01*
X1292197Y641721D01*
X1292206Y641720D01*
X1292206Y641714D01*
X1293083Y641216D01*
X1293092Y641217D01*
X1293094Y641212D01*
X1294059Y640921D01*
X1294067Y640924D01*
X1294070Y640919D01*
X1295077Y640851D01*
X1295079Y640852D01*
X1295080Y640851D01*
X1296161Y640860D01*
G37*
G36*
X529081Y640860D02*
X529081Y640860D01*
X529088Y640865D01*
X529092Y640861D01*
X530144Y641111D01*
X530149Y641117D01*
X530154Y641114D01*
X531124Y641591D01*
X531127Y641599D01*
X531133Y641597D01*
X531972Y642278D01*
X531974Y642286D01*
X531980Y642286D01*
X532646Y643137D01*
X532647Y643145D01*
X532652Y643146D01*
X533113Y644123D01*
X533111Y644131D01*
X533117Y644134D01*
X533348Y645189D01*
X533345Y645197D01*
X533349Y645200D01*
X533349Y657200D01*
X533345Y657205D01*
X533349Y657208D01*
X533156Y658314D01*
X533150Y658319D01*
X533153Y658324D01*
X532720Y659359D01*
X532713Y659363D01*
X532715Y659368D01*
X532062Y660281D01*
X532054Y660283D01*
X532055Y660289D01*
X531216Y661033D01*
X531207Y661034D01*
X531207Y661039D01*
X530223Y661578D01*
X530215Y661577D01*
X530213Y661582D01*
X529134Y661889D01*
X529126Y661886D01*
X529123Y661891D01*
X528003Y661949D01*
X527998Y661946D01*
X527995Y661949D01*
X526949Y661831D01*
X526943Y661825D01*
X526938Y661829D01*
X525944Y661481D01*
X525940Y661474D01*
X525935Y661476D01*
X525043Y660916D01*
X525041Y660909D01*
X525035Y660909D01*
X524291Y660165D01*
X524289Y660157D01*
X524284Y660157D01*
X523724Y659265D01*
X523724Y659257D01*
X523719Y659256D01*
X523371Y658262D01*
X523374Y658254D01*
X523369Y658251D01*
X523251Y657206D01*
X523253Y657202D01*
X523251Y657200D01*
X523251Y645200D01*
X523254Y645195D01*
X523251Y645192D01*
X523409Y644196D01*
X523415Y644190D01*
X523412Y644185D01*
X523787Y643249D01*
X523794Y643245D01*
X523792Y643239D01*
X524366Y642410D01*
X524374Y642407D01*
X524373Y642402D01*
X525117Y641721D01*
X525126Y641720D01*
X525126Y641714D01*
X526003Y641216D01*
X526012Y641217D01*
X526014Y641212D01*
X526979Y640921D01*
X526987Y640924D01*
X526990Y640919D01*
X527997Y640851D01*
X527999Y640852D01*
X528000Y640851D01*
X529081Y640860D01*
G37*
G36*
X1105661Y640860D02*
X1105661Y640860D01*
X1105668Y640865D01*
X1105672Y640861D01*
X1106724Y641111D01*
X1106729Y641117D01*
X1106734Y641114D01*
X1107704Y641591D01*
X1107707Y641599D01*
X1107713Y641597D01*
X1108552Y642278D01*
X1108554Y642286D01*
X1108560Y642286D01*
X1109226Y643137D01*
X1109227Y643145D01*
X1109232Y643146D01*
X1109693Y644123D01*
X1109691Y644131D01*
X1109697Y644134D01*
X1109928Y645189D01*
X1109925Y645197D01*
X1109929Y645200D01*
X1109929Y657200D01*
X1109925Y657205D01*
X1109929Y657208D01*
X1109736Y658314D01*
X1109730Y658319D01*
X1109733Y658324D01*
X1109300Y659359D01*
X1109293Y659363D01*
X1109295Y659368D01*
X1108642Y660281D01*
X1108634Y660283D01*
X1108635Y660289D01*
X1107796Y661033D01*
X1107787Y661034D01*
X1107787Y661039D01*
X1106803Y661578D01*
X1106795Y661577D01*
X1106793Y661582D01*
X1105714Y661889D01*
X1105706Y661886D01*
X1105703Y661891D01*
X1104583Y661949D01*
X1104578Y661946D01*
X1104575Y661949D01*
X1103529Y661831D01*
X1103523Y661825D01*
X1103518Y661829D01*
X1102524Y661481D01*
X1102520Y661474D01*
X1102515Y661476D01*
X1101623Y660916D01*
X1101621Y660909D01*
X1101615Y660909D01*
X1100871Y660165D01*
X1100869Y660157D01*
X1100864Y660157D01*
X1100304Y659265D01*
X1100304Y659257D01*
X1100299Y659256D01*
X1099951Y658262D01*
X1099954Y658254D01*
X1099949Y658251D01*
X1099831Y657206D01*
X1099833Y657202D01*
X1099831Y657200D01*
X1099831Y645200D01*
X1099834Y645195D01*
X1099831Y645192D01*
X1099989Y644196D01*
X1099995Y644190D01*
X1099992Y644185D01*
X1100367Y643249D01*
X1100374Y643245D01*
X1100372Y643239D01*
X1100946Y642410D01*
X1100954Y642407D01*
X1100953Y642402D01*
X1101697Y641721D01*
X1101706Y641720D01*
X1101706Y641714D01*
X1102583Y641216D01*
X1102592Y641217D01*
X1102594Y641212D01*
X1103559Y640921D01*
X1103567Y640924D01*
X1103570Y640919D01*
X1104577Y640851D01*
X1104579Y640852D01*
X1104580Y640851D01*
X1105661Y640860D01*
G37*
G36*
X135381Y640860D02*
X135381Y640860D01*
X135388Y640865D01*
X135392Y640861D01*
X136444Y641111D01*
X136449Y641117D01*
X136454Y641114D01*
X137424Y641591D01*
X137427Y641599D01*
X137433Y641597D01*
X138272Y642278D01*
X138274Y642286D01*
X138280Y642286D01*
X138946Y643137D01*
X138947Y643145D01*
X138952Y643146D01*
X139413Y644123D01*
X139411Y644131D01*
X139417Y644134D01*
X139648Y645189D01*
X139645Y645197D01*
X139649Y645200D01*
X139649Y657200D01*
X139645Y657205D01*
X139649Y657208D01*
X139456Y658314D01*
X139450Y658319D01*
X139453Y658324D01*
X139020Y659359D01*
X139013Y659363D01*
X139015Y659368D01*
X138362Y660281D01*
X138354Y660283D01*
X138355Y660289D01*
X137516Y661033D01*
X137507Y661034D01*
X137507Y661039D01*
X136523Y661578D01*
X136515Y661577D01*
X136513Y661582D01*
X135434Y661889D01*
X135426Y661886D01*
X135423Y661891D01*
X134303Y661949D01*
X134298Y661946D01*
X134295Y661949D01*
X133249Y661831D01*
X133243Y661825D01*
X133238Y661829D01*
X132244Y661481D01*
X132240Y661474D01*
X132235Y661476D01*
X131343Y660916D01*
X131341Y660909D01*
X131335Y660909D01*
X130591Y660165D01*
X130589Y660157D01*
X130584Y660157D01*
X130024Y659265D01*
X130024Y659257D01*
X130019Y659256D01*
X129671Y658262D01*
X129674Y658254D01*
X129669Y658251D01*
X129551Y657206D01*
X129553Y657202D01*
X129551Y657200D01*
X129551Y645200D01*
X129554Y645195D01*
X129551Y645192D01*
X129709Y644196D01*
X129715Y644190D01*
X129712Y644185D01*
X130087Y643249D01*
X130094Y643245D01*
X130092Y643239D01*
X130666Y642410D01*
X130674Y642407D01*
X130673Y642402D01*
X131417Y641721D01*
X131426Y641720D01*
X131426Y641714D01*
X132303Y641216D01*
X132312Y641217D01*
X132314Y641212D01*
X133279Y640921D01*
X133287Y640924D01*
X133290Y640919D01*
X134297Y640851D01*
X134299Y640852D01*
X134300Y640851D01*
X135381Y640860D01*
G37*
G36*
X338581Y640860D02*
X338581Y640860D01*
X338588Y640865D01*
X338592Y640861D01*
X339644Y641111D01*
X339649Y641117D01*
X339654Y641114D01*
X340624Y641591D01*
X340627Y641599D01*
X340633Y641597D01*
X341472Y642278D01*
X341474Y642286D01*
X341480Y642286D01*
X342146Y643137D01*
X342147Y643145D01*
X342152Y643146D01*
X342613Y644123D01*
X342611Y644131D01*
X342617Y644134D01*
X342848Y645189D01*
X342845Y645197D01*
X342849Y645200D01*
X342849Y657200D01*
X342845Y657205D01*
X342849Y657208D01*
X342656Y658314D01*
X342650Y658319D01*
X342653Y658324D01*
X342220Y659359D01*
X342213Y659363D01*
X342215Y659368D01*
X341562Y660281D01*
X341554Y660283D01*
X341555Y660289D01*
X340716Y661033D01*
X340707Y661034D01*
X340707Y661039D01*
X339723Y661578D01*
X339715Y661577D01*
X339713Y661582D01*
X338634Y661889D01*
X338626Y661886D01*
X338623Y661891D01*
X337503Y661949D01*
X337498Y661946D01*
X337495Y661949D01*
X336449Y661831D01*
X336443Y661825D01*
X336438Y661829D01*
X335444Y661481D01*
X335440Y661474D01*
X335435Y661476D01*
X334543Y660916D01*
X334541Y660909D01*
X334535Y660909D01*
X333791Y660165D01*
X333789Y660157D01*
X333784Y660157D01*
X333224Y659265D01*
X333224Y659257D01*
X333219Y659256D01*
X332871Y658262D01*
X332874Y658254D01*
X332869Y658251D01*
X332751Y657206D01*
X332753Y657202D01*
X332751Y657200D01*
X332751Y645200D01*
X332754Y645195D01*
X332751Y645192D01*
X332909Y644196D01*
X332915Y644190D01*
X332912Y644185D01*
X333287Y643249D01*
X333294Y643245D01*
X333292Y643239D01*
X333866Y642410D01*
X333874Y642407D01*
X333873Y642402D01*
X334617Y641721D01*
X334626Y641720D01*
X334626Y641714D01*
X335503Y641216D01*
X335512Y641217D01*
X335514Y641212D01*
X336479Y640921D01*
X336487Y640924D01*
X336490Y640919D01*
X337497Y640851D01*
X337499Y640852D01*
X337500Y640851D01*
X338581Y640860D01*
G37*
G36*
X902461Y640860D02*
X902461Y640860D01*
X902468Y640865D01*
X902472Y640861D01*
X903524Y641111D01*
X903529Y641117D01*
X903534Y641114D01*
X904504Y641591D01*
X904507Y641599D01*
X904513Y641597D01*
X905352Y642278D01*
X905354Y642286D01*
X905360Y642286D01*
X906026Y643137D01*
X906027Y643145D01*
X906032Y643146D01*
X906493Y644123D01*
X906491Y644131D01*
X906497Y644134D01*
X906728Y645189D01*
X906725Y645197D01*
X906729Y645200D01*
X906729Y657200D01*
X906725Y657205D01*
X906729Y657208D01*
X906536Y658314D01*
X906530Y658319D01*
X906533Y658324D01*
X906100Y659359D01*
X906093Y659363D01*
X906095Y659368D01*
X905442Y660281D01*
X905434Y660283D01*
X905435Y660289D01*
X904596Y661033D01*
X904587Y661034D01*
X904587Y661039D01*
X903603Y661578D01*
X903595Y661577D01*
X903593Y661582D01*
X902514Y661889D01*
X902506Y661886D01*
X902503Y661891D01*
X901383Y661949D01*
X901378Y661946D01*
X901375Y661949D01*
X900329Y661831D01*
X900323Y661825D01*
X900318Y661829D01*
X899324Y661481D01*
X899320Y661474D01*
X899315Y661476D01*
X898423Y660916D01*
X898421Y660909D01*
X898415Y660909D01*
X897671Y660165D01*
X897669Y660157D01*
X897664Y660157D01*
X897104Y659265D01*
X897104Y659257D01*
X897099Y659256D01*
X896751Y658262D01*
X896754Y658254D01*
X896749Y658251D01*
X896631Y657206D01*
X896633Y657202D01*
X896631Y657200D01*
X896631Y645200D01*
X896634Y645195D01*
X896631Y645192D01*
X896789Y644196D01*
X896795Y644190D01*
X896792Y644185D01*
X897167Y643249D01*
X897174Y643245D01*
X897172Y643239D01*
X897746Y642410D01*
X897754Y642407D01*
X897753Y642402D01*
X898497Y641721D01*
X898506Y641720D01*
X898506Y641714D01*
X899383Y641216D01*
X899392Y641217D01*
X899394Y641212D01*
X900359Y640921D01*
X900367Y640924D01*
X900370Y640919D01*
X901377Y640851D01*
X901379Y640852D01*
X901380Y640851D01*
X902461Y640860D01*
G37*
G36*
X338581Y43960D02*
X338581Y43960D01*
X338588Y43965D01*
X338592Y43961D01*
X339644Y44211D01*
X339649Y44217D01*
X339654Y44214D01*
X340624Y44691D01*
X340627Y44699D01*
X340633Y44697D01*
X341472Y45378D01*
X341474Y45386D01*
X341480Y45386D01*
X342146Y46237D01*
X342147Y46245D01*
X342152Y46246D01*
X342613Y47223D01*
X342611Y47231D01*
X342617Y47234D01*
X342848Y48289D01*
X342845Y48297D01*
X342849Y48300D01*
X342849Y60300D01*
X342845Y60305D01*
X342849Y60308D01*
X342656Y61414D01*
X342650Y61419D01*
X342653Y61424D01*
X342220Y62459D01*
X342213Y62463D01*
X342215Y62468D01*
X341562Y63381D01*
X341554Y63383D01*
X341555Y63389D01*
X340716Y64133D01*
X340707Y64134D01*
X340707Y64139D01*
X339723Y64678D01*
X339715Y64677D01*
X339713Y64682D01*
X338634Y64989D01*
X338626Y64986D01*
X338623Y64991D01*
X337503Y65049D01*
X337498Y65046D01*
X337495Y65049D01*
X336449Y64931D01*
X336443Y64925D01*
X336438Y64929D01*
X335444Y64581D01*
X335440Y64574D01*
X335435Y64576D01*
X334543Y64016D01*
X334541Y64009D01*
X334535Y64009D01*
X333791Y63265D01*
X333789Y63257D01*
X333784Y63257D01*
X333224Y62365D01*
X333224Y62357D01*
X333219Y62356D01*
X332871Y61362D01*
X332874Y61354D01*
X332869Y61351D01*
X332751Y60306D01*
X332753Y60302D01*
X332751Y60300D01*
X332751Y48300D01*
X332754Y48295D01*
X332751Y48292D01*
X332909Y47296D01*
X332915Y47290D01*
X332912Y47285D01*
X333287Y46349D01*
X333294Y46345D01*
X333292Y46339D01*
X333866Y45510D01*
X333874Y45507D01*
X333873Y45502D01*
X334617Y44821D01*
X334626Y44820D01*
X334626Y44814D01*
X335503Y44316D01*
X335512Y44317D01*
X335514Y44312D01*
X336479Y44021D01*
X336487Y44024D01*
X336490Y44019D01*
X337497Y43951D01*
X337499Y43952D01*
X337500Y43951D01*
X338581Y43960D01*
G37*
G36*
X135381Y43960D02*
X135381Y43960D01*
X135388Y43965D01*
X135392Y43961D01*
X136444Y44211D01*
X136449Y44217D01*
X136454Y44214D01*
X137424Y44691D01*
X137427Y44699D01*
X137433Y44697D01*
X138272Y45378D01*
X138274Y45386D01*
X138280Y45386D01*
X138946Y46237D01*
X138947Y46245D01*
X138952Y46246D01*
X139413Y47223D01*
X139411Y47231D01*
X139417Y47234D01*
X139648Y48289D01*
X139645Y48297D01*
X139649Y48300D01*
X139649Y60300D01*
X139645Y60305D01*
X139649Y60308D01*
X139456Y61414D01*
X139450Y61419D01*
X139453Y61424D01*
X139020Y62459D01*
X139013Y62463D01*
X139015Y62468D01*
X138362Y63381D01*
X138354Y63383D01*
X138355Y63389D01*
X137516Y64133D01*
X137507Y64134D01*
X137507Y64139D01*
X136523Y64678D01*
X136515Y64677D01*
X136513Y64682D01*
X135434Y64989D01*
X135426Y64986D01*
X135423Y64991D01*
X134303Y65049D01*
X134298Y65046D01*
X134295Y65049D01*
X133249Y64931D01*
X133243Y64925D01*
X133238Y64929D01*
X132244Y64581D01*
X132240Y64574D01*
X132235Y64576D01*
X131343Y64016D01*
X131341Y64009D01*
X131335Y64009D01*
X130591Y63265D01*
X130589Y63257D01*
X130584Y63257D01*
X130024Y62365D01*
X130024Y62357D01*
X130019Y62356D01*
X129671Y61362D01*
X129674Y61354D01*
X129669Y61351D01*
X129551Y60306D01*
X129553Y60302D01*
X129551Y60300D01*
X129551Y48300D01*
X129554Y48295D01*
X129551Y48292D01*
X129709Y47296D01*
X129715Y47290D01*
X129712Y47285D01*
X130087Y46349D01*
X130094Y46345D01*
X130092Y46339D01*
X130666Y45510D01*
X130674Y45507D01*
X130673Y45502D01*
X131417Y44821D01*
X131426Y44820D01*
X131426Y44814D01*
X132303Y44316D01*
X132312Y44317D01*
X132314Y44312D01*
X133279Y44021D01*
X133287Y44024D01*
X133290Y44019D01*
X134297Y43951D01*
X134299Y43952D01*
X134300Y43951D01*
X135381Y43960D01*
G37*
G36*
X1296161Y43960D02*
X1296161Y43960D01*
X1296168Y43965D01*
X1296172Y43961D01*
X1297224Y44211D01*
X1297229Y44217D01*
X1297234Y44214D01*
X1298204Y44691D01*
X1298207Y44699D01*
X1298213Y44697D01*
X1299052Y45378D01*
X1299054Y45386D01*
X1299060Y45386D01*
X1299726Y46237D01*
X1299727Y46245D01*
X1299732Y46246D01*
X1300193Y47223D01*
X1300191Y47231D01*
X1300197Y47234D01*
X1300428Y48289D01*
X1300425Y48297D01*
X1300429Y48300D01*
X1300429Y60300D01*
X1300425Y60305D01*
X1300429Y60308D01*
X1300236Y61414D01*
X1300230Y61419D01*
X1300233Y61424D01*
X1299800Y62459D01*
X1299793Y62463D01*
X1299795Y62468D01*
X1299142Y63381D01*
X1299134Y63383D01*
X1299135Y63389D01*
X1298296Y64133D01*
X1298287Y64134D01*
X1298287Y64139D01*
X1297303Y64678D01*
X1297295Y64677D01*
X1297293Y64682D01*
X1296214Y64989D01*
X1296206Y64986D01*
X1296203Y64991D01*
X1295083Y65049D01*
X1295078Y65046D01*
X1295075Y65049D01*
X1294029Y64931D01*
X1294023Y64925D01*
X1294018Y64929D01*
X1293024Y64581D01*
X1293020Y64574D01*
X1293015Y64576D01*
X1292123Y64016D01*
X1292121Y64009D01*
X1292115Y64009D01*
X1291371Y63265D01*
X1291369Y63257D01*
X1291364Y63257D01*
X1290804Y62365D01*
X1290804Y62357D01*
X1290799Y62356D01*
X1290451Y61362D01*
X1290454Y61354D01*
X1290449Y61351D01*
X1290331Y60306D01*
X1290333Y60302D01*
X1290331Y60300D01*
X1290331Y48300D01*
X1290334Y48295D01*
X1290331Y48292D01*
X1290489Y47296D01*
X1290495Y47290D01*
X1290492Y47285D01*
X1290867Y46349D01*
X1290874Y46345D01*
X1290872Y46339D01*
X1291446Y45510D01*
X1291454Y45507D01*
X1291453Y45502D01*
X1292197Y44821D01*
X1292206Y44820D01*
X1292206Y44814D01*
X1293083Y44316D01*
X1293092Y44317D01*
X1293094Y44312D01*
X1294059Y44021D01*
X1294067Y44024D01*
X1294070Y44019D01*
X1295077Y43951D01*
X1295079Y43952D01*
X1295080Y43951D01*
X1296161Y43960D01*
G37*
G36*
X902461Y43960D02*
X902461Y43960D01*
X902468Y43965D01*
X902472Y43961D01*
X903524Y44211D01*
X903529Y44217D01*
X903534Y44214D01*
X904504Y44691D01*
X904507Y44699D01*
X904513Y44697D01*
X905352Y45378D01*
X905354Y45386D01*
X905360Y45386D01*
X906026Y46237D01*
X906027Y46245D01*
X906032Y46246D01*
X906493Y47223D01*
X906491Y47231D01*
X906497Y47234D01*
X906728Y48289D01*
X906725Y48297D01*
X906729Y48300D01*
X906729Y60300D01*
X906725Y60305D01*
X906729Y60308D01*
X906536Y61414D01*
X906530Y61419D01*
X906533Y61424D01*
X906100Y62459D01*
X906093Y62463D01*
X906095Y62468D01*
X905442Y63381D01*
X905434Y63383D01*
X905435Y63389D01*
X904596Y64133D01*
X904587Y64134D01*
X904587Y64139D01*
X903603Y64678D01*
X903595Y64677D01*
X903593Y64682D01*
X902514Y64989D01*
X902506Y64986D01*
X902503Y64991D01*
X901383Y65049D01*
X901378Y65046D01*
X901375Y65049D01*
X900329Y64931D01*
X900323Y64925D01*
X900318Y64929D01*
X899324Y64581D01*
X899320Y64574D01*
X899315Y64576D01*
X898423Y64016D01*
X898421Y64009D01*
X898415Y64009D01*
X897671Y63265D01*
X897669Y63257D01*
X897664Y63257D01*
X897104Y62365D01*
X897104Y62357D01*
X897099Y62356D01*
X896751Y61362D01*
X896754Y61354D01*
X896749Y61351D01*
X896631Y60306D01*
X896633Y60302D01*
X896631Y60300D01*
X896631Y48300D01*
X896634Y48295D01*
X896631Y48292D01*
X896789Y47296D01*
X896795Y47290D01*
X896792Y47285D01*
X897167Y46349D01*
X897174Y46345D01*
X897172Y46339D01*
X897746Y45510D01*
X897754Y45507D01*
X897753Y45502D01*
X898497Y44821D01*
X898506Y44820D01*
X898506Y44814D01*
X899383Y44316D01*
X899392Y44317D01*
X899394Y44312D01*
X900359Y44021D01*
X900367Y44024D01*
X900370Y44019D01*
X901377Y43951D01*
X901379Y43952D01*
X901380Y43951D01*
X902461Y43960D01*
G37*
G36*
X1105661Y43960D02*
X1105661Y43960D01*
X1105668Y43965D01*
X1105672Y43961D01*
X1106724Y44211D01*
X1106729Y44217D01*
X1106734Y44214D01*
X1107704Y44691D01*
X1107707Y44699D01*
X1107713Y44697D01*
X1108552Y45378D01*
X1108554Y45386D01*
X1108560Y45386D01*
X1109226Y46237D01*
X1109227Y46245D01*
X1109232Y46246D01*
X1109693Y47223D01*
X1109691Y47231D01*
X1109697Y47234D01*
X1109928Y48289D01*
X1109925Y48297D01*
X1109929Y48300D01*
X1109929Y60300D01*
X1109925Y60305D01*
X1109929Y60308D01*
X1109736Y61414D01*
X1109730Y61419D01*
X1109733Y61424D01*
X1109300Y62459D01*
X1109293Y62463D01*
X1109295Y62468D01*
X1108642Y63381D01*
X1108634Y63383D01*
X1108635Y63389D01*
X1107796Y64133D01*
X1107787Y64134D01*
X1107787Y64139D01*
X1106803Y64678D01*
X1106795Y64677D01*
X1106793Y64682D01*
X1105714Y64989D01*
X1105706Y64986D01*
X1105703Y64991D01*
X1104583Y65049D01*
X1104578Y65046D01*
X1104575Y65049D01*
X1103529Y64931D01*
X1103523Y64925D01*
X1103518Y64929D01*
X1102524Y64581D01*
X1102520Y64574D01*
X1102515Y64576D01*
X1101623Y64016D01*
X1101621Y64009D01*
X1101615Y64009D01*
X1100871Y63265D01*
X1100869Y63257D01*
X1100864Y63257D01*
X1100304Y62365D01*
X1100304Y62357D01*
X1100299Y62356D01*
X1099951Y61362D01*
X1099954Y61354D01*
X1099949Y61351D01*
X1099831Y60306D01*
X1099833Y60302D01*
X1099831Y60300D01*
X1099831Y48300D01*
X1099834Y48295D01*
X1099831Y48292D01*
X1099989Y47296D01*
X1099995Y47290D01*
X1099992Y47285D01*
X1100367Y46349D01*
X1100374Y46345D01*
X1100372Y46339D01*
X1100946Y45510D01*
X1100954Y45507D01*
X1100953Y45502D01*
X1101697Y44821D01*
X1101706Y44820D01*
X1101706Y44814D01*
X1102583Y44316D01*
X1102592Y44317D01*
X1102594Y44312D01*
X1103559Y44021D01*
X1103567Y44024D01*
X1103570Y44019D01*
X1104577Y43951D01*
X1104579Y43952D01*
X1104580Y43951D01*
X1105661Y43960D01*
G37*
G36*
X529081Y43960D02*
X529081Y43960D01*
X529088Y43965D01*
X529092Y43961D01*
X530144Y44211D01*
X530149Y44217D01*
X530154Y44214D01*
X531124Y44691D01*
X531127Y44699D01*
X531133Y44697D01*
X531972Y45378D01*
X531974Y45386D01*
X531980Y45386D01*
X532646Y46237D01*
X532647Y46245D01*
X532652Y46246D01*
X533113Y47223D01*
X533111Y47231D01*
X533117Y47234D01*
X533348Y48289D01*
X533345Y48297D01*
X533349Y48300D01*
X533349Y60300D01*
X533345Y60305D01*
X533349Y60308D01*
X533156Y61414D01*
X533150Y61419D01*
X533153Y61424D01*
X532720Y62459D01*
X532713Y62463D01*
X532715Y62468D01*
X532062Y63381D01*
X532054Y63383D01*
X532055Y63389D01*
X531216Y64133D01*
X531207Y64134D01*
X531207Y64139D01*
X530223Y64678D01*
X530215Y64677D01*
X530213Y64682D01*
X529134Y64989D01*
X529126Y64986D01*
X529123Y64991D01*
X528003Y65049D01*
X527998Y65046D01*
X527995Y65049D01*
X526949Y64931D01*
X526943Y64925D01*
X526938Y64929D01*
X525944Y64581D01*
X525940Y64574D01*
X525935Y64576D01*
X525043Y64016D01*
X525041Y64009D01*
X525035Y64009D01*
X524291Y63265D01*
X524289Y63257D01*
X524284Y63257D01*
X523724Y62365D01*
X523724Y62357D01*
X523719Y62356D01*
X523371Y61362D01*
X523374Y61354D01*
X523369Y61351D01*
X523251Y60306D01*
X523253Y60302D01*
X523251Y60300D01*
X523251Y48300D01*
X523254Y48295D01*
X523251Y48292D01*
X523409Y47296D01*
X523415Y47290D01*
X523412Y47285D01*
X523787Y46349D01*
X523794Y46345D01*
X523792Y46339D01*
X524366Y45510D01*
X524374Y45507D01*
X524373Y45502D01*
X525117Y44821D01*
X525126Y44820D01*
X525126Y44814D01*
X526003Y44316D01*
X526012Y44317D01*
X526014Y44312D01*
X526979Y44021D01*
X526987Y44024D01*
X526990Y44019D01*
X527997Y43951D01*
X527999Y43952D01*
X528000Y43951D01*
X529081Y43960D01*
G37*
G36*
X221304Y601355D02*
X221304Y601355D01*
X221307Y601351D01*
X222383Y601506D01*
X222388Y601512D01*
X222393Y601509D01*
X223407Y601899D01*
X223411Y601906D01*
X223417Y601905D01*
X224319Y602511D01*
X224321Y602519D01*
X224327Y602518D01*
X225071Y603310D01*
X225072Y603318D01*
X225078Y603318D01*
X225627Y604256D01*
X225626Y604264D01*
X225632Y604266D01*
X225959Y605302D01*
X225956Y605310D01*
X225961Y605313D01*
X226049Y606396D01*
X226047Y606399D01*
X226049Y606400D01*
X226049Y612400D01*
X226046Y612404D01*
X226049Y612406D01*
X225899Y613539D01*
X225893Y613545D01*
X225896Y613550D01*
X225498Y614620D01*
X225491Y614624D01*
X225493Y614630D01*
X224866Y615585D01*
X224858Y615588D01*
X224859Y615593D01*
X224036Y616385D01*
X224028Y616386D01*
X224027Y616392D01*
X223048Y616981D01*
X223040Y616980D01*
X223038Y616985D01*
X221953Y617341D01*
X221945Y617339D01*
X221942Y617343D01*
X220805Y617449D01*
X220796Y617444D01*
X220791Y617448D01*
X219654Y617241D01*
X219648Y617235D01*
X219643Y617238D01*
X218581Y616783D01*
X218577Y616776D01*
X218571Y616778D01*
X217636Y616098D01*
X217634Y616090D01*
X217628Y616091D01*
X216868Y615220D01*
X216868Y615212D01*
X216862Y615211D01*
X216315Y614192D01*
X216316Y614184D01*
X216311Y614182D01*
X216307Y614169D01*
X216294Y614120D01*
X216293Y614120D01*
X216294Y614120D01*
X216280Y614071D01*
X216266Y614021D01*
X216253Y613972D01*
X216239Y613923D01*
X216226Y613874D01*
X216212Y613824D01*
X216199Y613775D01*
X216185Y613726D01*
X216171Y613677D01*
X216158Y613627D01*
X216144Y613578D01*
X216131Y613529D01*
X216117Y613480D01*
X216104Y613430D01*
X216090Y613381D01*
X216077Y613332D01*
X216076Y613332D01*
X216063Y613283D01*
X216049Y613233D01*
X216004Y613068D01*
X216007Y613060D01*
X216002Y613057D01*
X215951Y611902D01*
X215952Y611901D01*
X215951Y611900D01*
X215951Y605900D01*
X215955Y605894D01*
X215952Y605891D01*
X216164Y604810D01*
X216170Y604805D01*
X216167Y604800D01*
X216614Y603794D01*
X216621Y603790D01*
X216619Y603784D01*
X217279Y602903D01*
X217287Y602900D01*
X217287Y602895D01*
X218126Y602182D01*
X218134Y602182D01*
X218135Y602176D01*
X219112Y601668D01*
X219120Y601669D01*
X219122Y601664D01*
X220187Y601386D01*
X220195Y601389D01*
X220198Y601385D01*
X221299Y601351D01*
X221304Y601355D01*
G37*
G36*
X615004Y601355D02*
X615004Y601355D01*
X615007Y601351D01*
X616083Y601506D01*
X616088Y601512D01*
X616093Y601509D01*
X617107Y601899D01*
X617111Y601906D01*
X617117Y601905D01*
X618019Y602511D01*
X618021Y602519D01*
X618027Y602518D01*
X618771Y603310D01*
X618772Y603318D01*
X618778Y603318D01*
X619327Y604256D01*
X619326Y604264D01*
X619332Y604266D01*
X619659Y605302D01*
X619656Y605310D01*
X619661Y605313D01*
X619749Y606396D01*
X619747Y606399D01*
X619749Y606400D01*
X619749Y612400D01*
X619746Y612404D01*
X619749Y612406D01*
X619599Y613539D01*
X619593Y613545D01*
X619596Y613550D01*
X619198Y614620D01*
X619191Y614624D01*
X619193Y614630D01*
X618566Y615585D01*
X618558Y615588D01*
X618559Y615593D01*
X617736Y616385D01*
X617728Y616386D01*
X617727Y616392D01*
X616748Y616981D01*
X616740Y616980D01*
X616738Y616985D01*
X615653Y617341D01*
X615645Y617339D01*
X615642Y617343D01*
X614505Y617449D01*
X614496Y617444D01*
X614491Y617448D01*
X613354Y617241D01*
X613348Y617235D01*
X613343Y617238D01*
X612281Y616783D01*
X612277Y616776D01*
X612271Y616778D01*
X611336Y616098D01*
X611334Y616090D01*
X611328Y616091D01*
X610568Y615220D01*
X610568Y615212D01*
X610562Y615211D01*
X610015Y614192D01*
X610016Y614184D01*
X610011Y614182D01*
X610007Y614169D01*
X609994Y614120D01*
X609993Y614120D01*
X609994Y614120D01*
X609980Y614071D01*
X609966Y614021D01*
X609953Y613972D01*
X609939Y613923D01*
X609926Y613874D01*
X609912Y613824D01*
X609899Y613775D01*
X609885Y613726D01*
X609871Y613677D01*
X609858Y613627D01*
X609844Y613578D01*
X609831Y613529D01*
X609817Y613480D01*
X609804Y613430D01*
X609790Y613381D01*
X609777Y613332D01*
X609776Y613332D01*
X609763Y613283D01*
X609749Y613233D01*
X609704Y613068D01*
X609707Y613060D01*
X609702Y613057D01*
X609651Y611902D01*
X609652Y611901D01*
X609651Y611900D01*
X609651Y605900D01*
X609655Y605894D01*
X609652Y605891D01*
X609864Y604810D01*
X609870Y604805D01*
X609867Y604800D01*
X610314Y603794D01*
X610321Y603790D01*
X610319Y603784D01*
X610979Y602903D01*
X610987Y602900D01*
X610987Y602895D01*
X611826Y602182D01*
X611834Y602182D01*
X611835Y602176D01*
X612812Y601668D01*
X612820Y601669D01*
X612822Y601664D01*
X613887Y601386D01*
X613895Y601389D01*
X613898Y601385D01*
X614999Y601351D01*
X615004Y601355D01*
G37*
G36*
X424504Y601355D02*
X424504Y601355D01*
X424507Y601351D01*
X425583Y601506D01*
X425588Y601512D01*
X425593Y601509D01*
X426607Y601899D01*
X426611Y601906D01*
X426617Y601905D01*
X427519Y602511D01*
X427521Y602519D01*
X427527Y602518D01*
X428271Y603310D01*
X428272Y603318D01*
X428278Y603318D01*
X428827Y604256D01*
X428826Y604264D01*
X428832Y604266D01*
X429159Y605302D01*
X429156Y605310D01*
X429161Y605313D01*
X429249Y606396D01*
X429247Y606399D01*
X429249Y606400D01*
X429249Y612400D01*
X429246Y612404D01*
X429249Y612406D01*
X429099Y613539D01*
X429093Y613545D01*
X429096Y613550D01*
X428698Y614620D01*
X428691Y614624D01*
X428693Y614630D01*
X428066Y615585D01*
X428058Y615588D01*
X428059Y615593D01*
X427236Y616385D01*
X427228Y616386D01*
X427227Y616392D01*
X426248Y616981D01*
X426240Y616980D01*
X426238Y616985D01*
X425153Y617341D01*
X425145Y617339D01*
X425142Y617343D01*
X424005Y617449D01*
X423996Y617444D01*
X423991Y617448D01*
X422854Y617241D01*
X422848Y617235D01*
X422843Y617238D01*
X421781Y616783D01*
X421777Y616776D01*
X421771Y616778D01*
X420836Y616098D01*
X420834Y616090D01*
X420828Y616091D01*
X420068Y615220D01*
X420068Y615212D01*
X420062Y615211D01*
X419515Y614192D01*
X419516Y614184D01*
X419511Y614182D01*
X419507Y614169D01*
X419494Y614120D01*
X419493Y614120D01*
X419494Y614120D01*
X419480Y614071D01*
X419466Y614021D01*
X419453Y613972D01*
X419439Y613923D01*
X419426Y613874D01*
X419412Y613824D01*
X419399Y613775D01*
X419385Y613726D01*
X419371Y613677D01*
X419358Y613627D01*
X419344Y613578D01*
X419331Y613529D01*
X419317Y613480D01*
X419304Y613430D01*
X419290Y613381D01*
X419277Y613332D01*
X419276Y613332D01*
X419263Y613283D01*
X419249Y613233D01*
X419204Y613068D01*
X419207Y613060D01*
X419202Y613057D01*
X419151Y611902D01*
X419152Y611901D01*
X419151Y611900D01*
X419151Y605900D01*
X419155Y605894D01*
X419152Y605891D01*
X419364Y604810D01*
X419370Y604805D01*
X419367Y604800D01*
X419814Y603794D01*
X419821Y603790D01*
X419819Y603784D01*
X420479Y602903D01*
X420487Y602900D01*
X420487Y602895D01*
X421326Y602182D01*
X421334Y602182D01*
X421335Y602176D01*
X422312Y601668D01*
X422320Y601669D01*
X422322Y601664D01*
X423387Y601386D01*
X423395Y601389D01*
X423398Y601385D01*
X424499Y601351D01*
X424504Y601355D01*
G37*
G36*
X1382084Y601355D02*
X1382084Y601355D01*
X1382087Y601351D01*
X1383163Y601506D01*
X1383168Y601512D01*
X1383173Y601509D01*
X1384187Y601899D01*
X1384191Y601906D01*
X1384197Y601905D01*
X1385099Y602511D01*
X1385101Y602519D01*
X1385107Y602518D01*
X1385851Y603310D01*
X1385852Y603318D01*
X1385858Y603318D01*
X1386407Y604256D01*
X1386406Y604264D01*
X1386412Y604266D01*
X1386739Y605302D01*
X1386736Y605310D01*
X1386741Y605313D01*
X1386829Y606396D01*
X1386827Y606399D01*
X1386829Y606400D01*
X1386829Y612400D01*
X1386826Y612404D01*
X1386829Y612406D01*
X1386679Y613539D01*
X1386673Y613545D01*
X1386676Y613550D01*
X1386278Y614620D01*
X1386271Y614624D01*
X1386273Y614630D01*
X1385646Y615585D01*
X1385638Y615588D01*
X1385639Y615593D01*
X1384816Y616385D01*
X1384808Y616386D01*
X1384807Y616392D01*
X1383828Y616981D01*
X1383820Y616980D01*
X1383818Y616985D01*
X1382733Y617341D01*
X1382725Y617339D01*
X1382722Y617343D01*
X1381585Y617449D01*
X1381576Y617444D01*
X1381571Y617448D01*
X1380434Y617241D01*
X1380428Y617235D01*
X1380423Y617238D01*
X1379361Y616783D01*
X1379357Y616776D01*
X1379351Y616778D01*
X1378416Y616098D01*
X1378414Y616090D01*
X1378408Y616091D01*
X1377648Y615220D01*
X1377648Y615212D01*
X1377642Y615211D01*
X1377095Y614192D01*
X1377096Y614184D01*
X1377091Y614182D01*
X1377087Y614169D01*
X1377074Y614120D01*
X1377073Y614120D01*
X1377074Y614120D01*
X1377060Y614071D01*
X1377046Y614021D01*
X1377033Y613972D01*
X1377019Y613923D01*
X1377006Y613874D01*
X1376992Y613824D01*
X1376979Y613775D01*
X1376965Y613726D01*
X1376951Y613677D01*
X1376938Y613627D01*
X1376924Y613578D01*
X1376911Y613529D01*
X1376897Y613480D01*
X1376884Y613430D01*
X1376870Y613381D01*
X1376857Y613332D01*
X1376856Y613332D01*
X1376843Y613283D01*
X1376829Y613233D01*
X1376784Y613068D01*
X1376787Y613060D01*
X1376782Y613057D01*
X1376731Y611902D01*
X1376732Y611901D01*
X1376731Y611900D01*
X1376731Y605900D01*
X1376735Y605894D01*
X1376732Y605891D01*
X1376944Y604810D01*
X1376950Y604805D01*
X1376947Y604800D01*
X1377394Y603794D01*
X1377401Y603790D01*
X1377399Y603784D01*
X1378059Y602903D01*
X1378067Y602900D01*
X1378067Y602895D01*
X1378906Y602182D01*
X1378914Y602182D01*
X1378915Y602176D01*
X1379892Y601668D01*
X1379900Y601669D01*
X1379902Y601664D01*
X1380967Y601386D01*
X1380975Y601389D01*
X1380978Y601385D01*
X1382079Y601351D01*
X1382084Y601355D01*
G37*
G36*
X1191584Y601355D02*
X1191584Y601355D01*
X1191587Y601351D01*
X1192663Y601506D01*
X1192668Y601512D01*
X1192673Y601509D01*
X1193687Y601899D01*
X1193691Y601906D01*
X1193697Y601905D01*
X1194599Y602511D01*
X1194601Y602519D01*
X1194607Y602518D01*
X1195351Y603310D01*
X1195352Y603318D01*
X1195358Y603318D01*
X1195907Y604256D01*
X1195906Y604264D01*
X1195912Y604266D01*
X1196239Y605302D01*
X1196236Y605310D01*
X1196241Y605313D01*
X1196329Y606396D01*
X1196327Y606399D01*
X1196329Y606400D01*
X1196329Y612400D01*
X1196326Y612404D01*
X1196329Y612406D01*
X1196179Y613539D01*
X1196173Y613545D01*
X1196176Y613550D01*
X1195778Y614620D01*
X1195771Y614624D01*
X1195773Y614630D01*
X1195146Y615585D01*
X1195138Y615588D01*
X1195139Y615593D01*
X1194316Y616385D01*
X1194308Y616386D01*
X1194307Y616392D01*
X1193328Y616981D01*
X1193320Y616980D01*
X1193318Y616985D01*
X1192233Y617341D01*
X1192225Y617339D01*
X1192222Y617343D01*
X1191085Y617449D01*
X1191076Y617444D01*
X1191071Y617448D01*
X1189934Y617241D01*
X1189928Y617235D01*
X1189923Y617238D01*
X1188861Y616783D01*
X1188857Y616776D01*
X1188851Y616778D01*
X1187916Y616098D01*
X1187914Y616090D01*
X1187908Y616091D01*
X1187148Y615220D01*
X1187148Y615212D01*
X1187142Y615211D01*
X1186595Y614192D01*
X1186596Y614184D01*
X1186591Y614182D01*
X1186587Y614169D01*
X1186574Y614120D01*
X1186573Y614120D01*
X1186574Y614120D01*
X1186560Y614071D01*
X1186546Y614021D01*
X1186533Y613972D01*
X1186519Y613923D01*
X1186506Y613874D01*
X1186492Y613824D01*
X1186479Y613775D01*
X1186465Y613726D01*
X1186451Y613677D01*
X1186438Y613627D01*
X1186424Y613578D01*
X1186411Y613529D01*
X1186397Y613480D01*
X1186384Y613430D01*
X1186370Y613381D01*
X1186357Y613332D01*
X1186356Y613332D01*
X1186343Y613283D01*
X1186329Y613233D01*
X1186284Y613068D01*
X1186287Y613060D01*
X1186282Y613057D01*
X1186231Y611902D01*
X1186232Y611901D01*
X1186231Y611900D01*
X1186231Y605900D01*
X1186235Y605894D01*
X1186232Y605891D01*
X1186444Y604810D01*
X1186450Y604805D01*
X1186447Y604800D01*
X1186894Y603794D01*
X1186901Y603790D01*
X1186899Y603784D01*
X1187559Y602903D01*
X1187567Y602900D01*
X1187567Y602895D01*
X1188406Y602182D01*
X1188414Y602182D01*
X1188415Y602176D01*
X1189392Y601668D01*
X1189400Y601669D01*
X1189402Y601664D01*
X1190467Y601386D01*
X1190475Y601389D01*
X1190478Y601385D01*
X1191579Y601351D01*
X1191584Y601355D01*
G37*
G36*
X988384Y601355D02*
X988384Y601355D01*
X988387Y601351D01*
X989463Y601506D01*
X989468Y601512D01*
X989473Y601509D01*
X990487Y601899D01*
X990491Y601906D01*
X990497Y601905D01*
X991399Y602511D01*
X991401Y602519D01*
X991407Y602518D01*
X992151Y603310D01*
X992152Y603318D01*
X992158Y603318D01*
X992707Y604256D01*
X992706Y604264D01*
X992712Y604266D01*
X993039Y605302D01*
X993036Y605310D01*
X993041Y605313D01*
X993129Y606396D01*
X993127Y606399D01*
X993129Y606400D01*
X993129Y612400D01*
X993126Y612404D01*
X993129Y612406D01*
X992979Y613539D01*
X992973Y613545D01*
X992976Y613550D01*
X992578Y614620D01*
X992571Y614624D01*
X992573Y614630D01*
X991946Y615585D01*
X991938Y615588D01*
X991939Y615593D01*
X991116Y616385D01*
X991108Y616386D01*
X991107Y616392D01*
X990128Y616981D01*
X990120Y616980D01*
X990118Y616985D01*
X989033Y617341D01*
X989025Y617339D01*
X989022Y617343D01*
X987885Y617449D01*
X987876Y617444D01*
X987871Y617448D01*
X986734Y617241D01*
X986728Y617235D01*
X986723Y617238D01*
X985661Y616783D01*
X985657Y616776D01*
X985651Y616778D01*
X984716Y616098D01*
X984714Y616090D01*
X984708Y616091D01*
X983948Y615220D01*
X983948Y615212D01*
X983942Y615211D01*
X983395Y614192D01*
X983396Y614184D01*
X983391Y614182D01*
X983387Y614169D01*
X983374Y614120D01*
X983373Y614120D01*
X983374Y614120D01*
X983360Y614071D01*
X983346Y614021D01*
X983333Y613972D01*
X983319Y613923D01*
X983306Y613874D01*
X983292Y613824D01*
X983279Y613775D01*
X983265Y613726D01*
X983251Y613677D01*
X983238Y613627D01*
X983224Y613578D01*
X983211Y613529D01*
X983197Y613480D01*
X983184Y613430D01*
X983170Y613381D01*
X983157Y613332D01*
X983156Y613332D01*
X983143Y613283D01*
X983129Y613233D01*
X983084Y613068D01*
X983087Y613060D01*
X983082Y613057D01*
X983031Y611902D01*
X983032Y611901D01*
X983031Y611900D01*
X983031Y605900D01*
X983035Y605894D01*
X983032Y605891D01*
X983244Y604810D01*
X983250Y604805D01*
X983247Y604800D01*
X983694Y603794D01*
X983701Y603790D01*
X983699Y603784D01*
X984359Y602903D01*
X984367Y602900D01*
X984367Y602895D01*
X985206Y602182D01*
X985214Y602182D01*
X985215Y602176D01*
X986192Y601668D01*
X986200Y601669D01*
X986202Y601664D01*
X987267Y601386D01*
X987275Y601389D01*
X987278Y601385D01*
X988379Y601351D01*
X988384Y601355D01*
G37*
G36*
X1191584Y4455D02*
X1191584Y4455D01*
X1191587Y4451D01*
X1192663Y4606D01*
X1192668Y4612D01*
X1192673Y4609D01*
X1193687Y4999D01*
X1193691Y5006D01*
X1193697Y5005D01*
X1194599Y5611D01*
X1194601Y5619D01*
X1194607Y5618D01*
X1195351Y6410D01*
X1195352Y6418D01*
X1195358Y6418D01*
X1195907Y7356D01*
X1195906Y7364D01*
X1195912Y7366D01*
X1196239Y8402D01*
X1196236Y8410D01*
X1196241Y8413D01*
X1196329Y9496D01*
X1196327Y9499D01*
X1196329Y9500D01*
X1196329Y15500D01*
X1196326Y15504D01*
X1196329Y15506D01*
X1196179Y16639D01*
X1196173Y16645D01*
X1196176Y16650D01*
X1195778Y17720D01*
X1195771Y17724D01*
X1195773Y17730D01*
X1195146Y18685D01*
X1195138Y18688D01*
X1195139Y18693D01*
X1194316Y19485D01*
X1194308Y19486D01*
X1194307Y19492D01*
X1193328Y20081D01*
X1193320Y20080D01*
X1193318Y20085D01*
X1192233Y20441D01*
X1192225Y20439D01*
X1192222Y20443D01*
X1191085Y20549D01*
X1191076Y20544D01*
X1191071Y20548D01*
X1189934Y20341D01*
X1189928Y20335D01*
X1189923Y20338D01*
X1188861Y19883D01*
X1188857Y19876D01*
X1188851Y19878D01*
X1187916Y19198D01*
X1187914Y19190D01*
X1187908Y19191D01*
X1187148Y18320D01*
X1187148Y18312D01*
X1187142Y18311D01*
X1186595Y17292D01*
X1186596Y17284D01*
X1186591Y17282D01*
X1186587Y17269D01*
X1186574Y17220D01*
X1186573Y17220D01*
X1186574Y17220D01*
X1186560Y17171D01*
X1186546Y17121D01*
X1186533Y17072D01*
X1186519Y17023D01*
X1186506Y16974D01*
X1186492Y16924D01*
X1186479Y16875D01*
X1186465Y16826D01*
X1186451Y16777D01*
X1186438Y16727D01*
X1186424Y16678D01*
X1186411Y16629D01*
X1186397Y16580D01*
X1186384Y16530D01*
X1186370Y16481D01*
X1186357Y16432D01*
X1186356Y16432D01*
X1186343Y16383D01*
X1186329Y16333D01*
X1186284Y16168D01*
X1186287Y16160D01*
X1186282Y16157D01*
X1186231Y15002D01*
X1186232Y15001D01*
X1186231Y15000D01*
X1186231Y9000D01*
X1186235Y8994D01*
X1186232Y8991D01*
X1186444Y7910D01*
X1186450Y7905D01*
X1186447Y7900D01*
X1186894Y6894D01*
X1186901Y6890D01*
X1186899Y6884D01*
X1187559Y6003D01*
X1187567Y6000D01*
X1187567Y5995D01*
X1188406Y5282D01*
X1188414Y5282D01*
X1188415Y5276D01*
X1189392Y4768D01*
X1189400Y4769D01*
X1189402Y4764D01*
X1190467Y4486D01*
X1190475Y4489D01*
X1190478Y4485D01*
X1191579Y4451D01*
X1191584Y4455D01*
G37*
G36*
X221304Y4455D02*
X221304Y4455D01*
X221307Y4451D01*
X222383Y4606D01*
X222388Y4612D01*
X222393Y4609D01*
X223407Y4999D01*
X223411Y5006D01*
X223417Y5005D01*
X224319Y5611D01*
X224321Y5619D01*
X224327Y5618D01*
X225071Y6410D01*
X225072Y6418D01*
X225078Y6418D01*
X225627Y7356D01*
X225626Y7364D01*
X225632Y7366D01*
X225959Y8402D01*
X225956Y8410D01*
X225961Y8413D01*
X226049Y9496D01*
X226047Y9499D01*
X226049Y9500D01*
X226049Y15500D01*
X226046Y15504D01*
X226049Y15506D01*
X225899Y16639D01*
X225893Y16645D01*
X225896Y16650D01*
X225498Y17720D01*
X225491Y17724D01*
X225493Y17730D01*
X224866Y18685D01*
X224858Y18688D01*
X224859Y18693D01*
X224036Y19485D01*
X224028Y19486D01*
X224027Y19492D01*
X223048Y20081D01*
X223040Y20080D01*
X223038Y20085D01*
X221953Y20441D01*
X221945Y20439D01*
X221942Y20443D01*
X220805Y20549D01*
X220796Y20544D01*
X220791Y20548D01*
X219654Y20341D01*
X219648Y20335D01*
X219643Y20338D01*
X218581Y19883D01*
X218577Y19876D01*
X218571Y19878D01*
X217636Y19198D01*
X217634Y19190D01*
X217628Y19191D01*
X216868Y18320D01*
X216868Y18312D01*
X216862Y18311D01*
X216315Y17292D01*
X216316Y17284D01*
X216311Y17282D01*
X216307Y17269D01*
X216294Y17220D01*
X216293Y17220D01*
X216294Y17220D01*
X216280Y17171D01*
X216266Y17121D01*
X216253Y17072D01*
X216239Y17023D01*
X216226Y16974D01*
X216212Y16924D01*
X216199Y16875D01*
X216185Y16826D01*
X216171Y16777D01*
X216158Y16727D01*
X216144Y16678D01*
X216131Y16629D01*
X216117Y16580D01*
X216104Y16530D01*
X216090Y16481D01*
X216077Y16432D01*
X216076Y16432D01*
X216063Y16383D01*
X216049Y16333D01*
X216004Y16168D01*
X216007Y16160D01*
X216002Y16157D01*
X215951Y15002D01*
X215952Y15001D01*
X215951Y15000D01*
X215951Y9000D01*
X215955Y8994D01*
X215952Y8991D01*
X216164Y7910D01*
X216170Y7905D01*
X216167Y7900D01*
X216614Y6894D01*
X216621Y6890D01*
X216619Y6884D01*
X217279Y6003D01*
X217287Y6000D01*
X217287Y5995D01*
X218126Y5282D01*
X218134Y5282D01*
X218135Y5276D01*
X219112Y4768D01*
X219120Y4769D01*
X219122Y4764D01*
X220187Y4486D01*
X220195Y4489D01*
X220198Y4485D01*
X221299Y4451D01*
X221304Y4455D01*
G37*
G36*
X1382084Y4455D02*
X1382084Y4455D01*
X1382087Y4451D01*
X1383163Y4606D01*
X1383168Y4612D01*
X1383173Y4609D01*
X1384187Y4999D01*
X1384191Y5006D01*
X1384197Y5005D01*
X1385099Y5611D01*
X1385101Y5619D01*
X1385107Y5618D01*
X1385851Y6410D01*
X1385852Y6418D01*
X1385858Y6418D01*
X1386407Y7356D01*
X1386406Y7364D01*
X1386412Y7366D01*
X1386739Y8402D01*
X1386736Y8410D01*
X1386741Y8413D01*
X1386829Y9496D01*
X1386827Y9499D01*
X1386829Y9500D01*
X1386829Y15500D01*
X1386826Y15504D01*
X1386829Y15506D01*
X1386679Y16639D01*
X1386673Y16645D01*
X1386676Y16650D01*
X1386278Y17720D01*
X1386271Y17724D01*
X1386273Y17730D01*
X1385646Y18685D01*
X1385638Y18688D01*
X1385639Y18693D01*
X1384816Y19485D01*
X1384808Y19486D01*
X1384807Y19492D01*
X1383828Y20081D01*
X1383820Y20080D01*
X1383818Y20085D01*
X1382733Y20441D01*
X1382725Y20439D01*
X1382722Y20443D01*
X1381585Y20549D01*
X1381576Y20544D01*
X1381571Y20548D01*
X1380434Y20341D01*
X1380428Y20335D01*
X1380423Y20338D01*
X1379361Y19883D01*
X1379357Y19876D01*
X1379351Y19878D01*
X1378416Y19198D01*
X1378414Y19190D01*
X1378408Y19191D01*
X1377648Y18320D01*
X1377648Y18312D01*
X1377642Y18311D01*
X1377095Y17292D01*
X1377096Y17284D01*
X1377091Y17282D01*
X1377087Y17269D01*
X1377074Y17220D01*
X1377073Y17220D01*
X1377074Y17220D01*
X1377060Y17171D01*
X1377046Y17121D01*
X1377033Y17072D01*
X1377019Y17023D01*
X1377006Y16974D01*
X1376992Y16924D01*
X1376979Y16875D01*
X1376965Y16826D01*
X1376951Y16777D01*
X1376938Y16727D01*
X1376924Y16678D01*
X1376911Y16629D01*
X1376897Y16580D01*
X1376884Y16530D01*
X1376870Y16481D01*
X1376857Y16432D01*
X1376856Y16432D01*
X1376843Y16383D01*
X1376829Y16333D01*
X1376784Y16168D01*
X1376787Y16160D01*
X1376782Y16157D01*
X1376731Y15002D01*
X1376732Y15001D01*
X1376731Y15000D01*
X1376731Y9000D01*
X1376735Y8994D01*
X1376732Y8991D01*
X1376944Y7910D01*
X1376950Y7905D01*
X1376947Y7900D01*
X1377394Y6894D01*
X1377401Y6890D01*
X1377399Y6884D01*
X1378059Y6003D01*
X1378067Y6000D01*
X1378067Y5995D01*
X1378906Y5282D01*
X1378914Y5282D01*
X1378915Y5276D01*
X1379892Y4768D01*
X1379900Y4769D01*
X1379902Y4764D01*
X1380967Y4486D01*
X1380975Y4489D01*
X1380978Y4485D01*
X1382079Y4451D01*
X1382084Y4455D01*
G37*
G36*
X615004Y4455D02*
X615004Y4455D01*
X615007Y4451D01*
X616083Y4606D01*
X616088Y4612D01*
X616093Y4609D01*
X617107Y4999D01*
X617111Y5006D01*
X617117Y5005D01*
X618019Y5611D01*
X618021Y5619D01*
X618027Y5618D01*
X618771Y6410D01*
X618772Y6418D01*
X618778Y6418D01*
X619327Y7356D01*
X619326Y7364D01*
X619332Y7366D01*
X619659Y8402D01*
X619656Y8410D01*
X619661Y8413D01*
X619749Y9496D01*
X619747Y9499D01*
X619749Y9500D01*
X619749Y15500D01*
X619746Y15504D01*
X619749Y15506D01*
X619599Y16639D01*
X619593Y16645D01*
X619596Y16650D01*
X619198Y17720D01*
X619191Y17724D01*
X619193Y17730D01*
X618566Y18685D01*
X618558Y18688D01*
X618559Y18693D01*
X617736Y19485D01*
X617728Y19486D01*
X617727Y19492D01*
X616748Y20081D01*
X616740Y20080D01*
X616738Y20085D01*
X615653Y20441D01*
X615645Y20439D01*
X615642Y20443D01*
X614505Y20549D01*
X614496Y20544D01*
X614491Y20548D01*
X613354Y20341D01*
X613348Y20335D01*
X613343Y20338D01*
X612281Y19883D01*
X612277Y19876D01*
X612271Y19878D01*
X611336Y19198D01*
X611334Y19190D01*
X611328Y19191D01*
X610568Y18320D01*
X610568Y18312D01*
X610562Y18311D01*
X610015Y17292D01*
X610016Y17284D01*
X610011Y17282D01*
X610007Y17269D01*
X609994Y17220D01*
X609993Y17220D01*
X609994Y17220D01*
X609980Y17171D01*
X609966Y17121D01*
X609953Y17072D01*
X609939Y17023D01*
X609926Y16974D01*
X609912Y16924D01*
X609899Y16875D01*
X609885Y16826D01*
X609871Y16777D01*
X609858Y16727D01*
X609844Y16678D01*
X609831Y16629D01*
X609817Y16580D01*
X609804Y16530D01*
X609790Y16481D01*
X609777Y16432D01*
X609776Y16432D01*
X609763Y16383D01*
X609749Y16333D01*
X609704Y16168D01*
X609707Y16160D01*
X609702Y16157D01*
X609651Y15002D01*
X609652Y15001D01*
X609651Y15000D01*
X609651Y9000D01*
X609655Y8994D01*
X609652Y8991D01*
X609864Y7910D01*
X609870Y7905D01*
X609867Y7900D01*
X610314Y6894D01*
X610321Y6890D01*
X610319Y6884D01*
X610979Y6003D01*
X610987Y6000D01*
X610987Y5995D01*
X611826Y5282D01*
X611834Y5282D01*
X611835Y5276D01*
X612812Y4768D01*
X612820Y4769D01*
X612822Y4764D01*
X613887Y4486D01*
X613895Y4489D01*
X613898Y4485D01*
X614999Y4451D01*
X615004Y4455D01*
G37*
G36*
X988384Y4455D02*
X988384Y4455D01*
X988387Y4451D01*
X989463Y4606D01*
X989468Y4612D01*
X989473Y4609D01*
X990487Y4999D01*
X990491Y5006D01*
X990497Y5005D01*
X991399Y5611D01*
X991401Y5619D01*
X991407Y5618D01*
X992151Y6410D01*
X992152Y6418D01*
X992158Y6418D01*
X992707Y7356D01*
X992706Y7364D01*
X992712Y7366D01*
X993039Y8402D01*
X993036Y8410D01*
X993041Y8413D01*
X993129Y9496D01*
X993127Y9499D01*
X993129Y9500D01*
X993129Y15500D01*
X993126Y15504D01*
X993129Y15506D01*
X992979Y16639D01*
X992973Y16645D01*
X992976Y16650D01*
X992578Y17720D01*
X992571Y17724D01*
X992573Y17730D01*
X991946Y18685D01*
X991938Y18688D01*
X991939Y18693D01*
X991116Y19485D01*
X991108Y19486D01*
X991107Y19492D01*
X990128Y20081D01*
X990120Y20080D01*
X990118Y20085D01*
X989033Y20441D01*
X989025Y20439D01*
X989022Y20443D01*
X987885Y20549D01*
X987876Y20544D01*
X987871Y20548D01*
X986734Y20341D01*
X986728Y20335D01*
X986723Y20338D01*
X985661Y19883D01*
X985657Y19876D01*
X985651Y19878D01*
X984716Y19198D01*
X984714Y19190D01*
X984708Y19191D01*
X983948Y18320D01*
X983948Y18312D01*
X983942Y18311D01*
X983395Y17292D01*
X983396Y17284D01*
X983391Y17282D01*
X983387Y17269D01*
X983374Y17220D01*
X983373Y17220D01*
X983374Y17220D01*
X983360Y17171D01*
X983346Y17121D01*
X983333Y17072D01*
X983319Y17023D01*
X983306Y16974D01*
X983292Y16924D01*
X983279Y16875D01*
X983265Y16826D01*
X983251Y16777D01*
X983238Y16727D01*
X983224Y16678D01*
X983211Y16629D01*
X983197Y16580D01*
X983184Y16530D01*
X983170Y16481D01*
X983157Y16432D01*
X983156Y16432D01*
X983143Y16383D01*
X983129Y16333D01*
X983084Y16168D01*
X983087Y16160D01*
X983082Y16157D01*
X983031Y15002D01*
X983032Y15001D01*
X983031Y15000D01*
X983031Y9000D01*
X983035Y8994D01*
X983032Y8991D01*
X983244Y7910D01*
X983250Y7905D01*
X983247Y7900D01*
X983694Y6894D01*
X983701Y6890D01*
X983699Y6884D01*
X984359Y6003D01*
X984367Y6000D01*
X984367Y5995D01*
X985206Y5282D01*
X985214Y5282D01*
X985215Y5276D01*
X986192Y4768D01*
X986200Y4769D01*
X986202Y4764D01*
X987267Y4486D01*
X987275Y4489D01*
X987278Y4485D01*
X988379Y4451D01*
X988384Y4455D01*
G37*
G36*
X424504Y4455D02*
X424504Y4455D01*
X424507Y4451D01*
X425583Y4606D01*
X425588Y4612D01*
X425593Y4609D01*
X426607Y4999D01*
X426611Y5006D01*
X426617Y5005D01*
X427519Y5611D01*
X427521Y5619D01*
X427527Y5618D01*
X428271Y6410D01*
X428272Y6418D01*
X428278Y6418D01*
X428827Y7356D01*
X428826Y7364D01*
X428832Y7366D01*
X429159Y8402D01*
X429156Y8410D01*
X429161Y8413D01*
X429249Y9496D01*
X429247Y9499D01*
X429249Y9500D01*
X429249Y15500D01*
X429246Y15504D01*
X429249Y15506D01*
X429099Y16639D01*
X429093Y16645D01*
X429096Y16650D01*
X428698Y17720D01*
X428691Y17724D01*
X428693Y17730D01*
X428066Y18685D01*
X428058Y18688D01*
X428059Y18693D01*
X427236Y19485D01*
X427228Y19486D01*
X427227Y19492D01*
X426248Y20081D01*
X426240Y20080D01*
X426238Y20085D01*
X425153Y20441D01*
X425145Y20439D01*
X425142Y20443D01*
X424005Y20549D01*
X423996Y20544D01*
X423991Y20548D01*
X422854Y20341D01*
X422848Y20335D01*
X422843Y20338D01*
X421781Y19883D01*
X421777Y19876D01*
X421771Y19878D01*
X420836Y19198D01*
X420834Y19190D01*
X420828Y19191D01*
X420068Y18320D01*
X420068Y18312D01*
X420062Y18311D01*
X419515Y17292D01*
X419516Y17284D01*
X419511Y17282D01*
X419507Y17269D01*
X419494Y17220D01*
X419493Y17220D01*
X419494Y17220D01*
X419480Y17171D01*
X419466Y17121D01*
X419453Y17072D01*
X419439Y17023D01*
X419426Y16974D01*
X419412Y16924D01*
X419399Y16875D01*
X419385Y16826D01*
X419371Y16777D01*
X419358Y16727D01*
X419344Y16678D01*
X419331Y16629D01*
X419317Y16580D01*
X419304Y16530D01*
X419290Y16481D01*
X419277Y16432D01*
X419276Y16432D01*
X419263Y16383D01*
X419249Y16333D01*
X419204Y16168D01*
X419207Y16160D01*
X419202Y16157D01*
X419151Y15002D01*
X419152Y15001D01*
X419151Y15000D01*
X419151Y9000D01*
X419155Y8994D01*
X419152Y8991D01*
X419364Y7910D01*
X419370Y7905D01*
X419367Y7900D01*
X419814Y6894D01*
X419821Y6890D01*
X419819Y6884D01*
X420479Y6003D01*
X420487Y6000D01*
X420487Y5995D01*
X421326Y5282D01*
X421334Y5282D01*
X421335Y5276D01*
X422312Y4768D01*
X422320Y4769D01*
X422322Y4764D01*
X423387Y4486D01*
X423395Y4489D01*
X423398Y4485D01*
X424499Y4451D01*
X424504Y4455D01*
G37*
G36*
X1295582Y601355D02*
X1295582Y601355D01*
X1295587Y601351D01*
X1296674Y601496D01*
X1296680Y601502D01*
X1296685Y601499D01*
X1297713Y601883D01*
X1297718Y601889D01*
X1297723Y601888D01*
X1298640Y602490D01*
X1298643Y602498D01*
X1298649Y602497D01*
X1299409Y603289D01*
X1299410Y603297D01*
X1299416Y603298D01*
X1299980Y604239D01*
X1299980Y604242D01*
X1299981Y604243D01*
X1299980Y604245D01*
X1299979Y604247D01*
X1299985Y604249D01*
X1300326Y605292D01*
X1300324Y605300D01*
X1300328Y605303D01*
X1300429Y606396D01*
X1300427Y606398D01*
X1300429Y606400D01*
X1300429Y612400D01*
X1300427Y612403D01*
X1300429Y612405D01*
X1300328Y613497D01*
X1300323Y613503D01*
X1300326Y613508D01*
X1299985Y614551D01*
X1299978Y614556D01*
X1299980Y614561D01*
X1299416Y615502D01*
X1299408Y615505D01*
X1299409Y615511D01*
X1298649Y616303D01*
X1298641Y616304D01*
X1298640Y616310D01*
X1297723Y616913D01*
X1297715Y616912D01*
X1297713Y616918D01*
X1296685Y617301D01*
X1296677Y617299D01*
X1296674Y617304D01*
X1295587Y617449D01*
X1295579Y617445D01*
X1295575Y617449D01*
X1294438Y617343D01*
X1294432Y617338D01*
X1294427Y617341D01*
X1293342Y616985D01*
X1293337Y616978D01*
X1293332Y616981D01*
X1292353Y616392D01*
X1292350Y616384D01*
X1292344Y616385D01*
X1291521Y615593D01*
X1291520Y615585D01*
X1291514Y615585D01*
X1290887Y614630D01*
X1290888Y614622D01*
X1290882Y614620D01*
X1290484Y613550D01*
X1290486Y613542D01*
X1290481Y613539D01*
X1290331Y612406D01*
X1290334Y612402D01*
X1290331Y612400D01*
X1290331Y606400D01*
X1290334Y606396D01*
X1290331Y606394D01*
X1290481Y605261D01*
X1290487Y605255D01*
X1290484Y605250D01*
X1290882Y604180D01*
X1290889Y604176D01*
X1290887Y604170D01*
X1291514Y603215D01*
X1291522Y603212D01*
X1291521Y603207D01*
X1292344Y602415D01*
X1292352Y602414D01*
X1292353Y602408D01*
X1293332Y601819D01*
X1293340Y601820D01*
X1293342Y601815D01*
X1294427Y601459D01*
X1294435Y601462D01*
X1294438Y601457D01*
X1295575Y601351D01*
X1295582Y601355D01*
G37*
G36*
X1105082Y601355D02*
X1105082Y601355D01*
X1105087Y601351D01*
X1106174Y601496D01*
X1106180Y601502D01*
X1106185Y601499D01*
X1107213Y601883D01*
X1107218Y601889D01*
X1107223Y601888D01*
X1108140Y602490D01*
X1108143Y602498D01*
X1108149Y602497D01*
X1108909Y603289D01*
X1108910Y603297D01*
X1108916Y603298D01*
X1109480Y604239D01*
X1109480Y604242D01*
X1109481Y604243D01*
X1109480Y604245D01*
X1109479Y604247D01*
X1109485Y604249D01*
X1109826Y605292D01*
X1109824Y605300D01*
X1109828Y605303D01*
X1109929Y606396D01*
X1109927Y606398D01*
X1109929Y606400D01*
X1109929Y612400D01*
X1109927Y612403D01*
X1109929Y612405D01*
X1109828Y613497D01*
X1109823Y613503D01*
X1109826Y613508D01*
X1109485Y614551D01*
X1109478Y614556D01*
X1109480Y614561D01*
X1108916Y615502D01*
X1108908Y615505D01*
X1108909Y615511D01*
X1108149Y616303D01*
X1108141Y616304D01*
X1108140Y616310D01*
X1107223Y616913D01*
X1107215Y616912D01*
X1107213Y616918D01*
X1106185Y617301D01*
X1106177Y617299D01*
X1106174Y617304D01*
X1105087Y617449D01*
X1105079Y617445D01*
X1105075Y617449D01*
X1103938Y617343D01*
X1103932Y617338D01*
X1103927Y617341D01*
X1102842Y616985D01*
X1102837Y616978D01*
X1102832Y616981D01*
X1101853Y616392D01*
X1101850Y616384D01*
X1101844Y616385D01*
X1101021Y615593D01*
X1101020Y615585D01*
X1101014Y615585D01*
X1100387Y614630D01*
X1100388Y614622D01*
X1100382Y614620D01*
X1099984Y613550D01*
X1099986Y613542D01*
X1099981Y613539D01*
X1099831Y612406D01*
X1099834Y612402D01*
X1099831Y612400D01*
X1099831Y606400D01*
X1099834Y606396D01*
X1099831Y606394D01*
X1099981Y605261D01*
X1099987Y605255D01*
X1099984Y605250D01*
X1100382Y604180D01*
X1100389Y604176D01*
X1100387Y604170D01*
X1101014Y603215D01*
X1101022Y603212D01*
X1101021Y603207D01*
X1101844Y602415D01*
X1101852Y602414D01*
X1101853Y602408D01*
X1102832Y601819D01*
X1102840Y601820D01*
X1102842Y601815D01*
X1103927Y601459D01*
X1103935Y601462D01*
X1103938Y601457D01*
X1105075Y601351D01*
X1105082Y601355D01*
G37*
G36*
X901882Y601355D02*
X901882Y601355D01*
X901887Y601351D01*
X902974Y601496D01*
X902980Y601502D01*
X902985Y601499D01*
X904013Y601883D01*
X904018Y601889D01*
X904023Y601888D01*
X904940Y602490D01*
X904943Y602498D01*
X904949Y602497D01*
X905709Y603289D01*
X905710Y603297D01*
X905716Y603298D01*
X906280Y604239D01*
X906280Y604242D01*
X906281Y604243D01*
X906280Y604245D01*
X906279Y604247D01*
X906285Y604249D01*
X906626Y605292D01*
X906624Y605300D01*
X906628Y605303D01*
X906729Y606396D01*
X906727Y606398D01*
X906729Y606400D01*
X906729Y612400D01*
X906727Y612403D01*
X906729Y612405D01*
X906628Y613497D01*
X906623Y613503D01*
X906626Y613508D01*
X906285Y614551D01*
X906278Y614556D01*
X906280Y614561D01*
X905716Y615502D01*
X905708Y615505D01*
X905709Y615511D01*
X904949Y616303D01*
X904941Y616304D01*
X904940Y616310D01*
X904023Y616913D01*
X904015Y616912D01*
X904013Y616918D01*
X902985Y617301D01*
X902977Y617299D01*
X902974Y617304D01*
X901887Y617449D01*
X901879Y617445D01*
X901875Y617449D01*
X900738Y617343D01*
X900732Y617338D01*
X900727Y617341D01*
X899642Y616985D01*
X899637Y616978D01*
X899632Y616981D01*
X898653Y616392D01*
X898650Y616384D01*
X898644Y616385D01*
X897821Y615593D01*
X897820Y615585D01*
X897814Y615585D01*
X897187Y614630D01*
X897188Y614622D01*
X897182Y614620D01*
X896784Y613550D01*
X896786Y613542D01*
X896781Y613539D01*
X896631Y612406D01*
X896634Y612402D01*
X896631Y612400D01*
X896631Y606400D01*
X896634Y606396D01*
X896631Y606394D01*
X896781Y605261D01*
X896787Y605255D01*
X896784Y605250D01*
X897182Y604180D01*
X897189Y604176D01*
X897187Y604170D01*
X897814Y603215D01*
X897822Y603212D01*
X897821Y603207D01*
X898644Y602415D01*
X898652Y602414D01*
X898653Y602408D01*
X899632Y601819D01*
X899640Y601820D01*
X899642Y601815D01*
X900727Y601459D01*
X900735Y601462D01*
X900738Y601457D01*
X901875Y601351D01*
X901882Y601355D01*
G37*
G36*
X528502Y601355D02*
X528502Y601355D01*
X528507Y601351D01*
X529594Y601496D01*
X529600Y601502D01*
X529605Y601499D01*
X530633Y601883D01*
X530638Y601889D01*
X530643Y601888D01*
X531560Y602490D01*
X531563Y602498D01*
X531569Y602497D01*
X532329Y603289D01*
X532330Y603297D01*
X532336Y603298D01*
X532900Y604239D01*
X532900Y604242D01*
X532901Y604243D01*
X532900Y604245D01*
X532899Y604247D01*
X532905Y604249D01*
X533246Y605292D01*
X533244Y605300D01*
X533248Y605303D01*
X533349Y606396D01*
X533347Y606398D01*
X533349Y606400D01*
X533349Y612400D01*
X533347Y612403D01*
X533349Y612405D01*
X533248Y613497D01*
X533243Y613503D01*
X533246Y613508D01*
X532905Y614551D01*
X532898Y614556D01*
X532900Y614561D01*
X532336Y615502D01*
X532328Y615505D01*
X532329Y615511D01*
X531569Y616303D01*
X531561Y616304D01*
X531560Y616310D01*
X530643Y616913D01*
X530635Y616912D01*
X530633Y616918D01*
X529605Y617301D01*
X529597Y617299D01*
X529594Y617304D01*
X528507Y617449D01*
X528499Y617445D01*
X528495Y617449D01*
X527358Y617343D01*
X527352Y617338D01*
X527347Y617341D01*
X526262Y616985D01*
X526257Y616978D01*
X526252Y616981D01*
X525273Y616392D01*
X525270Y616384D01*
X525264Y616385D01*
X524441Y615593D01*
X524440Y615585D01*
X524434Y615585D01*
X523807Y614630D01*
X523808Y614622D01*
X523802Y614620D01*
X523404Y613550D01*
X523406Y613542D01*
X523401Y613539D01*
X523251Y612406D01*
X523254Y612402D01*
X523251Y612400D01*
X523251Y606400D01*
X523254Y606396D01*
X523251Y606394D01*
X523401Y605261D01*
X523407Y605255D01*
X523404Y605250D01*
X523802Y604180D01*
X523809Y604176D01*
X523807Y604170D01*
X524434Y603215D01*
X524442Y603212D01*
X524441Y603207D01*
X525264Y602415D01*
X525272Y602414D01*
X525273Y602408D01*
X526252Y601819D01*
X526260Y601820D01*
X526262Y601815D01*
X527347Y601459D01*
X527355Y601462D01*
X527358Y601457D01*
X528495Y601351D01*
X528502Y601355D01*
G37*
G36*
X338002Y601355D02*
X338002Y601355D01*
X338007Y601351D01*
X339094Y601496D01*
X339100Y601502D01*
X339105Y601499D01*
X340133Y601883D01*
X340138Y601889D01*
X340143Y601888D01*
X341060Y602490D01*
X341063Y602498D01*
X341069Y602497D01*
X341829Y603289D01*
X341830Y603297D01*
X341836Y603298D01*
X342400Y604239D01*
X342400Y604242D01*
X342401Y604243D01*
X342400Y604245D01*
X342399Y604247D01*
X342405Y604249D01*
X342746Y605292D01*
X342744Y605300D01*
X342748Y605303D01*
X342849Y606396D01*
X342847Y606398D01*
X342849Y606400D01*
X342849Y612400D01*
X342847Y612403D01*
X342849Y612405D01*
X342748Y613497D01*
X342743Y613503D01*
X342746Y613508D01*
X342405Y614551D01*
X342398Y614556D01*
X342400Y614561D01*
X341836Y615502D01*
X341828Y615505D01*
X341829Y615511D01*
X341069Y616303D01*
X341061Y616304D01*
X341060Y616310D01*
X340143Y616913D01*
X340135Y616912D01*
X340133Y616918D01*
X339105Y617301D01*
X339097Y617299D01*
X339094Y617304D01*
X338007Y617449D01*
X337999Y617445D01*
X337995Y617449D01*
X336858Y617343D01*
X336852Y617338D01*
X336847Y617341D01*
X335762Y616985D01*
X335757Y616978D01*
X335752Y616981D01*
X334773Y616392D01*
X334770Y616384D01*
X334764Y616385D01*
X333941Y615593D01*
X333940Y615585D01*
X333934Y615585D01*
X333307Y614630D01*
X333308Y614622D01*
X333302Y614620D01*
X332904Y613550D01*
X332906Y613542D01*
X332901Y613539D01*
X332751Y612406D01*
X332754Y612402D01*
X332751Y612400D01*
X332751Y606400D01*
X332754Y606396D01*
X332751Y606394D01*
X332901Y605261D01*
X332907Y605255D01*
X332904Y605250D01*
X333302Y604180D01*
X333309Y604176D01*
X333307Y604170D01*
X333934Y603215D01*
X333942Y603212D01*
X333941Y603207D01*
X334764Y602415D01*
X334772Y602414D01*
X334773Y602408D01*
X335752Y601819D01*
X335760Y601820D01*
X335762Y601815D01*
X336847Y601459D01*
X336855Y601462D01*
X336858Y601457D01*
X337995Y601351D01*
X338002Y601355D01*
G37*
G36*
X134802Y601355D02*
X134802Y601355D01*
X134807Y601351D01*
X135894Y601496D01*
X135900Y601502D01*
X135905Y601499D01*
X136933Y601883D01*
X136938Y601889D01*
X136943Y601888D01*
X137860Y602490D01*
X137863Y602498D01*
X137869Y602497D01*
X138629Y603289D01*
X138630Y603297D01*
X138636Y603298D01*
X139200Y604239D01*
X139200Y604242D01*
X139201Y604243D01*
X139200Y604245D01*
X139199Y604247D01*
X139205Y604249D01*
X139546Y605292D01*
X139544Y605300D01*
X139548Y605303D01*
X139649Y606396D01*
X139647Y606398D01*
X139649Y606400D01*
X139649Y612400D01*
X139647Y612403D01*
X139649Y612405D01*
X139548Y613497D01*
X139543Y613503D01*
X139546Y613508D01*
X139205Y614551D01*
X139198Y614556D01*
X139200Y614561D01*
X138636Y615502D01*
X138628Y615505D01*
X138629Y615511D01*
X137869Y616303D01*
X137861Y616304D01*
X137860Y616310D01*
X136943Y616913D01*
X136935Y616912D01*
X136933Y616918D01*
X135905Y617301D01*
X135897Y617299D01*
X135894Y617304D01*
X134807Y617449D01*
X134799Y617445D01*
X134795Y617449D01*
X133658Y617343D01*
X133652Y617338D01*
X133647Y617341D01*
X132562Y616985D01*
X132557Y616978D01*
X132552Y616981D01*
X131573Y616392D01*
X131570Y616384D01*
X131564Y616385D01*
X130741Y615593D01*
X130740Y615585D01*
X130734Y615585D01*
X130107Y614630D01*
X130108Y614622D01*
X130102Y614620D01*
X129704Y613550D01*
X129706Y613542D01*
X129701Y613539D01*
X129551Y612406D01*
X129554Y612402D01*
X129551Y612400D01*
X129551Y606400D01*
X129554Y606396D01*
X129551Y606394D01*
X129701Y605261D01*
X129707Y605255D01*
X129704Y605250D01*
X130102Y604180D01*
X130109Y604176D01*
X130107Y604170D01*
X130734Y603215D01*
X130742Y603212D01*
X130741Y603207D01*
X131564Y602415D01*
X131572Y602414D01*
X131573Y602408D01*
X132552Y601819D01*
X132560Y601820D01*
X132562Y601815D01*
X133647Y601459D01*
X133655Y601462D01*
X133658Y601457D01*
X134795Y601351D01*
X134802Y601355D01*
G37*
G36*
X1295582Y4455D02*
X1295582Y4455D01*
X1295587Y4451D01*
X1296674Y4596D01*
X1296680Y4602D01*
X1296685Y4599D01*
X1297713Y4983D01*
X1297718Y4989D01*
X1297723Y4988D01*
X1298640Y5590D01*
X1298643Y5598D01*
X1298649Y5597D01*
X1299409Y6389D01*
X1299410Y6397D01*
X1299416Y6398D01*
X1299980Y7339D01*
X1299980Y7342D01*
X1299981Y7343D01*
X1299980Y7345D01*
X1299979Y7347D01*
X1299985Y7349D01*
X1300326Y8392D01*
X1300324Y8400D01*
X1300328Y8403D01*
X1300429Y9496D01*
X1300427Y9498D01*
X1300429Y9500D01*
X1300429Y15500D01*
X1300427Y15503D01*
X1300429Y15505D01*
X1300328Y16597D01*
X1300323Y16603D01*
X1300326Y16608D01*
X1299985Y17651D01*
X1299978Y17656D01*
X1299980Y17661D01*
X1299416Y18602D01*
X1299408Y18605D01*
X1299409Y18611D01*
X1298649Y19403D01*
X1298641Y19404D01*
X1298640Y19410D01*
X1297723Y20013D01*
X1297715Y20012D01*
X1297713Y20018D01*
X1296685Y20401D01*
X1296677Y20399D01*
X1296674Y20404D01*
X1295587Y20549D01*
X1295579Y20545D01*
X1295575Y20549D01*
X1294438Y20443D01*
X1294432Y20438D01*
X1294427Y20441D01*
X1293342Y20085D01*
X1293337Y20078D01*
X1293332Y20081D01*
X1292353Y19492D01*
X1292350Y19484D01*
X1292344Y19485D01*
X1291521Y18693D01*
X1291520Y18685D01*
X1291514Y18685D01*
X1290887Y17730D01*
X1290888Y17722D01*
X1290882Y17720D01*
X1290484Y16650D01*
X1290486Y16642D01*
X1290481Y16639D01*
X1290331Y15506D01*
X1290334Y15502D01*
X1290331Y15500D01*
X1290331Y9500D01*
X1290334Y9496D01*
X1290331Y9494D01*
X1290481Y8361D01*
X1290487Y8355D01*
X1290484Y8350D01*
X1290882Y7280D01*
X1290889Y7276D01*
X1290887Y7270D01*
X1291514Y6315D01*
X1291522Y6312D01*
X1291521Y6307D01*
X1292344Y5515D01*
X1292352Y5514D01*
X1292353Y5508D01*
X1293332Y4919D01*
X1293340Y4920D01*
X1293342Y4915D01*
X1294427Y4559D01*
X1294435Y4562D01*
X1294438Y4557D01*
X1295575Y4451D01*
X1295582Y4455D01*
G37*
G36*
X1105082Y4455D02*
X1105082Y4455D01*
X1105087Y4451D01*
X1106174Y4596D01*
X1106180Y4602D01*
X1106185Y4599D01*
X1107213Y4983D01*
X1107218Y4989D01*
X1107223Y4988D01*
X1108140Y5590D01*
X1108143Y5598D01*
X1108149Y5597D01*
X1108909Y6389D01*
X1108910Y6397D01*
X1108916Y6398D01*
X1109480Y7339D01*
X1109480Y7342D01*
X1109481Y7343D01*
X1109480Y7345D01*
X1109479Y7347D01*
X1109485Y7349D01*
X1109826Y8392D01*
X1109824Y8400D01*
X1109828Y8403D01*
X1109929Y9496D01*
X1109927Y9498D01*
X1109929Y9500D01*
X1109929Y15500D01*
X1109927Y15503D01*
X1109929Y15505D01*
X1109828Y16597D01*
X1109823Y16603D01*
X1109826Y16608D01*
X1109485Y17651D01*
X1109478Y17656D01*
X1109480Y17661D01*
X1108916Y18602D01*
X1108908Y18605D01*
X1108909Y18611D01*
X1108149Y19403D01*
X1108141Y19404D01*
X1108140Y19410D01*
X1107223Y20013D01*
X1107215Y20012D01*
X1107213Y20018D01*
X1106185Y20401D01*
X1106177Y20399D01*
X1106174Y20404D01*
X1105087Y20549D01*
X1105079Y20545D01*
X1105075Y20549D01*
X1103938Y20443D01*
X1103932Y20438D01*
X1103927Y20441D01*
X1102842Y20085D01*
X1102837Y20078D01*
X1102832Y20081D01*
X1101853Y19492D01*
X1101850Y19484D01*
X1101844Y19485D01*
X1101021Y18693D01*
X1101020Y18685D01*
X1101014Y18685D01*
X1100387Y17730D01*
X1100388Y17722D01*
X1100382Y17720D01*
X1099984Y16650D01*
X1099986Y16642D01*
X1099981Y16639D01*
X1099831Y15506D01*
X1099834Y15502D01*
X1099831Y15500D01*
X1099831Y9500D01*
X1099834Y9496D01*
X1099831Y9494D01*
X1099981Y8361D01*
X1099987Y8355D01*
X1099984Y8350D01*
X1100382Y7280D01*
X1100389Y7276D01*
X1100387Y7270D01*
X1101014Y6315D01*
X1101022Y6312D01*
X1101021Y6307D01*
X1101844Y5515D01*
X1101852Y5514D01*
X1101853Y5508D01*
X1102832Y4919D01*
X1102840Y4920D01*
X1102842Y4915D01*
X1103927Y4559D01*
X1103935Y4562D01*
X1103938Y4557D01*
X1105075Y4451D01*
X1105082Y4455D01*
G37*
G36*
X901882Y4455D02*
X901882Y4455D01*
X901887Y4451D01*
X902974Y4596D01*
X902980Y4602D01*
X902985Y4599D01*
X904013Y4983D01*
X904018Y4989D01*
X904023Y4988D01*
X904940Y5590D01*
X904943Y5598D01*
X904949Y5597D01*
X905709Y6389D01*
X905710Y6397D01*
X905716Y6398D01*
X906280Y7339D01*
X906280Y7342D01*
X906281Y7343D01*
X906280Y7345D01*
X906279Y7347D01*
X906285Y7349D01*
X906626Y8392D01*
X906624Y8400D01*
X906628Y8403D01*
X906729Y9496D01*
X906727Y9498D01*
X906729Y9500D01*
X906729Y15500D01*
X906727Y15503D01*
X906729Y15505D01*
X906628Y16597D01*
X906623Y16603D01*
X906626Y16608D01*
X906285Y17651D01*
X906278Y17656D01*
X906280Y17661D01*
X905716Y18602D01*
X905708Y18605D01*
X905709Y18611D01*
X904949Y19403D01*
X904941Y19404D01*
X904940Y19410D01*
X904023Y20013D01*
X904015Y20012D01*
X904013Y20018D01*
X902985Y20401D01*
X902977Y20399D01*
X902974Y20404D01*
X901887Y20549D01*
X901879Y20545D01*
X901875Y20549D01*
X900738Y20443D01*
X900732Y20438D01*
X900727Y20441D01*
X899642Y20085D01*
X899637Y20078D01*
X899632Y20081D01*
X898653Y19492D01*
X898650Y19484D01*
X898644Y19485D01*
X897821Y18693D01*
X897820Y18685D01*
X897814Y18685D01*
X897187Y17730D01*
X897188Y17722D01*
X897182Y17720D01*
X896784Y16650D01*
X896786Y16642D01*
X896781Y16639D01*
X896631Y15506D01*
X896634Y15502D01*
X896631Y15500D01*
X896631Y9500D01*
X896634Y9496D01*
X896631Y9494D01*
X896781Y8361D01*
X896787Y8355D01*
X896784Y8350D01*
X897182Y7280D01*
X897189Y7276D01*
X897187Y7270D01*
X897814Y6315D01*
X897822Y6312D01*
X897821Y6307D01*
X898644Y5515D01*
X898652Y5514D01*
X898653Y5508D01*
X899632Y4919D01*
X899640Y4920D01*
X899642Y4915D01*
X900727Y4559D01*
X900735Y4562D01*
X900738Y4557D01*
X901875Y4451D01*
X901882Y4455D01*
G37*
G36*
X528502Y4455D02*
X528502Y4455D01*
X528507Y4451D01*
X529594Y4596D01*
X529600Y4602D01*
X529605Y4599D01*
X530633Y4983D01*
X530638Y4989D01*
X530643Y4988D01*
X531560Y5590D01*
X531563Y5598D01*
X531569Y5597D01*
X532329Y6389D01*
X532330Y6397D01*
X532336Y6398D01*
X532900Y7339D01*
X532900Y7342D01*
X532901Y7343D01*
X532900Y7345D01*
X532899Y7347D01*
X532905Y7349D01*
X533246Y8392D01*
X533244Y8400D01*
X533248Y8403D01*
X533349Y9496D01*
X533347Y9498D01*
X533349Y9500D01*
X533349Y15500D01*
X533347Y15503D01*
X533349Y15505D01*
X533248Y16597D01*
X533243Y16603D01*
X533246Y16608D01*
X532905Y17651D01*
X532898Y17656D01*
X532900Y17661D01*
X532336Y18602D01*
X532328Y18605D01*
X532329Y18611D01*
X531569Y19403D01*
X531561Y19404D01*
X531560Y19410D01*
X530643Y20013D01*
X530635Y20012D01*
X530633Y20018D01*
X529605Y20401D01*
X529597Y20399D01*
X529594Y20404D01*
X528507Y20549D01*
X528499Y20545D01*
X528495Y20549D01*
X527358Y20443D01*
X527352Y20438D01*
X527347Y20441D01*
X526262Y20085D01*
X526257Y20078D01*
X526252Y20081D01*
X525273Y19492D01*
X525270Y19484D01*
X525264Y19485D01*
X524441Y18693D01*
X524440Y18685D01*
X524434Y18685D01*
X523807Y17730D01*
X523808Y17722D01*
X523802Y17720D01*
X523404Y16650D01*
X523406Y16642D01*
X523401Y16639D01*
X523251Y15506D01*
X523254Y15502D01*
X523251Y15500D01*
X523251Y9500D01*
X523254Y9496D01*
X523251Y9494D01*
X523401Y8361D01*
X523407Y8355D01*
X523404Y8350D01*
X523802Y7280D01*
X523809Y7276D01*
X523807Y7270D01*
X524434Y6315D01*
X524442Y6312D01*
X524441Y6307D01*
X525264Y5515D01*
X525272Y5514D01*
X525273Y5508D01*
X526252Y4919D01*
X526260Y4920D01*
X526262Y4915D01*
X527347Y4559D01*
X527355Y4562D01*
X527358Y4557D01*
X528495Y4451D01*
X528502Y4455D01*
G37*
G36*
X338002Y4455D02*
X338002Y4455D01*
X338007Y4451D01*
X339094Y4596D01*
X339100Y4602D01*
X339105Y4599D01*
X340133Y4983D01*
X340138Y4989D01*
X340143Y4988D01*
X341060Y5590D01*
X341063Y5598D01*
X341069Y5597D01*
X341829Y6389D01*
X341830Y6397D01*
X341836Y6398D01*
X342400Y7339D01*
X342400Y7342D01*
X342401Y7343D01*
X342400Y7345D01*
X342399Y7347D01*
X342405Y7349D01*
X342746Y8392D01*
X342744Y8400D01*
X342748Y8403D01*
X342849Y9496D01*
X342847Y9498D01*
X342849Y9500D01*
X342849Y15500D01*
X342847Y15503D01*
X342849Y15505D01*
X342748Y16597D01*
X342743Y16603D01*
X342746Y16608D01*
X342405Y17651D01*
X342398Y17656D01*
X342400Y17661D01*
X341836Y18602D01*
X341828Y18605D01*
X341829Y18611D01*
X341069Y19403D01*
X341061Y19404D01*
X341060Y19410D01*
X340143Y20013D01*
X340135Y20012D01*
X340133Y20018D01*
X339105Y20401D01*
X339097Y20399D01*
X339094Y20404D01*
X338007Y20549D01*
X337999Y20545D01*
X337995Y20549D01*
X336858Y20443D01*
X336852Y20438D01*
X336847Y20441D01*
X335762Y20085D01*
X335757Y20078D01*
X335752Y20081D01*
X334773Y19492D01*
X334770Y19484D01*
X334764Y19485D01*
X333941Y18693D01*
X333940Y18685D01*
X333934Y18685D01*
X333307Y17730D01*
X333308Y17722D01*
X333302Y17720D01*
X332904Y16650D01*
X332906Y16642D01*
X332901Y16639D01*
X332751Y15506D01*
X332754Y15502D01*
X332751Y15500D01*
X332751Y9500D01*
X332754Y9496D01*
X332751Y9494D01*
X332901Y8361D01*
X332907Y8355D01*
X332904Y8350D01*
X333302Y7280D01*
X333309Y7276D01*
X333307Y7270D01*
X333934Y6315D01*
X333942Y6312D01*
X333941Y6307D01*
X334764Y5515D01*
X334772Y5514D01*
X334773Y5508D01*
X335752Y4919D01*
X335760Y4920D01*
X335762Y4915D01*
X336847Y4559D01*
X336855Y4562D01*
X336858Y4557D01*
X337995Y4451D01*
X338002Y4455D01*
G37*
G36*
X134802Y4455D02*
X134802Y4455D01*
X134807Y4451D01*
X135894Y4596D01*
X135900Y4602D01*
X135905Y4599D01*
X136933Y4983D01*
X136938Y4989D01*
X136943Y4988D01*
X137860Y5590D01*
X137863Y5598D01*
X137869Y5597D01*
X138629Y6389D01*
X138630Y6397D01*
X138636Y6398D01*
X139200Y7339D01*
X139200Y7342D01*
X139201Y7343D01*
X139200Y7345D01*
X139199Y7347D01*
X139205Y7349D01*
X139546Y8392D01*
X139544Y8400D01*
X139548Y8403D01*
X139649Y9496D01*
X139647Y9498D01*
X139649Y9500D01*
X139649Y15500D01*
X139647Y15503D01*
X139649Y15505D01*
X139548Y16597D01*
X139543Y16603D01*
X139546Y16608D01*
X139205Y17651D01*
X139198Y17656D01*
X139200Y17661D01*
X138636Y18602D01*
X138628Y18605D01*
X138629Y18611D01*
X137869Y19403D01*
X137861Y19404D01*
X137860Y19410D01*
X136943Y20013D01*
X136935Y20012D01*
X136933Y20018D01*
X135905Y20401D01*
X135897Y20399D01*
X135894Y20404D01*
X134807Y20549D01*
X134799Y20545D01*
X134795Y20549D01*
X133658Y20443D01*
X133652Y20438D01*
X133647Y20441D01*
X132562Y20085D01*
X132557Y20078D01*
X132552Y20081D01*
X131573Y19492D01*
X131570Y19484D01*
X131564Y19485D01*
X130741Y18693D01*
X130740Y18685D01*
X130734Y18685D01*
X130107Y17730D01*
X130108Y17722D01*
X130102Y17720D01*
X129704Y16650D01*
X129706Y16642D01*
X129701Y16639D01*
X129551Y15506D01*
X129554Y15502D01*
X129551Y15500D01*
X129551Y9500D01*
X129554Y9496D01*
X129551Y9494D01*
X129701Y8361D01*
X129707Y8355D01*
X129704Y8350D01*
X130102Y7280D01*
X130109Y7276D01*
X130107Y7270D01*
X130734Y6315D01*
X130742Y6312D01*
X130741Y6307D01*
X131564Y5515D01*
X131572Y5514D01*
X131573Y5508D01*
X132552Y4919D01*
X132560Y4920D01*
X132562Y4915D01*
X133647Y4559D01*
X133655Y4562D01*
X133658Y4557D01*
X134795Y4451D01*
X134802Y4455D01*
G37*
D10*
X388500Y60100D03*
X383500Y60100D03*
D11*
X413250Y60100D03*
X405500Y60100D03*
D10*
X398500Y60100D03*
X393500Y60100D03*
X373500Y60100D03*
X378500Y60100D03*
D11*
X348750Y60100D03*
X356500Y60100D03*
D10*
X363500Y60100D03*
X368500Y60100D03*
D12*
X297570Y92710D03*
X314570Y92710D03*
X465700Y76200D03*
X448700Y76200D03*
D13*
X101600Y171450D03*
D14*
X111350Y185200D03*
X104850Y185200D03*
X98350Y185200D03*
X91850Y185200D03*
X91850Y157700D03*
X98350Y157700D03*
X104850Y157700D03*
X111350Y157700D03*
D12*
X110100Y109220D03*
X93100Y109220D03*
X668900Y203200D03*
X651900Y203200D03*
X668900Y177800D03*
X651900Y177800D03*
D15*
X685800Y148590D03*
X685800Y92710D03*
X647700Y148590D03*
X647700Y92710D03*
D12*
X110100Y124460D03*
X93100Y124460D03*
D16*
X457200Y53100D03*
X457200Y23100D03*
D12*
X93100Y139700D03*
X110100Y139700D03*
X74050Y381000D03*
X91050Y381000D03*
D17*
X13780Y384500D02*
X13780Y377500D01*
X6780Y377500D01*
X6780Y384500D01*
X13780Y384500D01*
X13780Y380350D02*
X6780Y380350D01*
X6780Y383200D02*
X13780Y383200D01*
X31320Y384500D02*
X31320Y377500D01*
X24320Y377500D01*
X24320Y384500D01*
X31320Y384500D01*
X31320Y380350D02*
X24320Y380350D01*
X24320Y383200D02*
X31320Y383200D01*
D12*
X110100Y203200D03*
X93100Y203200D03*
X110100Y218440D03*
X93100Y218440D03*
X110100Y233680D03*
X93100Y233680D03*
X74050Y361950D03*
X91050Y361950D03*
D17*
X13780Y365450D02*
X13780Y358450D01*
X6780Y358450D01*
X6780Y365450D01*
X13780Y365450D01*
X13780Y361300D02*
X6780Y361300D01*
X6780Y364150D02*
X13780Y364150D01*
X31320Y365450D02*
X31320Y358450D01*
X24320Y358450D01*
X24320Y365450D01*
X31320Y365450D01*
X31320Y361300D02*
X24320Y361300D01*
X24320Y364150D02*
X31320Y364150D01*
D18*
X629920Y112150D03*
X629920Y129150D03*
X614680Y112150D03*
X614680Y129150D03*
D19*
X271000Y298300D03*
X282000Y298300D03*
X293000Y298300D03*
X304000Y298300D03*
X315000Y298300D03*
X326000Y298300D03*
X337000Y298300D03*
X348000Y298300D03*
X359000Y298300D03*
X370000Y298300D03*
X381000Y298300D03*
X392000Y298300D03*
X403000Y298300D03*
X414000Y298300D03*
X425000Y298300D03*
X436000Y298300D03*
X447000Y298300D03*
X458000Y298300D03*
X469000Y298300D03*
X480000Y298300D03*
X491000Y298300D03*
D20*
X501000Y313300D03*
X501000Y324300D03*
X501000Y335300D03*
X501000Y346300D03*
X501000Y357300D03*
X501000Y368300D03*
X501000Y379300D03*
X501000Y390300D03*
X501000Y401300D03*
X501000Y412300D03*
X501000Y423300D03*
D19*
X491000Y438300D03*
X480000Y438300D03*
X469000Y438300D03*
X458000Y438300D03*
X447000Y438300D03*
X436000Y438300D03*
X425000Y438300D03*
X414000Y438300D03*
X403000Y438300D03*
X392000Y438300D03*
X381000Y438300D03*
X370000Y438300D03*
X359000Y438300D03*
X348000Y438300D03*
X337000Y438300D03*
X326000Y438300D03*
X315000Y438300D03*
X304000Y438300D03*
X293000Y438300D03*
X282000Y438300D03*
X271000Y438300D03*
D20*
X261000Y423300D03*
X261000Y412300D03*
X261000Y401300D03*
X261000Y390300D03*
X261000Y379300D03*
X261000Y368300D03*
X261000Y357300D03*
X261000Y346300D03*
X261000Y335300D03*
X261000Y324300D03*
X261000Y313300D03*
D21*
X278500Y315800D03*
X278500Y336800D03*
X278500Y357800D03*
X278500Y378800D03*
X278500Y399800D03*
X278500Y420800D03*
X296500Y315800D03*
X296500Y336800D03*
X296500Y357800D03*
X296500Y378800D03*
X296500Y399800D03*
X296500Y420800D03*
X314500Y315800D03*
X314500Y420800D03*
X350500Y315800D03*
X350500Y420800D03*
X483500Y420800D03*
X483500Y399800D03*
X483500Y378800D03*
X483500Y357800D03*
X483500Y336800D03*
X483500Y315800D03*
X465500Y420800D03*
X465500Y399800D03*
X465500Y378800D03*
X465500Y357800D03*
X465500Y336800D03*
X465500Y315800D03*
X447500Y420800D03*
X447500Y315800D03*
X411500Y420800D03*
X411500Y315800D03*
D22*
X629650Y361950D03*
X629650Y349250D03*
X629650Y336550D03*
X629650Y323850D03*
X629650Y311150D03*
X629650Y298450D03*
D23*
X693850Y283300D03*
X636350Y283300D03*
X636350Y376800D03*
X693850Y376800D03*
D24*
X751050Y285550D03*
X751050Y374850D03*
D25*
X419100Y464750D03*
X428600Y464750D03*
X409600Y464750D03*
X428600Y487750D03*
X419100Y487750D03*
X409600Y487750D03*
D18*
X392430Y465210D03*
X392430Y482210D03*
X461010Y465210D03*
X461010Y482210D03*
X445770Y482210D03*
X445770Y465210D03*
X377190Y482210D03*
X377190Y465210D03*
X361950Y482210D03*
X361950Y465210D03*
X297180Y461400D03*
X297180Y478400D03*
X281940Y461400D03*
X281940Y478400D03*
X266700Y461400D03*
X266700Y478400D03*
D26*
X195580Y392557D03*
X195580Y401193D03*
X233680Y400812D03*
X233680Y409448D03*
D27*
X219630Y401320D03*
X209630Y401320D03*
D28*
X197570Y335280D03*
X185970Y335280D03*
D12*
X230750Y335280D03*
X213750Y335280D03*
D28*
X197570Y355600D03*
X185970Y355600D03*
D29*
X596290Y239729D03*
X605790Y239729D03*
X615290Y239729D03*
X615290Y265731D03*
X596290Y265731D03*
D12*
X596510Y295910D03*
X579510Y295910D03*
X596510Y311150D03*
X579510Y311150D03*
D18*
X596900Y380120D03*
X596900Y397120D03*
X596900Y328050D03*
X596900Y345050D03*
D12*
X596510Y361950D03*
X579510Y361950D03*
D18*
X579755Y207890D03*
X579755Y190890D03*
D30*
X533400Y412030D03*
X533400Y423630D03*
D31*
X553600Y333000D03*
X548600Y333000D03*
X543600Y333000D03*
X538600Y333000D03*
X553600Y302000D03*
X548600Y302000D03*
X543600Y302000D03*
X538600Y302000D03*
D18*
X548640Y281550D03*
X548640Y264550D03*
X448310Y230750D03*
X448310Y213750D03*
D12*
X291710Y193040D03*
X274710Y193040D03*
D32*
X457560Y247500D03*
X457560Y260500D03*
X439060Y254000D03*
D18*
X472440Y213750D03*
X472440Y230750D03*
D33*
X524660Y212750D03*
X511660Y212750D03*
X524660Y231750D03*
X511660Y231750D03*
X518160Y231750D03*
D32*
X495660Y247500D03*
X495660Y260500D03*
X477160Y254000D03*
D18*
X495300Y213750D03*
X495300Y230750D03*
D34*
X508430Y474900D03*
X508430Y464900D03*
X519930Y469900D03*
D18*
X488950Y465210D03*
X488950Y482210D03*
D12*
X524120Y488950D03*
X507120Y488950D03*
X287410Y275590D03*
X304410Y275590D03*
D32*
X117960Y295550D03*
X130960Y295550D03*
X124460Y314050D03*
D18*
X118110Y264550D03*
X118110Y281550D03*
D12*
X91050Y400050D03*
X74050Y400050D03*
D17*
X24320Y396550D02*
X24320Y403550D01*
X31320Y403550D01*
X31320Y396550D01*
X24320Y396550D01*
X24320Y399400D02*
X31320Y399400D01*
X31320Y402250D02*
X24320Y402250D01*
X6780Y403550D02*
X6780Y396550D01*
X6780Y403550D02*
X13780Y403550D01*
X13780Y396550D01*
X6780Y396550D01*
X6780Y399400D02*
X13780Y399400D01*
X13780Y402250D02*
X6780Y402250D01*
D32*
X145900Y295550D03*
X158900Y295550D03*
X152400Y314050D03*
D18*
X146050Y264550D03*
X146050Y281550D03*
D12*
X91050Y419100D03*
X74050Y419100D03*
D17*
X24320Y415600D02*
X24320Y422600D01*
X31320Y422600D01*
X31320Y415600D01*
X24320Y415600D01*
X24320Y418450D02*
X31320Y418450D01*
X31320Y421300D02*
X24320Y421300D01*
X6780Y422600D02*
X6780Y415600D01*
X6780Y422600D02*
X13780Y422600D01*
X13780Y415600D01*
X6780Y415600D01*
X6780Y418450D02*
X13780Y418450D01*
X13780Y421300D02*
X6780Y421300D01*
D12*
X427600Y274320D03*
X410600Y274320D03*
X377580Y274320D03*
X394580Y274320D03*
X74050Y279400D03*
X91050Y279400D03*
X74050Y304800D03*
X91050Y304800D03*
D18*
X190500Y264550D03*
X190500Y281550D03*
D15*
X749300Y148590D03*
X749300Y92710D03*
X711200Y148590D03*
X711200Y92710D03*
D32*
X173840Y295550D03*
X186840Y295550D03*
X180340Y314050D03*
D18*
X173990Y264550D03*
X173990Y281550D03*
D12*
X91050Y438150D03*
X74050Y438150D03*
D17*
X24320Y434650D02*
X24320Y441650D01*
X31320Y441650D01*
X31320Y434650D01*
X24320Y434650D01*
X24320Y437500D02*
X31320Y437500D01*
X31320Y440350D02*
X24320Y440350D01*
X6780Y441650D02*
X6780Y434650D01*
X6780Y441650D02*
X13780Y441650D01*
X13780Y434650D01*
X6780Y434650D01*
X6780Y437500D02*
X13780Y437500D01*
X13780Y440350D02*
X6780Y440350D01*
D18*
X251460Y461400D03*
X251460Y478400D03*
D35*
X427880Y250230D03*
X421380Y250230D03*
X414880Y250230D03*
D36*
X408380Y250105D03*
X401880Y250105D03*
X395380Y250105D03*
X388880Y250105D03*
X382380Y250105D03*
D35*
X427880Y191730D03*
X421380Y191730D03*
X414880Y191730D03*
X408380Y191730D03*
X401880Y191730D03*
X395380Y191730D03*
X388880Y191730D03*
X382380Y191730D03*
X360570Y250230D03*
X354070Y250230D03*
X347570Y250230D03*
D36*
X341070Y250105D03*
X334570Y250105D03*
X328070Y250105D03*
X321570Y250105D03*
X315070Y250105D03*
D35*
X360570Y191730D03*
X354070Y191730D03*
X347570Y191730D03*
X341070Y191730D03*
X334570Y191730D03*
X328070Y191730D03*
X321570Y191730D03*
X315070Y191730D03*
D32*
X543835Y197000D03*
X543835Y184000D03*
X562335Y190500D03*
D18*
X543560Y230750D03*
X543560Y213750D03*
D12*
X597290Y222250D03*
X614290Y222250D03*
D32*
X599290Y188870D03*
X612290Y188870D03*
X605790Y207370D03*
D37*
X165100Y426100D03*
D38*
X122050Y473000D03*
X208150Y473000D03*
D37*
X596900Y426100D03*
D38*
X553850Y473000D03*
X639950Y473000D03*
D10*
X185300Y60100D03*
X180300Y60100D03*
D11*
X210050Y60100D03*
X202300Y60100D03*
D10*
X195300Y60100D03*
X190300Y60100D03*
X170300Y60100D03*
X175300Y60100D03*
D11*
X145550Y60100D03*
X153300Y60100D03*
D10*
X160300Y60100D03*
X165300Y60100D03*
D12*
X147710Y76200D03*
X164710Y76200D03*
X209160Y76200D03*
X192160Y76200D03*
D16*
X254000Y53100D03*
X254000Y23100D03*
D10*
X579000Y60100D03*
X574000Y60100D03*
D11*
X603750Y60100D03*
X596000Y60100D03*
D10*
X589000Y60100D03*
X584000Y60100D03*
X564000Y60100D03*
X569000Y60100D03*
D11*
X539250Y60100D03*
X547000Y60100D03*
D10*
X554000Y60100D03*
X559000Y60100D03*
D12*
X541410Y76200D03*
X558410Y76200D03*
X601590Y76200D03*
X584590Y76200D03*
D16*
X647700Y53100D03*
X647700Y23100D03*
D39*
X482600Y49600D03*
X482600Y26600D03*
X279400Y49600D03*
X279400Y26600D03*
X673100Y49600D03*
X673100Y26600D03*
D25*
X336550Y76140D03*
X349250Y76140D03*
X361950Y76140D03*
X374650Y76140D03*
X387350Y76140D03*
X400050Y76140D03*
X412750Y76140D03*
X425450Y76140D03*
X425450Y132140D03*
X412750Y132140D03*
X400050Y132140D03*
X387350Y132140D03*
X374650Y132140D03*
X361950Y132140D03*
X349250Y132140D03*
X336550Y132140D03*
D40*
X167800Y94850D03*
X172800Y94850D03*
X177800Y94850D03*
X182800Y94850D03*
X187800Y94850D03*
X187800Y140100D03*
X182800Y140100D03*
X177800Y140100D03*
X172800Y140100D03*
X167800Y140100D03*
D12*
X74050Y342900D03*
X91050Y342900D03*
D17*
X13780Y346400D02*
X13780Y339400D01*
X6780Y339400D01*
X6780Y346400D01*
X13780Y346400D01*
X13780Y342250D02*
X6780Y342250D01*
X6780Y345100D02*
X13780Y345100D01*
X31320Y346400D02*
X31320Y339400D01*
X24320Y339400D01*
X24320Y346400D01*
X31320Y346400D01*
X31320Y342250D02*
X24320Y342250D01*
X24320Y345100D02*
X31320Y345100D01*
D12*
X74050Y323850D03*
X91050Y323850D03*
D17*
X13780Y327350D02*
X13780Y320350D01*
X6780Y320350D01*
X6780Y327350D01*
X13780Y327350D01*
X13780Y323200D02*
X6780Y323200D01*
X6780Y326050D02*
X13780Y326050D01*
X31320Y327350D02*
X31320Y320350D01*
X24320Y320350D01*
X24320Y327350D01*
X31320Y327350D01*
X31320Y323200D02*
X24320Y323200D01*
X24320Y326050D02*
X31320Y326050D01*
D18*
X689610Y46600D03*
X689610Y29600D03*
D12*
X314570Y109220D03*
X297570Y109220D03*
X164710Y155575D03*
X147710Y155575D03*
D16*
X101600Y23100D03*
X101600Y53100D03*
D39*
X76200Y49600D03*
X76200Y26600D03*
D41*
X110600Y92710D03*
X92600Y92710D03*
D12*
X279010Y92710D03*
X262010Y92710D03*
X279010Y109220D03*
X262010Y109220D03*
D10*
X1155580Y60100D03*
X1150580Y60100D03*
D11*
X1180330Y60100D03*
X1172580Y60100D03*
D10*
X1165580Y60100D03*
X1160580Y60100D03*
X1140580Y60100D03*
X1145580Y60100D03*
D11*
X1115830Y60100D03*
X1123580Y60100D03*
D10*
X1130580Y60100D03*
X1135580Y60100D03*
D12*
X1064650Y92710D03*
X1081650Y92710D03*
X1232780Y76200D03*
X1215780Y76200D03*
D13*
X868680Y171450D03*
D14*
X878430Y185200D03*
X871930Y185200D03*
X865430Y185200D03*
X858930Y185200D03*
X858930Y157700D03*
X865430Y157700D03*
X871930Y157700D03*
X878430Y157700D03*
D12*
X877180Y109220D03*
X860180Y109220D03*
X1435980Y203200D03*
X1418980Y203200D03*
X1435980Y177800D03*
X1418980Y177800D03*
D15*
X1452880Y148590D03*
X1452880Y92710D03*
X1414780Y148590D03*
X1414780Y92710D03*
D12*
X877180Y124460D03*
X860180Y124460D03*
D16*
X1224280Y53100D03*
X1224280Y23100D03*
D12*
X860180Y139700D03*
X877180Y139700D03*
X841130Y381000D03*
X858130Y381000D03*
D17*
X780860Y384500D02*
X780860Y377500D01*
X773860Y377500D01*
X773860Y384500D01*
X780860Y384500D01*
X780860Y380350D02*
X773860Y380350D01*
X773860Y383200D02*
X780860Y383200D01*
X798400Y384500D02*
X798400Y377500D01*
X791400Y377500D01*
X791400Y384500D01*
X798400Y384500D01*
X798400Y380350D02*
X791400Y380350D01*
X791400Y383200D02*
X798400Y383200D01*
D12*
X877180Y203200D03*
X860180Y203200D03*
X877180Y218440D03*
X860180Y218440D03*
X877180Y233680D03*
X860180Y233680D03*
X841130Y361950D03*
X858130Y361950D03*
D17*
X780860Y365450D02*
X780860Y358450D01*
X773860Y358450D01*
X773860Y365450D01*
X780860Y365450D01*
X780860Y361300D02*
X773860Y361300D01*
X773860Y364150D02*
X780860Y364150D01*
X798400Y365450D02*
X798400Y358450D01*
X791400Y358450D01*
X791400Y365450D01*
X798400Y365450D01*
X798400Y361300D02*
X791400Y361300D01*
X791400Y364150D02*
X798400Y364150D01*
D18*
X1397000Y112150D03*
X1397000Y129150D03*
X1381760Y112150D03*
X1381760Y129150D03*
D19*
X1038080Y298300D03*
X1049080Y298300D03*
X1060080Y298300D03*
X1071080Y298300D03*
X1082080Y298300D03*
X1093080Y298300D03*
X1104080Y298300D03*
X1115080Y298300D03*
X1126080Y298300D03*
X1137080Y298300D03*
X1148080Y298300D03*
X1159080Y298300D03*
X1170080Y298300D03*
X1181080Y298300D03*
X1192080Y298300D03*
X1203080Y298300D03*
X1214080Y298300D03*
X1225080Y298300D03*
X1236080Y298300D03*
X1247080Y298300D03*
X1258080Y298300D03*
D20*
X1268080Y313300D03*
X1268080Y324300D03*
X1268080Y335300D03*
X1268080Y346300D03*
X1268080Y357300D03*
X1268080Y368300D03*
X1268080Y379300D03*
X1268080Y390300D03*
X1268080Y401300D03*
X1268080Y412300D03*
X1268080Y423300D03*
D19*
X1258080Y438300D03*
X1247080Y438300D03*
X1236080Y438300D03*
X1225080Y438300D03*
X1214080Y438300D03*
X1203080Y438300D03*
X1192080Y438300D03*
X1181080Y438300D03*
X1170080Y438300D03*
X1159080Y438300D03*
X1148080Y438300D03*
X1137080Y438300D03*
X1126080Y438300D03*
X1115080Y438300D03*
X1104080Y438300D03*
X1093080Y438300D03*
X1082080Y438300D03*
X1071080Y438300D03*
X1060080Y438300D03*
X1049080Y438300D03*
X1038080Y438300D03*
D20*
X1028080Y423300D03*
X1028080Y412300D03*
X1028080Y401300D03*
X1028080Y390300D03*
X1028080Y379300D03*
X1028080Y368300D03*
X1028080Y357300D03*
X1028080Y346300D03*
X1028080Y335300D03*
X1028080Y324300D03*
X1028080Y313300D03*
D21*
X1045580Y315800D03*
X1045580Y336800D03*
X1045580Y357800D03*
X1045580Y378800D03*
X1045580Y399800D03*
X1045580Y420800D03*
X1063580Y315800D03*
X1063580Y336800D03*
X1063580Y357800D03*
X1063580Y378800D03*
X1063580Y399800D03*
X1063580Y420800D03*
X1081580Y315800D03*
X1081580Y420800D03*
X1117580Y315800D03*
X1117580Y420800D03*
X1250580Y420800D03*
X1250580Y399800D03*
X1250580Y378800D03*
X1250580Y357800D03*
X1250580Y336800D03*
X1250580Y315800D03*
X1232580Y420800D03*
X1232580Y399800D03*
X1232580Y378800D03*
X1232580Y357800D03*
X1232580Y336800D03*
X1232580Y315800D03*
X1214580Y420800D03*
X1214580Y315800D03*
X1178580Y420800D03*
X1178580Y315800D03*
D22*
X1396730Y361950D03*
X1396730Y349250D03*
X1396730Y336550D03*
X1396730Y323850D03*
X1396730Y311150D03*
X1396730Y298450D03*
D23*
X1460930Y283300D03*
X1403430Y283300D03*
X1403430Y376800D03*
X1460930Y376800D03*
D24*
X1518130Y285550D03*
X1518130Y374850D03*
D25*
X1186180Y464750D03*
X1195680Y464750D03*
X1176680Y464750D03*
X1195680Y487750D03*
X1186180Y487750D03*
X1176680Y487750D03*
D18*
X1159510Y465210D03*
X1159510Y482210D03*
X1228090Y465210D03*
X1228090Y482210D03*
X1212850Y482210D03*
X1212850Y465210D03*
X1144270Y482210D03*
X1144270Y465210D03*
X1129030Y482210D03*
X1129030Y465210D03*
X1064260Y461400D03*
X1064260Y478400D03*
X1049020Y461400D03*
X1049020Y478400D03*
X1033780Y461400D03*
X1033780Y478400D03*
D26*
X962660Y392557D03*
X962660Y401193D03*
X1000760Y400812D03*
X1000760Y409448D03*
D27*
X986710Y401320D03*
X976710Y401320D03*
D28*
X964650Y335280D03*
X953050Y335280D03*
D12*
X997830Y335280D03*
X980830Y335280D03*
D28*
X964650Y355600D03*
X953050Y355600D03*
D29*
X1363370Y239729D03*
X1372870Y239729D03*
X1382370Y239729D03*
X1382370Y265731D03*
X1363370Y265731D03*
D12*
X1363590Y295910D03*
X1346590Y295910D03*
X1363590Y311150D03*
X1346590Y311150D03*
D18*
X1363980Y380120D03*
X1363980Y397120D03*
X1363980Y328050D03*
X1363980Y345050D03*
D12*
X1363590Y361950D03*
X1346590Y361950D03*
D18*
X1346835Y207890D03*
X1346835Y190890D03*
D30*
X1300480Y412030D03*
X1300480Y423630D03*
D31*
X1320680Y333000D03*
X1315680Y333000D03*
X1310680Y333000D03*
X1305680Y333000D03*
X1320680Y302000D03*
X1315680Y302000D03*
X1310680Y302000D03*
X1305680Y302000D03*
D18*
X1315720Y281550D03*
X1315720Y264550D03*
X1215390Y230750D03*
X1215390Y213750D03*
D12*
X1058790Y193040D03*
X1041790Y193040D03*
D32*
X1224640Y247500D03*
X1224640Y260500D03*
X1206140Y254000D03*
D18*
X1239520Y213750D03*
X1239520Y230750D03*
D33*
X1291740Y212750D03*
X1278740Y212750D03*
X1291740Y231750D03*
X1278740Y231750D03*
X1285240Y231750D03*
D32*
X1262740Y247500D03*
X1262740Y260500D03*
X1244240Y254000D03*
D18*
X1262380Y213750D03*
X1262380Y230750D03*
D34*
X1275510Y474900D03*
X1275510Y464900D03*
X1287010Y469900D03*
D18*
X1256030Y465210D03*
X1256030Y482210D03*
D12*
X1291200Y488950D03*
X1274200Y488950D03*
X1054490Y275590D03*
X1071490Y275590D03*
D32*
X885040Y295550D03*
X898040Y295550D03*
X891540Y314050D03*
D18*
X885190Y264550D03*
X885190Y281550D03*
D12*
X858130Y400050D03*
X841130Y400050D03*
D17*
X791400Y396550D02*
X791400Y403550D01*
X798400Y403550D01*
X798400Y396550D01*
X791400Y396550D01*
X791400Y399400D02*
X798400Y399400D01*
X798400Y402250D02*
X791400Y402250D01*
X773860Y403550D02*
X773860Y396550D01*
X773860Y403550D02*
X780860Y403550D01*
X780860Y396550D01*
X773860Y396550D01*
X773860Y399400D02*
X780860Y399400D01*
X780860Y402250D02*
X773860Y402250D01*
D32*
X912980Y295550D03*
X925980Y295550D03*
X919480Y314050D03*
D18*
X913130Y264550D03*
X913130Y281550D03*
D12*
X858130Y419100D03*
X841130Y419100D03*
D17*
X791400Y415600D02*
X791400Y422600D01*
X798400Y422600D01*
X798400Y415600D01*
X791400Y415600D01*
X791400Y418450D02*
X798400Y418450D01*
X798400Y421300D02*
X791400Y421300D01*
X773860Y422600D02*
X773860Y415600D01*
X773860Y422600D02*
X780860Y422600D01*
X780860Y415600D01*
X773860Y415600D01*
X773860Y418450D02*
X780860Y418450D01*
X780860Y421300D02*
X773860Y421300D01*
D12*
X1194680Y274320D03*
X1177680Y274320D03*
X1144660Y274320D03*
X1161660Y274320D03*
X841130Y279400D03*
X858130Y279400D03*
X841130Y304800D03*
X858130Y304800D03*
D18*
X957580Y264550D03*
X957580Y281550D03*
D15*
X1516380Y148590D03*
X1516380Y92710D03*
X1478280Y148590D03*
X1478280Y92710D03*
D32*
X940920Y295550D03*
X953920Y295550D03*
X947420Y314050D03*
D18*
X941070Y264550D03*
X941070Y281550D03*
D12*
X858130Y438150D03*
X841130Y438150D03*
D17*
X791400Y434650D02*
X791400Y441650D01*
X798400Y441650D01*
X798400Y434650D01*
X791400Y434650D01*
X791400Y437500D02*
X798400Y437500D01*
X798400Y440350D02*
X791400Y440350D01*
X773860Y441650D02*
X773860Y434650D01*
X773860Y441650D02*
X780860Y441650D01*
X780860Y434650D01*
X773860Y434650D01*
X773860Y437500D02*
X780860Y437500D01*
X780860Y440350D02*
X773860Y440350D01*
D18*
X1018540Y461400D03*
X1018540Y478400D03*
D35*
X1194960Y250230D03*
X1188460Y250230D03*
X1181960Y250230D03*
D36*
X1175460Y250105D03*
X1168960Y250105D03*
X1162460Y250105D03*
X1155960Y250105D03*
X1149460Y250105D03*
D35*
X1194960Y191730D03*
X1188460Y191730D03*
X1181960Y191730D03*
X1175460Y191730D03*
X1168960Y191730D03*
X1162460Y191730D03*
X1155960Y191730D03*
X1149460Y191730D03*
X1127650Y250230D03*
X1121150Y250230D03*
X1114650Y250230D03*
D36*
X1108150Y250105D03*
X1101650Y250105D03*
X1095150Y250105D03*
X1088650Y250105D03*
X1082150Y250105D03*
D35*
X1127650Y191730D03*
X1121150Y191730D03*
X1114650Y191730D03*
X1108150Y191730D03*
X1101650Y191730D03*
X1095150Y191730D03*
X1088650Y191730D03*
X1082150Y191730D03*
D32*
X1310915Y197000D03*
X1310915Y184000D03*
X1329415Y190500D03*
D18*
X1310640Y230750D03*
X1310640Y213750D03*
D12*
X1364370Y222250D03*
X1381370Y222250D03*
D32*
X1366370Y188870D03*
X1379370Y188870D03*
X1372870Y207370D03*
D37*
X932180Y426100D03*
D38*
X889130Y473000D03*
X975230Y473000D03*
D37*
X1363980Y426100D03*
D38*
X1320930Y473000D03*
X1407030Y473000D03*
D10*
X952380Y60100D03*
X947380Y60100D03*
D11*
X977130Y60100D03*
X969380Y60100D03*
D10*
X962380Y60100D03*
X957380Y60100D03*
X937380Y60100D03*
X942380Y60100D03*
D11*
X912630Y60100D03*
X920380Y60100D03*
D10*
X927380Y60100D03*
X932380Y60100D03*
D12*
X914790Y76200D03*
X931790Y76200D03*
X976240Y76200D03*
X959240Y76200D03*
D16*
X1021080Y53100D03*
X1021080Y23100D03*
D10*
X1346080Y60100D03*
X1341080Y60100D03*
D11*
X1370830Y60100D03*
X1363080Y60100D03*
D10*
X1356080Y60100D03*
X1351080Y60100D03*
X1331080Y60100D03*
X1336080Y60100D03*
D11*
X1306330Y60100D03*
X1314080Y60100D03*
D10*
X1321080Y60100D03*
X1326080Y60100D03*
D12*
X1308490Y76200D03*
X1325490Y76200D03*
X1368670Y76200D03*
X1351670Y76200D03*
D16*
X1414780Y53100D03*
X1414780Y23100D03*
D39*
X1249680Y49600D03*
X1249680Y26600D03*
X1046480Y49600D03*
X1046480Y26600D03*
X1440180Y49600D03*
X1440180Y26600D03*
D25*
X1103630Y76140D03*
X1116330Y76140D03*
X1129030Y76140D03*
X1141730Y76140D03*
X1154430Y76140D03*
X1167130Y76140D03*
X1179830Y76140D03*
X1192530Y76140D03*
X1192530Y132140D03*
X1179830Y132140D03*
X1167130Y132140D03*
X1154430Y132140D03*
X1141730Y132140D03*
X1129030Y132140D03*
X1116330Y132140D03*
X1103630Y132140D03*
D40*
X934880Y94850D03*
X939880Y94850D03*
X944880Y94850D03*
X949880Y94850D03*
X954880Y94850D03*
X954880Y140100D03*
X949880Y140100D03*
X944880Y140100D03*
X939880Y140100D03*
X934880Y140100D03*
D12*
X841130Y342900D03*
X858130Y342900D03*
D17*
X780860Y346400D02*
X780860Y339400D01*
X773860Y339400D01*
X773860Y346400D01*
X780860Y346400D01*
X780860Y342250D02*
X773860Y342250D01*
X773860Y345100D02*
X780860Y345100D01*
X798400Y346400D02*
X798400Y339400D01*
X791400Y339400D01*
X791400Y346400D01*
X798400Y346400D01*
X798400Y342250D02*
X791400Y342250D01*
X791400Y345100D02*
X798400Y345100D01*
D12*
X841130Y323850D03*
X858130Y323850D03*
D17*
X780860Y327350D02*
X780860Y320350D01*
X773860Y320350D01*
X773860Y327350D01*
X780860Y327350D01*
X780860Y323200D02*
X773860Y323200D01*
X773860Y326050D02*
X780860Y326050D01*
X798400Y327350D02*
X798400Y320350D01*
X791400Y320350D01*
X791400Y327350D01*
X798400Y327350D01*
X798400Y323200D02*
X791400Y323200D01*
X791400Y326050D02*
X798400Y326050D01*
D18*
X1456690Y46600D03*
X1456690Y29600D03*
D12*
X1081650Y109220D03*
X1064650Y109220D03*
X931790Y155575D03*
X914790Y155575D03*
D16*
X868680Y23100D03*
X868680Y53100D03*
D39*
X843280Y49600D03*
X843280Y26600D03*
D41*
X877680Y92710D03*
X859680Y92710D03*
D12*
X1046090Y92710D03*
X1029090Y92710D03*
X1046090Y109220D03*
X1029090Y109220D03*
D10*
X388500Y657000D03*
X383500Y657000D03*
D11*
X413250Y657000D03*
X405500Y657000D03*
D10*
X398500Y657000D03*
X393500Y657000D03*
X373500Y657000D03*
X378500Y657000D03*
D11*
X348750Y657000D03*
X356500Y657000D03*
D10*
X363500Y657000D03*
X368500Y657000D03*
D12*
X297570Y689610D03*
X314570Y689610D03*
X465700Y673100D03*
X448700Y673100D03*
D13*
X101600Y768350D03*
D14*
X111350Y782100D03*
X104850Y782100D03*
X98350Y782100D03*
X91850Y782100D03*
X91850Y754600D03*
X98350Y754600D03*
X104850Y754600D03*
X111350Y754600D03*
D12*
X110100Y706120D03*
X93100Y706120D03*
X668900Y800100D03*
X651900Y800100D03*
X668900Y774700D03*
X651900Y774700D03*
D15*
X685800Y745490D03*
X685800Y689610D03*
X647700Y745490D03*
X647700Y689610D03*
D12*
X110100Y721360D03*
X93100Y721360D03*
D16*
X457200Y650000D03*
X457200Y620000D03*
D12*
X93100Y736600D03*
X110100Y736600D03*
X74050Y977900D03*
X91050Y977900D03*
D17*
X13780Y981400D02*
X13780Y974400D01*
X6780Y974400D01*
X6780Y981400D01*
X13780Y981400D01*
X13780Y977250D02*
X6780Y977250D01*
X6780Y980100D02*
X13780Y980100D01*
X31320Y981400D02*
X31320Y974400D01*
X24320Y974400D01*
X24320Y981400D01*
X31320Y981400D01*
X31320Y977250D02*
X24320Y977250D01*
X24320Y980100D02*
X31320Y980100D01*
D12*
X110100Y800100D03*
X93100Y800100D03*
X110100Y815340D03*
X93100Y815340D03*
X110100Y830580D03*
X93100Y830580D03*
X74050Y958850D03*
X91050Y958850D03*
D17*
X13780Y962350D02*
X13780Y955350D01*
X6780Y955350D01*
X6780Y962350D01*
X13780Y962350D01*
X13780Y958200D02*
X6780Y958200D01*
X6780Y961050D02*
X13780Y961050D01*
X31320Y962350D02*
X31320Y955350D01*
X24320Y955350D01*
X24320Y962350D01*
X31320Y962350D01*
X31320Y958200D02*
X24320Y958200D01*
X24320Y961050D02*
X31320Y961050D01*
D18*
X629920Y709050D03*
X629920Y726050D03*
X614680Y709050D03*
X614680Y726050D03*
D19*
X271000Y895200D03*
X282000Y895200D03*
X293000Y895200D03*
X304000Y895200D03*
X315000Y895200D03*
X326000Y895200D03*
X337000Y895200D03*
X348000Y895200D03*
X359000Y895200D03*
X370000Y895200D03*
X381000Y895200D03*
X392000Y895200D03*
X403000Y895200D03*
X414000Y895200D03*
X425000Y895200D03*
X436000Y895200D03*
X447000Y895200D03*
X458000Y895200D03*
X469000Y895200D03*
X480000Y895200D03*
X491000Y895200D03*
D20*
X501000Y910200D03*
X501000Y921200D03*
X501000Y932200D03*
X501000Y943200D03*
X501000Y954200D03*
X501000Y965200D03*
X501000Y976200D03*
X501000Y987200D03*
X501000Y998200D03*
X501000Y1009200D03*
X501000Y1020200D03*
D19*
X491000Y1035200D03*
X480000Y1035200D03*
X469000Y1035200D03*
X458000Y1035200D03*
X447000Y1035200D03*
X436000Y1035200D03*
X425000Y1035200D03*
X414000Y1035200D03*
X403000Y1035200D03*
X392000Y1035200D03*
X381000Y1035200D03*
X370000Y1035200D03*
X359000Y1035200D03*
X348000Y1035200D03*
X337000Y1035200D03*
X326000Y1035200D03*
X315000Y1035200D03*
X304000Y1035200D03*
X293000Y1035200D03*
X282000Y1035200D03*
X271000Y1035200D03*
D20*
X261000Y1020200D03*
X261000Y1009200D03*
X261000Y998200D03*
X261000Y987200D03*
X261000Y976200D03*
X261000Y965200D03*
X261000Y954200D03*
X261000Y943200D03*
X261000Y932200D03*
X261000Y921200D03*
X261000Y910200D03*
D21*
X278500Y912700D03*
X278500Y933700D03*
X278500Y954700D03*
X278500Y975700D03*
X278500Y996700D03*
X278500Y1017700D03*
X296500Y912700D03*
X296500Y933700D03*
X296500Y954700D03*
X296500Y975700D03*
X296500Y996700D03*
X296500Y1017700D03*
X314500Y912700D03*
X314500Y1017700D03*
X350500Y912700D03*
X350500Y1017700D03*
X483500Y1017700D03*
X483500Y996700D03*
X483500Y975700D03*
X483500Y954700D03*
X483500Y933700D03*
X483500Y912700D03*
X465500Y1017700D03*
X465500Y996700D03*
X465500Y975700D03*
X465500Y954700D03*
X465500Y933700D03*
X465500Y912700D03*
X447500Y1017700D03*
X447500Y912700D03*
X411500Y1017700D03*
X411500Y912700D03*
D22*
X629650Y958850D03*
X629650Y946150D03*
X629650Y933450D03*
X629650Y920750D03*
X629650Y908050D03*
X629650Y895350D03*
D23*
X693850Y880200D03*
X636350Y880200D03*
X636350Y973700D03*
X693850Y973700D03*
D24*
X751050Y882450D03*
X751050Y971750D03*
D25*
X419100Y1061650D03*
X428600Y1061650D03*
X409600Y1061650D03*
X428600Y1084650D03*
X419100Y1084650D03*
X409600Y1084650D03*
D18*
X392430Y1062110D03*
X392430Y1079110D03*
X461010Y1062110D03*
X461010Y1079110D03*
X445770Y1079110D03*
X445770Y1062110D03*
X377190Y1079110D03*
X377190Y1062110D03*
X361950Y1079110D03*
X361950Y1062110D03*
X297180Y1058300D03*
X297180Y1075300D03*
X281940Y1058300D03*
X281940Y1075300D03*
X266700Y1058300D03*
X266700Y1075300D03*
D26*
X195580Y989457D03*
X195580Y998093D03*
X233680Y997712D03*
X233680Y1006348D03*
D27*
X219630Y998220D03*
X209630Y998220D03*
D28*
X197570Y932180D03*
X185970Y932180D03*
D12*
X230750Y932180D03*
X213750Y932180D03*
D28*
X197570Y952500D03*
X185970Y952500D03*
D29*
X596290Y836629D03*
X605790Y836629D03*
X615290Y836629D03*
X615290Y862631D03*
X596290Y862631D03*
D12*
X596510Y892810D03*
X579510Y892810D03*
X596510Y908050D03*
X579510Y908050D03*
D18*
X596900Y977020D03*
X596900Y994020D03*
X596900Y924950D03*
X596900Y941950D03*
D12*
X596510Y958850D03*
X579510Y958850D03*
D18*
X579755Y804790D03*
X579755Y787790D03*
D30*
X533400Y1008930D03*
X533400Y1020530D03*
D31*
X553600Y929900D03*
X548600Y929900D03*
X543600Y929900D03*
X538600Y929900D03*
X553600Y898900D03*
X548600Y898900D03*
X543600Y898900D03*
X538600Y898900D03*
D18*
X548640Y878450D03*
X548640Y861450D03*
X448310Y827650D03*
X448310Y810650D03*
D12*
X291710Y789940D03*
X274710Y789940D03*
D32*
X457560Y844400D03*
X457560Y857400D03*
X439060Y850900D03*
D18*
X472440Y810650D03*
X472440Y827650D03*
D33*
X524660Y809650D03*
X511660Y809650D03*
X524660Y828650D03*
X511660Y828650D03*
X518160Y828650D03*
D32*
X495660Y844400D03*
X495660Y857400D03*
X477160Y850900D03*
D18*
X495300Y810650D03*
X495300Y827650D03*
D34*
X508430Y1071800D03*
X508430Y1061800D03*
X519930Y1066800D03*
D18*
X488950Y1062110D03*
X488950Y1079110D03*
D12*
X524120Y1085850D03*
X507120Y1085850D03*
X287410Y872490D03*
X304410Y872490D03*
D32*
X117960Y892450D03*
X130960Y892450D03*
X124460Y910950D03*
D18*
X118110Y861450D03*
X118110Y878450D03*
D12*
X91050Y996950D03*
X74050Y996950D03*
D17*
X24320Y993450D02*
X24320Y1000450D01*
X31320Y1000450D01*
X31320Y993450D01*
X24320Y993450D01*
X24320Y996300D02*
X31320Y996300D01*
X31320Y999150D02*
X24320Y999150D01*
X6780Y1000450D02*
X6780Y993450D01*
X6780Y1000450D02*
X13780Y1000450D01*
X13780Y993450D01*
X6780Y993450D01*
X6780Y996300D02*
X13780Y996300D01*
X13780Y999150D02*
X6780Y999150D01*
D32*
X145900Y892450D03*
X158900Y892450D03*
X152400Y910950D03*
D18*
X146050Y861450D03*
X146050Y878450D03*
D12*
X91050Y1016000D03*
X74050Y1016000D03*
D17*
X24320Y1012500D02*
X24320Y1019500D01*
X31320Y1019500D01*
X31320Y1012500D01*
X24320Y1012500D01*
X24320Y1015350D02*
X31320Y1015350D01*
X31320Y1018200D02*
X24320Y1018200D01*
X6780Y1019500D02*
X6780Y1012500D01*
X6780Y1019500D02*
X13780Y1019500D01*
X13780Y1012500D01*
X6780Y1012500D01*
X6780Y1015350D02*
X13780Y1015350D01*
X13780Y1018200D02*
X6780Y1018200D01*
D12*
X427600Y871220D03*
X410600Y871220D03*
X377580Y871220D03*
X394580Y871220D03*
X74050Y876300D03*
X91050Y876300D03*
X74050Y901700D03*
X91050Y901700D03*
D18*
X190500Y861450D03*
X190500Y878450D03*
D15*
X749300Y745490D03*
X749300Y689610D03*
X711200Y745490D03*
X711200Y689610D03*
D32*
X173840Y892450D03*
X186840Y892450D03*
X180340Y910950D03*
D18*
X173990Y861450D03*
X173990Y878450D03*
D12*
X91050Y1035050D03*
X74050Y1035050D03*
D17*
X24320Y1031550D02*
X24320Y1038550D01*
X31320Y1038550D01*
X31320Y1031550D01*
X24320Y1031550D01*
X24320Y1034400D02*
X31320Y1034400D01*
X31320Y1037250D02*
X24320Y1037250D01*
X6780Y1038550D02*
X6780Y1031550D01*
X6780Y1038550D02*
X13780Y1038550D01*
X13780Y1031550D01*
X6780Y1031550D01*
X6780Y1034400D02*
X13780Y1034400D01*
X13780Y1037250D02*
X6780Y1037250D01*
D18*
X251460Y1058300D03*
X251460Y1075300D03*
D35*
X427880Y847130D03*
X421380Y847130D03*
X414880Y847130D03*
D36*
X408380Y847005D03*
X401880Y847005D03*
X395380Y847005D03*
X388880Y847005D03*
X382380Y847005D03*
D35*
X427880Y788630D03*
X421380Y788630D03*
X414880Y788630D03*
X408380Y788630D03*
X401880Y788630D03*
X395380Y788630D03*
X388880Y788630D03*
X382380Y788630D03*
X360570Y847130D03*
X354070Y847130D03*
X347570Y847130D03*
D36*
X341070Y847005D03*
X334570Y847005D03*
X328070Y847005D03*
X321570Y847005D03*
X315070Y847005D03*
D35*
X360570Y788630D03*
X354070Y788630D03*
X347570Y788630D03*
X341070Y788630D03*
X334570Y788630D03*
X328070Y788630D03*
X321570Y788630D03*
X315070Y788630D03*
D32*
X543835Y793900D03*
X543835Y780900D03*
X562335Y787400D03*
D18*
X543560Y827650D03*
X543560Y810650D03*
D12*
X597290Y819150D03*
X614290Y819150D03*
D32*
X599290Y785770D03*
X612290Y785770D03*
X605790Y804270D03*
D37*
X165100Y1023000D03*
D38*
X122050Y1069900D03*
X208150Y1069900D03*
D37*
X596900Y1023000D03*
D38*
X553850Y1069900D03*
X639950Y1069900D03*
D10*
X185300Y657000D03*
X180300Y657000D03*
D11*
X210050Y657000D03*
X202300Y657000D03*
D10*
X195300Y657000D03*
X190300Y657000D03*
X170300Y657000D03*
X175300Y657000D03*
D11*
X145550Y657000D03*
X153300Y657000D03*
D10*
X160300Y657000D03*
X165300Y657000D03*
D12*
X147710Y673100D03*
X164710Y673100D03*
X209160Y673100D03*
X192160Y673100D03*
D16*
X254000Y650000D03*
X254000Y620000D03*
D10*
X579000Y657000D03*
X574000Y657000D03*
D11*
X603750Y657000D03*
X596000Y657000D03*
D10*
X589000Y657000D03*
X584000Y657000D03*
X564000Y657000D03*
X569000Y657000D03*
D11*
X539250Y657000D03*
X547000Y657000D03*
D10*
X554000Y657000D03*
X559000Y657000D03*
D12*
X541410Y673100D03*
X558410Y673100D03*
X601590Y673100D03*
X584590Y673100D03*
D16*
X647700Y650000D03*
X647700Y620000D03*
D39*
X482600Y646500D03*
X482600Y623500D03*
X279400Y646500D03*
X279400Y623500D03*
X673100Y646500D03*
X673100Y623500D03*
D25*
X336550Y673040D03*
X349250Y673040D03*
X361950Y673040D03*
X374650Y673040D03*
X387350Y673040D03*
X400050Y673040D03*
X412750Y673040D03*
X425450Y673040D03*
X425450Y729040D03*
X412750Y729040D03*
X400050Y729040D03*
X387350Y729040D03*
X374650Y729040D03*
X361950Y729040D03*
X349250Y729040D03*
X336550Y729040D03*
D40*
X167800Y691750D03*
X172800Y691750D03*
X177800Y691750D03*
X182800Y691750D03*
X187800Y691750D03*
X187800Y737000D03*
X182800Y737000D03*
X177800Y737000D03*
X172800Y737000D03*
X167800Y737000D03*
D12*
X74050Y939800D03*
X91050Y939800D03*
D17*
X13780Y943300D02*
X13780Y936300D01*
X6780Y936300D01*
X6780Y943300D01*
X13780Y943300D01*
X13780Y939150D02*
X6780Y939150D01*
X6780Y942000D02*
X13780Y942000D01*
X31320Y943300D02*
X31320Y936300D01*
X24320Y936300D01*
X24320Y943300D01*
X31320Y943300D01*
X31320Y939150D02*
X24320Y939150D01*
X24320Y942000D02*
X31320Y942000D01*
D12*
X74050Y920750D03*
X91050Y920750D03*
D17*
X13780Y924250D02*
X13780Y917250D01*
X6780Y917250D01*
X6780Y924250D01*
X13780Y924250D01*
X13780Y920100D02*
X6780Y920100D01*
X6780Y922950D02*
X13780Y922950D01*
X31320Y924250D02*
X31320Y917250D01*
X24320Y917250D01*
X24320Y924250D01*
X31320Y924250D01*
X31320Y920100D02*
X24320Y920100D01*
X24320Y922950D02*
X31320Y922950D01*
D18*
X689610Y643500D03*
X689610Y626500D03*
D12*
X314570Y706120D03*
X297570Y706120D03*
X164710Y752475D03*
X147710Y752475D03*
D16*
X101600Y620000D03*
X101600Y650000D03*
D39*
X76200Y646500D03*
X76200Y623500D03*
D41*
X110600Y689610D03*
X92600Y689610D03*
D12*
X279010Y689610D03*
X262010Y689610D03*
X279010Y706120D03*
X262010Y706120D03*
D10*
X1155580Y657000D03*
X1150580Y657000D03*
D11*
X1180330Y657000D03*
X1172580Y657000D03*
D10*
X1165580Y657000D03*
X1160580Y657000D03*
X1140580Y657000D03*
X1145580Y657000D03*
D11*
X1115830Y657000D03*
X1123580Y657000D03*
D10*
X1130580Y657000D03*
X1135580Y657000D03*
D12*
X1064650Y689610D03*
X1081650Y689610D03*
X1232780Y673100D03*
X1215780Y673100D03*
D13*
X868680Y768350D03*
D14*
X878430Y782100D03*
X871930Y782100D03*
X865430Y782100D03*
X858930Y782100D03*
X858930Y754600D03*
X865430Y754600D03*
X871930Y754600D03*
X878430Y754600D03*
D12*
X877180Y706120D03*
X860180Y706120D03*
X1435980Y800100D03*
X1418980Y800100D03*
X1435980Y774700D03*
X1418980Y774700D03*
D15*
X1452880Y745490D03*
X1452880Y689610D03*
X1414780Y745490D03*
X1414780Y689610D03*
D12*
X877180Y721360D03*
X860180Y721360D03*
D16*
X1224280Y650000D03*
X1224280Y620000D03*
D12*
X860180Y736600D03*
X877180Y736600D03*
X841130Y977900D03*
X858130Y977900D03*
D17*
X780860Y981400D02*
X780860Y974400D01*
X773860Y974400D01*
X773860Y981400D01*
X780860Y981400D01*
X780860Y977250D02*
X773860Y977250D01*
X773860Y980100D02*
X780860Y980100D01*
X798400Y981400D02*
X798400Y974400D01*
X791400Y974400D01*
X791400Y981400D01*
X798400Y981400D01*
X798400Y977250D02*
X791400Y977250D01*
X791400Y980100D02*
X798400Y980100D01*
D12*
X877180Y800100D03*
X860180Y800100D03*
X877180Y815340D03*
X860180Y815340D03*
X877180Y830580D03*
X860180Y830580D03*
X841130Y958850D03*
X858130Y958850D03*
D17*
X780860Y962350D02*
X780860Y955350D01*
X773860Y955350D01*
X773860Y962350D01*
X780860Y962350D01*
X780860Y958200D02*
X773860Y958200D01*
X773860Y961050D02*
X780860Y961050D01*
X798400Y962350D02*
X798400Y955350D01*
X791400Y955350D01*
X791400Y962350D01*
X798400Y962350D01*
X798400Y958200D02*
X791400Y958200D01*
X791400Y961050D02*
X798400Y961050D01*
D18*
X1397000Y709050D03*
X1397000Y726050D03*
X1381760Y709050D03*
X1381760Y726050D03*
D19*
X1038080Y895200D03*
X1049080Y895200D03*
X1060080Y895200D03*
X1071080Y895200D03*
X1082080Y895200D03*
X1093080Y895200D03*
X1104080Y895200D03*
X1115080Y895200D03*
X1126080Y895200D03*
X1137080Y895200D03*
X1148080Y895200D03*
X1159080Y895200D03*
X1170080Y895200D03*
X1181080Y895200D03*
X1192080Y895200D03*
X1203080Y895200D03*
X1214080Y895200D03*
X1225080Y895200D03*
X1236080Y895200D03*
X1247080Y895200D03*
X1258080Y895200D03*
D20*
X1268080Y910200D03*
X1268080Y921200D03*
X1268080Y932200D03*
X1268080Y943200D03*
X1268080Y954200D03*
X1268080Y965200D03*
X1268080Y976200D03*
X1268080Y987200D03*
X1268080Y998200D03*
X1268080Y1009200D03*
X1268080Y1020200D03*
D19*
X1258080Y1035200D03*
X1247080Y1035200D03*
X1236080Y1035200D03*
X1225080Y1035200D03*
X1214080Y1035200D03*
X1203080Y1035200D03*
X1192080Y1035200D03*
X1181080Y1035200D03*
X1170080Y1035200D03*
X1159080Y1035200D03*
X1148080Y1035200D03*
X1137080Y1035200D03*
X1126080Y1035200D03*
X1115080Y1035200D03*
X1104080Y1035200D03*
X1093080Y1035200D03*
X1082080Y1035200D03*
X1071080Y1035200D03*
X1060080Y1035200D03*
X1049080Y1035200D03*
X1038080Y1035200D03*
D20*
X1028080Y1020200D03*
X1028080Y1009200D03*
X1028080Y998200D03*
X1028080Y987200D03*
X1028080Y976200D03*
X1028080Y965200D03*
X1028080Y954200D03*
X1028080Y943200D03*
X1028080Y932200D03*
X1028080Y921200D03*
X1028080Y910200D03*
D21*
X1045580Y912700D03*
X1045580Y933700D03*
X1045580Y954700D03*
X1045580Y975700D03*
X1045580Y996700D03*
X1045580Y1017700D03*
X1063580Y912700D03*
X1063580Y933700D03*
X1063580Y954700D03*
X1063580Y975700D03*
X1063580Y996700D03*
X1063580Y1017700D03*
X1081580Y912700D03*
X1081580Y1017700D03*
X1117580Y912700D03*
X1117580Y1017700D03*
X1250580Y1017700D03*
X1250580Y996700D03*
X1250580Y975700D03*
X1250580Y954700D03*
X1250580Y933700D03*
X1250580Y912700D03*
X1232580Y1017700D03*
X1232580Y996700D03*
X1232580Y975700D03*
X1232580Y954700D03*
X1232580Y933700D03*
X1232580Y912700D03*
X1214580Y1017700D03*
X1214580Y912700D03*
X1178580Y1017700D03*
X1178580Y912700D03*
D22*
X1396730Y958850D03*
X1396730Y946150D03*
X1396730Y933450D03*
X1396730Y920750D03*
X1396730Y908050D03*
X1396730Y895350D03*
D23*
X1460930Y880200D03*
X1403430Y880200D03*
X1403430Y973700D03*
X1460930Y973700D03*
D24*
X1518130Y882450D03*
X1518130Y971750D03*
D25*
X1186180Y1061650D03*
X1195680Y1061650D03*
X1176680Y1061650D03*
X1195680Y1084650D03*
X1186180Y1084650D03*
X1176680Y1084650D03*
D18*
X1159510Y1062110D03*
X1159510Y1079110D03*
X1228090Y1062110D03*
X1228090Y1079110D03*
X1212850Y1079110D03*
X1212850Y1062110D03*
X1144270Y1079110D03*
X1144270Y1062110D03*
X1129030Y1079110D03*
X1129030Y1062110D03*
X1064260Y1058300D03*
X1064260Y1075300D03*
X1049020Y1058300D03*
X1049020Y1075300D03*
X1033780Y1058300D03*
X1033780Y1075300D03*
D26*
X962660Y989457D03*
X962660Y998093D03*
X1000760Y997712D03*
X1000760Y1006348D03*
D27*
X986710Y998220D03*
X976710Y998220D03*
D28*
X964650Y932180D03*
X953050Y932180D03*
D12*
X997830Y932180D03*
X980830Y932180D03*
D28*
X964650Y952500D03*
X953050Y952500D03*
D29*
X1363370Y836629D03*
X1372870Y836629D03*
X1382370Y836629D03*
X1382370Y862631D03*
X1363370Y862631D03*
D12*
X1363590Y892810D03*
X1346590Y892810D03*
X1363590Y908050D03*
X1346590Y908050D03*
D18*
X1363980Y977020D03*
X1363980Y994020D03*
X1363980Y924950D03*
X1363980Y941950D03*
D12*
X1363590Y958850D03*
X1346590Y958850D03*
D18*
X1346835Y804790D03*
X1346835Y787790D03*
D30*
X1300480Y1008930D03*
X1300480Y1020530D03*
D31*
X1320680Y929900D03*
X1315680Y929900D03*
X1310680Y929900D03*
X1305680Y929900D03*
X1320680Y898900D03*
X1315680Y898900D03*
X1310680Y898900D03*
X1305680Y898900D03*
D18*
X1315720Y878450D03*
X1315720Y861450D03*
X1215390Y827650D03*
X1215390Y810650D03*
D12*
X1058790Y789940D03*
X1041790Y789940D03*
D32*
X1224640Y844400D03*
X1224640Y857400D03*
X1206140Y850900D03*
D18*
X1239520Y810650D03*
X1239520Y827650D03*
D33*
X1291740Y809650D03*
X1278740Y809650D03*
X1291740Y828650D03*
X1278740Y828650D03*
X1285240Y828650D03*
D32*
X1262740Y844400D03*
X1262740Y857400D03*
X1244240Y850900D03*
D18*
X1262380Y810650D03*
X1262380Y827650D03*
D34*
X1275510Y1071800D03*
X1275510Y1061800D03*
X1287010Y1066800D03*
D18*
X1256030Y1062110D03*
X1256030Y1079110D03*
D12*
X1291200Y1085850D03*
X1274200Y1085850D03*
X1054490Y872490D03*
X1071490Y872490D03*
D32*
X885040Y892450D03*
X898040Y892450D03*
X891540Y910950D03*
D18*
X885190Y861450D03*
X885190Y878450D03*
D12*
X858130Y996950D03*
X841130Y996950D03*
D17*
X791400Y993450D02*
X791400Y1000450D01*
X798400Y1000450D01*
X798400Y993450D01*
X791400Y993450D01*
X791400Y996300D02*
X798400Y996300D01*
X798400Y999150D02*
X791400Y999150D01*
X773860Y1000450D02*
X773860Y993450D01*
X773860Y1000450D02*
X780860Y1000450D01*
X780860Y993450D01*
X773860Y993450D01*
X773860Y996300D02*
X780860Y996300D01*
X780860Y999150D02*
X773860Y999150D01*
D32*
X912980Y892450D03*
X925980Y892450D03*
X919480Y910950D03*
D18*
X913130Y861450D03*
X913130Y878450D03*
D12*
X858130Y1016000D03*
X841130Y1016000D03*
D17*
X791400Y1012500D02*
X791400Y1019500D01*
X798400Y1019500D01*
X798400Y1012500D01*
X791400Y1012500D01*
X791400Y1015350D02*
X798400Y1015350D01*
X798400Y1018200D02*
X791400Y1018200D01*
X773860Y1019500D02*
X773860Y1012500D01*
X773860Y1019500D02*
X780860Y1019500D01*
X780860Y1012500D01*
X773860Y1012500D01*
X773860Y1015350D02*
X780860Y1015350D01*
X780860Y1018200D02*
X773860Y1018200D01*
D12*
X1194680Y871220D03*
X1177680Y871220D03*
X1144660Y871220D03*
X1161660Y871220D03*
X841130Y876300D03*
X858130Y876300D03*
X841130Y901700D03*
X858130Y901700D03*
D18*
X957580Y861450D03*
X957580Y878450D03*
D15*
X1516380Y745490D03*
X1516380Y689610D03*
X1478280Y745490D03*
X1478280Y689610D03*
D32*
X940920Y892450D03*
X953920Y892450D03*
X947420Y910950D03*
D18*
X941070Y861450D03*
X941070Y878450D03*
D12*
X858130Y1035050D03*
X841130Y1035050D03*
D17*
X791400Y1031550D02*
X791400Y1038550D01*
X798400Y1038550D01*
X798400Y1031550D01*
X791400Y1031550D01*
X791400Y1034400D02*
X798400Y1034400D01*
X798400Y1037250D02*
X791400Y1037250D01*
X773860Y1038550D02*
X773860Y1031550D01*
X773860Y1038550D02*
X780860Y1038550D01*
X780860Y1031550D01*
X773860Y1031550D01*
X773860Y1034400D02*
X780860Y1034400D01*
X780860Y1037250D02*
X773860Y1037250D01*
D18*
X1018540Y1058300D03*
X1018540Y1075300D03*
D35*
X1194960Y847130D03*
X1188460Y847130D03*
X1181960Y847130D03*
D36*
X1175460Y847005D03*
X1168960Y847005D03*
X1162460Y847005D03*
X1155960Y847005D03*
X1149460Y847005D03*
D35*
X1194960Y788630D03*
X1188460Y788630D03*
X1181960Y788630D03*
X1175460Y788630D03*
X1168960Y788630D03*
X1162460Y788630D03*
X1155960Y788630D03*
X1149460Y788630D03*
X1127650Y847130D03*
X1121150Y847130D03*
X1114650Y847130D03*
D36*
X1108150Y847005D03*
X1101650Y847005D03*
X1095150Y847005D03*
X1088650Y847005D03*
X1082150Y847005D03*
D35*
X1127650Y788630D03*
X1121150Y788630D03*
X1114650Y788630D03*
X1108150Y788630D03*
X1101650Y788630D03*
X1095150Y788630D03*
X1088650Y788630D03*
X1082150Y788630D03*
D32*
X1310915Y793900D03*
X1310915Y780900D03*
X1329415Y787400D03*
D18*
X1310640Y827650D03*
X1310640Y810650D03*
D12*
X1364370Y819150D03*
X1381370Y819150D03*
D32*
X1366370Y785770D03*
X1379370Y785770D03*
X1372870Y804270D03*
D37*
X932180Y1023000D03*
D38*
X889130Y1069900D03*
X975230Y1069900D03*
D37*
X1363980Y1023000D03*
D38*
X1320930Y1069900D03*
X1407030Y1069900D03*
D10*
X952380Y657000D03*
X947380Y657000D03*
D11*
X977130Y657000D03*
X969380Y657000D03*
D10*
X962380Y657000D03*
X957380Y657000D03*
X937380Y657000D03*
X942380Y657000D03*
D11*
X912630Y657000D03*
X920380Y657000D03*
D10*
X927380Y657000D03*
X932380Y657000D03*
D12*
X914790Y673100D03*
X931790Y673100D03*
X976240Y673100D03*
X959240Y673100D03*
D16*
X1021080Y650000D03*
X1021080Y620000D03*
D10*
X1346080Y657000D03*
X1341080Y657000D03*
D11*
X1370830Y657000D03*
X1363080Y657000D03*
D10*
X1356080Y657000D03*
X1351080Y657000D03*
X1331080Y657000D03*
X1336080Y657000D03*
D11*
X1306330Y657000D03*
X1314080Y657000D03*
D10*
X1321080Y657000D03*
X1326080Y657000D03*
D12*
X1308490Y673100D03*
X1325490Y673100D03*
X1368670Y673100D03*
X1351670Y673100D03*
D16*
X1414780Y650000D03*
X1414780Y620000D03*
D39*
X1249680Y646500D03*
X1249680Y623500D03*
X1046480Y646500D03*
X1046480Y623500D03*
X1440180Y646500D03*
X1440180Y623500D03*
D25*
X1103630Y673040D03*
X1116330Y673040D03*
X1129030Y673040D03*
X1141730Y673040D03*
X1154430Y673040D03*
X1167130Y673040D03*
X1179830Y673040D03*
X1192530Y673040D03*
X1192530Y729040D03*
X1179830Y729040D03*
X1167130Y729040D03*
X1154430Y729040D03*
X1141730Y729040D03*
X1129030Y729040D03*
X1116330Y729040D03*
X1103630Y729040D03*
D40*
X934880Y691750D03*
X939880Y691750D03*
X944880Y691750D03*
X949880Y691750D03*
X954880Y691750D03*
X954880Y737000D03*
X949880Y737000D03*
X944880Y737000D03*
X939880Y737000D03*
X934880Y737000D03*
D12*
X841130Y939800D03*
X858130Y939800D03*
D17*
X780860Y943300D02*
X780860Y936300D01*
X773860Y936300D01*
X773860Y943300D01*
X780860Y943300D01*
X780860Y939150D02*
X773860Y939150D01*
X773860Y942000D02*
X780860Y942000D01*
X798400Y943300D02*
X798400Y936300D01*
X791400Y936300D01*
X791400Y943300D01*
X798400Y943300D01*
X798400Y939150D02*
X791400Y939150D01*
X791400Y942000D02*
X798400Y942000D01*
D12*
X841130Y920750D03*
X858130Y920750D03*
D17*
X780860Y924250D02*
X780860Y917250D01*
X773860Y917250D01*
X773860Y924250D01*
X780860Y924250D01*
X780860Y920100D02*
X773860Y920100D01*
X773860Y922950D02*
X780860Y922950D01*
X798400Y924250D02*
X798400Y917250D01*
X791400Y917250D01*
X791400Y924250D01*
X798400Y924250D01*
X798400Y920100D02*
X791400Y920100D01*
X791400Y922950D02*
X798400Y922950D01*
D18*
X1456690Y643500D03*
X1456690Y626500D03*
D12*
X1081650Y706120D03*
X1064650Y706120D03*
X931790Y752475D03*
X914790Y752475D03*
D16*
X868680Y620000D03*
X868680Y650000D03*
D39*
X843280Y646500D03*
X843280Y623500D03*
D41*
X877680Y689610D03*
X859680Y689610D03*
D12*
X1046090Y689610D03*
X1029090Y689610D03*
X1046090Y706120D03*
X1029090Y706120D03*
M02*
