M48
;GenerationSoftware,Autodesk,EAGLE,9.6.2*%
;CreationDate,2021-05-19T17:08:43Z*%
FMAT,2
ICI,OFF
METRIC,TZ,000.000
T6C0.284
T5C0.300
T4C0.400
T3C0.650
T2C1.016
T1C3.302
%
G90
M71
T1
X150368Y62230
X2540Y107950
X73660Y62230
X2540Y2540
X73660Y2540
X2540Y62230
X150368Y107950
X79248Y2540
X150368Y2540
X73660Y107950
X79248Y48260
X150368Y48260
X2540Y48260
X79248Y62230
X73660Y48260
X79248Y107950
T2
X1270Y22860
X1270Y25400
X50800Y15240
X40640Y74930
X43180Y74930
X45720Y74930
X48260Y74930
X50800Y74930
X1270Y85090
X1270Y82550
X1270Y80010
X1270Y77470
X33020Y74930
X30480Y74930
X27940Y74930
X1270Y74930
X1270Y72390
X1270Y69850
X48260Y15240
X45720Y15240
X43180Y15240
X1270Y67310
X91948Y82550
X94488Y82550
X151638Y85090
X151638Y82550
X151638Y80010
X151638Y77470
X77978Y87630
X77978Y90170
X104648Y74930
X77978Y67310
X107188Y74930
X109728Y74930
X1270Y90170
X1270Y87630
X74930Y77470
X74930Y80010
X74930Y82550
X74930Y85090
X17780Y82550
X15240Y82550
X112268Y74930
X114808Y74930
X117348Y74930
X119888Y74930
X77978Y7620
X122428Y74930
X124968Y74930
X127508Y74930
X40640Y15240
X38100Y15240
X35560Y15240
X33020Y15240
X30480Y15240
X77978Y10160
X77978Y12700
X77978Y15240
X77978Y17780
X77978Y20320
X77978Y22860
X77978Y25400
X127508Y15240
X27940Y15240
X124968Y15240
X122428Y15240
X77978Y85090
X119888Y15240
X77978Y82550
X77978Y80010
X77978Y77470
X77978Y74930
X77978Y72390
X1270Y30480
X1270Y27940
X74930Y17780
X74930Y20320
X74930Y22860
X74930Y25400
X17780Y22860
X77978Y69850
X117348Y15240
X114808Y15240
X112268Y15240
X109728Y15240
X107188Y15240
X104648Y15240
X77978Y30480
X77978Y27940
X15240Y22860
X151638Y17780
X151638Y20320
X151638Y22860
X151638Y25400
X94488Y22860
X91948Y22860
X1270Y7620
X1270Y10160
X1270Y12700
X1270Y15240
X1270Y17780
X1270Y20320
X35560Y74930
X38100Y74930
T3
X35210Y64595
X117698Y4905
X111918Y4905
X136748Y64595
X130968Y64595
X97378Y64595
X40990Y64595
X91598Y64595
X20670Y4905
X97378Y4905
X14890Y4905
X136748Y4905
X14890Y64595
X130968Y4905
X40990Y4905
X91598Y4905
X35210Y4905
X54260Y64595
X20670Y64595
X60040Y4905
X117698Y64595
X60040Y64595
X54260Y4905
X111918Y64595
T4
X13462Y65125
X22098Y65125
X22098Y60945
X13462Y60945
X33782Y65125
X42418Y65125
X42418Y60945
X33782Y60945
X52832Y5435
X61468Y5435
X61468Y1255
X52832Y1255
X13462Y5435
X119126Y65125
X110490Y65125
X110490Y1255
X42418Y1255
X90170Y1255
X33782Y1255
X13462Y1255
X42418Y5435
X129540Y5435
X138176Y5435
X52832Y65125
X98806Y60945
X98806Y65125
X90170Y65125
X129540Y60945
X138176Y60945
X61468Y65125
X129540Y65125
X22098Y1255
X61468Y60945
X22098Y5435
X138176Y1255
X33782Y5435
X52832Y60945
X129540Y1255
X138176Y65125
X90170Y5435
X98806Y5435
X98806Y1255
X110490Y5435
X119126Y5435
X119126Y1255
X110490Y60945
X119126Y60945
X90170Y60945
T5
X60579Y25273
X54610Y17463
X26416Y19304
X1905Y37211
X19558Y29464
X15875Y28448
X13081Y28448
X53975Y46355
X53975Y48895
X22225Y49530
X22225Y46990
X22225Y44450
X10795Y44450
X10795Y46990
X10795Y49530
X12700Y42545
X36830Y49276
X38481Y49276
X46609Y26035
X49657Y26924
X37211Y24511
X5080Y29210
X46101Y22606
X10795Y48260
X10795Y45720
X22225Y48260
X22225Y45720
X21717Y43053
X11303Y43053
X26035Y43815
X28702Y38989
X24257Y41910
X53975Y47625
X53975Y45085
X53340Y39878
X51879Y42355
X65405Y47625
X65405Y45085
X62611Y42037
X63881Y42799
X60960Y40894
X47371Y41021
X44450Y38735
X43371Y42291
X47371Y38862
X60833Y38227
X60960Y34798
X60960Y32639
X60960Y30480
X60960Y27940
X58420Y27940
X63500Y25400
X58420Y32639
X58420Y40894
X58166Y38227
X55880Y38227
X54610Y38227
X21082Y37338
X23114Y35052
X18161Y37338
X17272Y35560
X20765Y32131
X23114Y32258
X42228Y23749
X25146Y49530
X27876Y28448
X62230Y19050
X56134Y34290
X8001Y23368
X8001Y21844
X8001Y20320
X8001Y12446
X8001Y10922
X8001Y9271
X14732Y14414
X14732Y8890
X20955Y8890
X17780Y10605
X54102Y8890
X60198Y8890
X61468Y13970
X68580Y12065
X71120Y12065
X68961Y5969
X30734Y20447
X38608Y20701
X33655Y8763
X41910Y8763
X24574Y23241
X20320Y22860
X3492Y23876
X21781Y26162
X1016Y44831
X9144Y29210
X23749Y45720
X31115Y45720
X49530Y49530
X64389Y21590
X53340Y26416
X52451Y20447
X42164Y20701
X58039Y22225
X62992Y13970
X35433Y20701
X18034Y15557
X3810Y21590
X3810Y20320
X3810Y19050
X6350Y19050
X6350Y20320
X25400Y26162
X26416Y26162
X25400Y24384
X26416Y24384
X64008Y17780
X64008Y20320
X10287Y38227
X10287Y36195
X53721Y28638
X53149Y29273
X61595Y35306
X40005Y42418
X64516Y29845
X42860Y45273
X65151Y31115
X43815Y45212
X61595Y34290
X40960Y45273
X49149Y45275
X58420Y34290
X53149Y33274
X54610Y31750
X32639Y27940
X33655Y27940
X34798Y27940
X35814Y27940
X50046Y47744
X55062Y34282
X27313Y27551
X28710Y26281
X27313Y26281
X17391Y25265
X30607Y19304
X35433Y26281
X42799Y26281
X44831Y24257
X43751Y19050
X37084Y19812
X32131Y26281
X52197Y47879
X46990Y28067
X44640Y27876
X31750Y28003
X53403Y38224
X49974Y46355
X40831Y23812
X41529Y23431
X39434Y23749
X37148Y25496
X40132Y23431
X103378Y49530
X104902Y49530
X106426Y49530
X109728Y48768
X109728Y46482
X105410Y41021
X108458Y40640
X108458Y37846
X108458Y36068
X109728Y33020
X114808Y36830
X121158Y40640
X121158Y33020
X112268Y33020
X117348Y33020
X114808Y33020
X114808Y41910
X116078Y41910
X110998Y36830
X117348Y36830
X100457Y38862
X98298Y38862
X94869Y38862
X92837Y39751
X91948Y41275
X91948Y42799
X94488Y42799
X94488Y41148
X97028Y41910
X99568Y41910
X93599Y32766
X97790Y35052
X102489Y30099
X126873Y29845
X130048Y43688
X127000Y43307
X131953Y42291
X133477Y42037
X128587Y40132
X131318Y39878
X133096Y39751
X135128Y42418
X137668Y42418
X137541Y39624
X135128Y35052
X133350Y31242
X141478Y36195
X142113Y48895
X142113Y46355
X142113Y43815
X122047Y49212
X118618Y47625
X137287Y25273
X131318Y17463
X103124Y19304
X78613Y37211
X96266Y29464
X92583Y28448
X89789Y28448
X130683Y46355
X130683Y48895
X98933Y49530
X98933Y46990
X98933Y44450
X87503Y44450
X87503Y46990
X87503Y49530
X89408Y42545
X113538Y49276
X115189Y49276
X123317Y26035
X126365Y26924
X113919Y24511
X81788Y29210
X122809Y22606
X87503Y48260
X87503Y45720
X98933Y48260
X98933Y45720
X98425Y43053
X88011Y43053
X102743Y43815
X105410Y38989
X100965Y41910
X130683Y47625
X130683Y45085
X130048Y39878
X128587Y42355
X142113Y47625
X142113Y45085
X139319Y42037
X140589Y42799
X137668Y40894
X124079Y41021
X121158Y38735
X120078Y42291
X124079Y38862
X137541Y38227
X137668Y34798
X137668Y32639
X137668Y30480
X137668Y27940
X135128Y27940
X140208Y25400
X135128Y32639
X135128Y40894
X134874Y38227
X132588Y38227
X131318Y38227
X97790Y37338
X99822Y35052
X94869Y37338
X93980Y35560
X97472Y32131
X99822Y32258
X118935Y23749
X101854Y49530
X104584Y28448
X138938Y19050
X132842Y34290
X84709Y23368
X84709Y21844
X84709Y20320
X84709Y12446
X84709Y10922
X84709Y9271
X91440Y14414
X91440Y8890
X97663Y8890
X94488Y10605
X130810Y8890
X136906Y8890
X138176Y13970
X145288Y12065
X147828Y12065
X145669Y5969
X107442Y20447
X115316Y20701
X110363Y8763
X118618Y8763
X101282Y23241
X97028Y22860
X80201Y23876
X98488Y26162
X77724Y44831
X85852Y29210
X100457Y45720
X107823Y45720
X126238Y49530
X141097Y21590
X130048Y26416
X129159Y20447
X118872Y20701
X134747Y22225
X139700Y13970
X112141Y20701
X94742Y15557
X80518Y21590
X80518Y20320
X80518Y19050
X83058Y19050
X83058Y20320
X83058Y21590
X102108Y26162
X103124Y26162
X102108Y24384
X103124Y24384
X140716Y17780
X140716Y20320
X86995Y38227
X86995Y36195
X130429Y28638
X129857Y29273
X138303Y35306
X116713Y42418
X141224Y29845
X119568Y45273
X141859Y31115
X120523Y45212
X138303Y34290
X117668Y45273
X125857Y45275
X47371Y98552
X135128Y34290
X129857Y33274
X131318Y31750
X109347Y27940
X110363Y27940
X111506Y27940
X112522Y27940
X126754Y47744
X131771Y34282
X104021Y27551
X105418Y26281
X104021Y26281
X94099Y25265
X107315Y19304
X112141Y26281
X119507Y26281
X121539Y24257
X120459Y19050
X113792Y19812
X108839Y26281
X128905Y47879
X123698Y28067
X121348Y27876
X108458Y28003
X130111Y38224
X126682Y46355
X117538Y23812
X118237Y23431
X116141Y23749
X113855Y25496
X116840Y23431
X26670Y109220
X28194Y109220
X29718Y109220
X33020Y108458
X33020Y106172
X28702Y100711
X31750Y100330
X31750Y97536
X31750Y95758
X33020Y92710
X38100Y96520
X44450Y100330
X44450Y92710
X35560Y92710
X40640Y92710
X38100Y92710
X38100Y101600
X39370Y101600
X34290Y96520
X40640Y96520
X23749Y98552
X21590Y98552
X18161Y98552
X16129Y99441
X15240Y100965
X15240Y102489
X17780Y102489
X17780Y100838
X20320Y101600
X22860Y101600
X16891Y92456
X21082Y94742
X25781Y89789
X50165Y89535
X53340Y103378
X50292Y102997
X55245Y101981
X56769Y101727
X51879Y99822
X54610Y99568
X56388Y99441
X58420Y102108
X60960Y102108
X60833Y99314
X58420Y94742
X56642Y90932
X64770Y95885
X65405Y108585
X65405Y106045
X65405Y103505
X45339Y108902
X41910Y107315
X60579Y84963
X54610Y77153
X26416Y78994
X1905Y96901
X19558Y89154
X15875Y88138
X13081Y88138
X53975Y106045
X53975Y108585
X22225Y109220
X22225Y106680
X22225Y104140
X10795Y104140
X10795Y106680
X10795Y109220
X12700Y102235
X36830Y108966
X38481Y108966
X46609Y85725
X49657Y86614
X37211Y84201
X5080Y88900
X46101Y82296
X10795Y107950
X10795Y105410
X22225Y107950
X22225Y105410
X21717Y102743
X11303Y102743
X26035Y103505
X28702Y98679
X24257Y101600
X53975Y107315
X53975Y104775
X53340Y99568
X51879Y102044
X65405Y107315
X65405Y104775
X62611Y101727
X63881Y102489
X60960Y100584
X47371Y100711
X44450Y98425
X43371Y101981
X6350Y21590
X60833Y97917
X60960Y94488
X60960Y92329
X60960Y90170
X60960Y87630
X58420Y87630
X63500Y85090
X58420Y92329
X58420Y100584
X58166Y97917
X55880Y97917
X54610Y97917
X21082Y97028
X23114Y94742
X18161Y97028
X17272Y95250
X20765Y91821
X23114Y91948
X42228Y83439
X25146Y109220
X27876Y88138
X62230Y78740
X56134Y93980
X8001Y83058
X8001Y81534
X8001Y80010
X8001Y72136
X8001Y70612
X8001Y68961
X14732Y74105
X14732Y68580
X20955Y68580
X17780Y70295
X54102Y68580
X60198Y68580
X61468Y73660
X68580Y71755
X71120Y71755
X68961Y65659
X30734Y80137
X38608Y80391
X33655Y68453
X41910Y68453
X24574Y82931
X20320Y82550
X3492Y83566
X21781Y85852
X1016Y104521
X9144Y88900
X23749Y105410
X31115Y105410
X49530Y109220
X64389Y81280
X53340Y86106
X52451Y80137
X42164Y80391
X58039Y81915
X62992Y73660
X35433Y80391
X18034Y75248
X3810Y81280
X3810Y80010
X3810Y78740
X6350Y78740
X6350Y80010
X6350Y81280
X25400Y85852
X26416Y85852
X25400Y84074
X26416Y84074
X64008Y77470
X64008Y80010
X10287Y97917
X10287Y95885
X53721Y88328
X53149Y88963
X61595Y94996
X40005Y102108
X64516Y89535
X42860Y104963
X65151Y90805
X43815Y104902
X61595Y93980
X40960Y104963
X49149Y104965
X58420Y93980
X53149Y92964
X54610Y91440
X32639Y87630
X33655Y87630
X34798Y87630
X35814Y87630
X50046Y107434
X55062Y93972
X27313Y87241
X28710Y85971
X27313Y85971
X17391Y84955
X30607Y78994
X35433Y85971
X42799Y85971
X44831Y83947
X43751Y78740
X37084Y79502
X32131Y85971
X52197Y107569
X46990Y87757
X44640Y87566
X31750Y87693
X53403Y97914
X49974Y106045
X40831Y83503
X41529Y83122
X37148Y85186
X40132Y83122
X103378Y109220
X104902Y109220
X106426Y109220
X109728Y108458
X109728Y106172
X105410Y100711
X108458Y100330
X108458Y97536
X108458Y95758
X109728Y92710
X114808Y96520
X121158Y100330
X121158Y92710
X112268Y92710
X117348Y92710
X114808Y92710
X114808Y101600
X116078Y101600
X110998Y96520
X117348Y96520
X100457Y98552
X98298Y98552
X94869Y98552
X92837Y99441
X91948Y100965
X91948Y102489
X94488Y102489
X94488Y100838
X97028Y101600
X99568Y101600
X93599Y92456
X97790Y94742
X102489Y89789
X126873Y89535
X130048Y103378
X127000Y102997
X131953Y101981
X133477Y101727
X128587Y99822
X131318Y99568
X133096Y99441
X135128Y102108
X137668Y102108
X137541Y99314
X135128Y94742
X133350Y90932
X141478Y95885
X142113Y108585
X142113Y106045
X142113Y103505
X122047Y108902
X118618Y107315
X137287Y84963
X131318Y77153
X103124Y78994
X78613Y96901
X96266Y89154
X92583Y88138
X89789Y88138
X130683Y106045
X130683Y108585
X98933Y109220
X98933Y106680
X98933Y104140
X87503Y104140
X87503Y106680
X87503Y109220
X89408Y102235
X113538Y108966
X115189Y108966
X123317Y85725
X126365Y86614
X113919Y84201
X81788Y88900
X122809Y82296
X87503Y107950
X87503Y105410
X98933Y107950
X98933Y105410
X98425Y102743
X88011Y102743
X102743Y103505
X105410Y98679
X100965Y101600
X130683Y107315
X130683Y104775
X130048Y99568
X128587Y102044
X142113Y107315
X142113Y104775
X139319Y101727
X140589Y102489
X137668Y100584
X124079Y100711
X121158Y98425
X120078Y101981
X124079Y98552
X137541Y97917
X137668Y94488
X137668Y92329
X137668Y90170
X137668Y87630
X135128Y87630
X140208Y85090
X135128Y92329
X135128Y100584
X134874Y97917
X132588Y97917
X131318Y97917
X97790Y97028
X99822Y94742
X94869Y97028
X93980Y95250
X97472Y91821
X99822Y91948
X118935Y83439
X101854Y109220
X104584Y88138
X138938Y78740
X132842Y93980
X84709Y83058
X84709Y81534
X84709Y80010
X84709Y72136
X84709Y70612
X84709Y68961
X91440Y74105
X91440Y68580
X97663Y68580
X94488Y70295
X130810Y68580
X136906Y68580
X138176Y73660
X145288Y71755
X147828Y71755
X145669Y65659
X107442Y80137
X115316Y80391
X110363Y68453
X118618Y68453
X101282Y82931
X97028Y82550
X80201Y83566
X98488Y85852
X85852Y88900
X100457Y105410
X107823Y105410
X126238Y109220
X141097Y81280
X130048Y86106
X129159Y80137
X118872Y80391
X134747Y81915
X139700Y73660
X112141Y80391
X94742Y75248
X80518Y81280
X80518Y80010
X80518Y78740
X83058Y78740
X83058Y80010
X83058Y81280
X102108Y85852
X103124Y85852
X102108Y84074
X103124Y84074
X140716Y77470
X140716Y80010
X86995Y97917
X86995Y95885
X130429Y88328
X129857Y88963
X138303Y94996
X116713Y102108
X141224Y89535
X119568Y104963
X141859Y90805
X120523Y104902
X138303Y93980
X117668Y104963
X125857Y104965
X135128Y93980
X129857Y92964
X131318Y91440
X109347Y87630
X110363Y87630
X111506Y87630
X112522Y87630
X126754Y107434
X131771Y93972
X104021Y87241
X105418Y85971
X104021Y85971
X94099Y84955
X107315Y78994
X112141Y85971
X119507Y85971
X121539Y83947
X120459Y78740
X113792Y79502
X108839Y85971
X128905Y107569
X123698Y87757
X121348Y87566
X108458Y87693
X130111Y97914
X126682Y106045
X117538Y83503
X118237Y83122
X116141Y83439
X113855Y85186
X116840Y83122
X39434Y83439
X26670Y49530
X28194Y49530
X29718Y49530
X33020Y48768
X33020Y46482
X28702Y41021
X31750Y40640
X31750Y37846
X31750Y36068
X33020Y33020
X38100Y36830
X44450Y40640
X44450Y33020
X35560Y33020
X40640Y33020
X38100Y33020
X38100Y41910
X39370Y41910
X34290Y36830
X40640Y36830
X23749Y38862
X21590Y38862
X18161Y38862
X16129Y39751
X15240Y41275
X15240Y42799
X17780Y42799
X17780Y41148
X20320Y41910
X22860Y41910
X16891Y32766
X21082Y35052
X25781Y30099
X50165Y29845
X53340Y43688
X50292Y43307
X55245Y42291
X56769Y42037
X51879Y40132
X54610Y39878
X56388Y39751
X58420Y42418
X60960Y42418
X60833Y39624
X58420Y35052
X56642Y31242
X64770Y36195
X65405Y48895
X65405Y46355
X65405Y43815
X45339Y49212
X41910Y47625
X77724Y104521
T6
X33465Y77661
X24003Y76581
X34209Y77661
X23495Y80518
X36957Y77536
X14033Y76645
X3683Y91186
X21082Y86233
X3810Y93091
X13208Y86360
X133858Y68188
X130810Y95123
X133858Y64728
X131953Y94996
X122555Y86741
X139573Y61976
X120396Y82550
X133096Y76200
X12446Y92202
X108458Y76454
X116845Y77612
X7493Y88900
X130048Y87630
X12700Y81280
X16256Y85725
X57150Y68188
X54102Y95123
X57150Y64728
X17530Y64755
X16798Y68282
X55245Y94996
X45847Y86741
X108458Y16764
X62865Y61976
X43688Y82550
X34925Y68898
X33020Y70612
X35560Y70485
X38100Y70485
X40005Y70485
X41910Y70485
X45720Y70229
X133223Y83185
X109410Y77661
X100203Y77724
X110172Y77661
X100711Y76581
X110916Y77661
X100203Y80518
X113665Y77536
X90741Y76645
X48260Y70803
X97790Y86233
X13970Y71120
X89916Y86360
X89154Y92202
X84201Y88900
X16510Y71120
X92964Y85725
X19050Y71120
X21590Y71120
X10287Y93980
X94238Y64755
X93506Y68282
X10287Y92075
X10795Y63500
X9652Y63500
X6858Y62357
X6477Y62992
X111633Y68898
X109728Y70612
X112268Y70485
X114808Y70485
X116713Y70485
X118618Y70485
X122428Y70229
X124968Y70803
X90678Y71120
X93218Y71120
X95758Y71120
X98298Y71120
X86995Y93980
X86995Y92075
X87503Y63500
X86360Y63500
X83566Y62357
X83185Y62992
X131064Y84455
X83185Y3302
X83566Y2667
X86360Y3810
X87503Y3810
X86995Y32385
X86995Y34290
X98298Y11430
X95758Y11430
X93218Y11430
X90678Y11430
X124968Y11112
X122428Y10539
X118618Y10795
X116713Y10795
X114808Y10795
X112268Y10795
X109728Y10922
X111633Y9208
X93506Y8592
X94238Y5065
X92964Y26035
X84201Y29210
X89154Y32512
X89916Y26670
X97790Y26543
X90741Y16955
X54356Y84455
X113665Y17846
X100203Y20828
X110916Y17971
X100711Y16891
X110172Y17971
X100203Y18034
X109410Y17971
X133223Y23495
X130048Y27940
X116845Y17922
X133096Y16510
X120396Y22860
X139573Y2286
X122555Y27051
X131953Y35306
X133858Y5038
X130810Y35433
X133858Y8498
X83185Y4318
X83566Y4953
X135382Y23114
X88900Y13970
X86868Y7620
X104648Y7620
X103378Y7620
X124968Y7620
X126238Y7620
X144018Y7620
X145288Y7620
X85598Y7620
X89408Y21590
X80518Y33401
X80391Y31496
X121539Y6477
X115978Y5038
X109474Y9271
X113567Y5109
X114808Y4968
X116713Y8763
X114173Y8763
X82804Y33716
X81788Y31750
X54356Y24765
X6477Y3302
X6858Y2667
X9652Y3810
X10795Y3810
X10287Y32385
X10287Y34290
X21590Y11430
X19050Y11430
X16510Y11430
X13970Y11430
X48260Y11112
X45720Y10539
X41910Y10795
X40005Y10795
X38100Y10795
X35560Y10795
X33020Y10922
X34925Y9208
X16798Y8592
X17530Y5065
X16256Y26035
X7493Y29210
X12446Y32512
X13208Y26670
X21082Y26543
X14033Y16955
X36957Y17846
X23495Y20828
X34209Y17971
X24003Y16891
X33465Y17971
X23495Y18034
X32702Y17971
X56515Y23495
X53340Y27940
X40137Y17922
X31750Y16764
X56388Y16510
X43688Y22860
X62865Y2286
X45847Y27051
X55245Y35306
X57150Y5038
X54102Y35433
X57150Y8498
X6477Y4318
X6858Y4953
X58674Y23114
X12192Y13970
X10160Y7620
X27940Y7620
X26670Y7620
X48260Y7620
X49530Y7620
X67310Y7620
X68580Y7620
X8890Y7620
X12700Y21590
X3810Y33401
X3683Y31496
X44831Y6477
X39270Y5038
X32766Y9271
X36859Y5109
X38100Y4968
X40005Y8763
X37465Y8763
X6096Y33716
X5080Y31750
X56388Y76200
X8890Y67310
X131064Y24765
X31750Y76454
X40137Y77612
X68580Y67310
X53340Y87630
X67310Y67310
X49530Y67310
X48260Y67310
X26670Y67310
X27940Y67310
X81788Y91440
X82804Y93406
X114173Y68453
X10160Y67310
X12192Y73660
X58674Y82804
X6858Y64643
X6477Y64008
X5080Y91440
X40005Y68453
X38100Y64658
X36859Y64799
X32766Y68961
X39270Y64728
X44831Y66167
X6096Y93406
X116713Y68453
X114808Y64658
X113567Y64799
X109474Y68961
X115978Y64728
X121539Y66167
X37465Y68453
X56515Y83185
X80391Y91186
X80518Y93091
X89408Y81280
X85598Y67310
X145288Y67310
X144018Y67310
X126238Y67310
X124968Y67310
X103378Y67310
X104648Y67310
X86868Y67310
X88900Y73660
X135382Y82804
X83566Y64643
X83185Y64008
X32702Y77661
X23495Y77724
M30